<?xml version="1.0" encoding="utf-8"?>
<!-- Generator: Adobe Illustrator 25.0.0, SVG Export Plug-In . SVG Version: 6.00 Build 0)  -->
<svg version="1.1" id="Layer_1" xmlns="http://www.w3.org/2000/svg" xmlns:xlink="http://www.w3.org/1999/xlink" x="0px" y="0px"
	 viewBox="0 0 153.1 117.9" style="enable-background:new 0 0 153.1 117.9;" xml:space="preserve">
<style type="text/css">
	.st0{fill:#4D4D4D;}
	.st1{fill:#FEFEFE;}
	.st2{fill:#6699CC;}
	.st3{fill:#0071BC;}
	.st4{fill:#E6E6E6;}
</style>
<g>
	<path class="st0" d="M76.6,111H11.1C4.8,111,0,106.7,0,100.7C0,79,0,57.2,0,35.5c0-6,4.7-10.3,11.1-10.3c5,0,5,0,5.2-4.6
		c0-1.3,0.8-1.9,2.2-1.9h22.1c2.1,0,2.5,1.4,2.3,2.8c-0.5,3.1,0.6,3.9,3.9,3.7c6.6-0.3,6.6-0.1,7.6-6.3c0.3-2.1,0.7-4.2,1.1-6.2
		c0.5-3.4,3.4-5.9,6.9-5.9c9.5-0.2,19-0.2,28.6,0c4.3,0.1,6.3,2.6,7.3,8.1c0.6,3.2,1.2,6.3,1.7,9.4c0.1,0.6,0.3,0.8,1,0.8
		c3,0,6,0,9,0c0.8,0,0.9-0.2,0.9-0.9c0-6.3-0.4-5.6,6.1-5.6c6.5,0,13.2,0,19.7,0c2.2,0,3.2,0.8,2.8,2.8c-0.5,3,0.4,4,3.8,3.9
		c5.5,0,10,4.5,10,10.1c0,0.1,0,0.1,0,0.2c0,21.7,0,43.4,0,65.1c0,6-4.7,10.3-11.1,10.3L76.6,111z M48.7,97c-14.4,0-28.8,0-43.2-0.1
		c-2.9,0-3.7,0.5-3.6,3.4c0.3,5.6,3.7,9,9.7,9h123.2c0.5,0,1,0,1.6,0h4.9c8.3,0.1,10.7-5.4,10-11.8c0-0.5-0.4-0.4-0.8-0.4h-10.2
		h-33.5c-2.3,0.2-4.8-0.8-6.8,0.6c-13.6,9.5-31.5,9.8-45.4,0.8C52.9,97.2,50.8,96.7,48.7,97z M136.4,27c-0.3,0-0.7,0-1,0H10.8
		c-4.1-0.1-7.7,2.7-8.6,6.7c-1,5.1-0.6,5.6,4.6,5.6h2.8h41c1.6,0.3,2.8-0.5,4.4-1.9c11.9-10.6,29.7-10.9,42-0.8c2.2,2,5.1,3,8.1,2.7
		h35.3h10.2c0.3,0,0.7-0.2,0.7-0.3c0.1-3.3,0.4-6.7-2.4-9.4C145.2,26,140.7,27.1,136.4,27L136.4,27z M76.6,103
		c20.4,0,37-15.5,37.1-34.5c0-19.6-16.4-35.2-36.8-35.3c-20.5,0-37.2,15.5-37.2,34.7S56.1,103,76.6,103L76.6,103z M132.9,55.7
		c3.3,0,6.6,0,9.9,0c0.8,0,1-0.2,1-0.9c0-2.8,0-5.7,0-8.5c0-0.7-0.3-0.9-1-0.9c-6.5,0-13.1,0-19.6,0c-0.8,0-1.1,0.3-1,1
		c0,2.8,0,5.5,0,8.2c0,0.9,0.3,1.1,1.2,1.1C126.6,55.6,129.7,55.7,132.9,55.7L132.9,55.7z M76.6,15c-3.1,0-6.2,0-9.3,0
		c-1.7,0-2.8,0.7-2.8,2.3s1.2,2.3,2.8,2.3c6.2,0,12.5,0,18.7,0c1.7,0,2.8-0.7,2.8-2.3S87.6,15,86,15C82.9,15,79.8,15,76.6,15
		L76.6,15z"/>
	<path class="st1" d="M50.6,39.1h-41H6.8c-5.6,0-5.6-0.6-4.3-6.9c0.8-3.2,3.6-5.4,6.8-5.3h126.3l1.2,0.5c0.7,0.6,1.3,1.2,1.9,1.8
		c2.5,3,1.2,6.6,1.6,9.9H105c-0.1-0.1-0.2-0.3-0.3-0.4c-12.1-10-30.6-12.2-45.2-5.4C56.2,34.7,53.2,36.7,50.6,39.1z"/>
	<path class="st1" d="M136.4,109.2c-0.5,0-1,0-1.6,0H11.6c-5.9,0-9.4-3.4-9.7-9c-0.2-2.8,0.6-3.4,3.6-3.4
		c14.4,0.2,28.8,0.1,43.2,0.1c0.2,0.4,0.5,0.7,0.8,1c13.3,10.7,28.1,13.2,44.3,7.2c4.9-1.7,9.4-4.5,13-8.3h33.4
		C140.1,101.4,141.2,106.1,136.4,109.2z"/>
	<path class="st1" d="M132.9,55.7c-3.2,0-6.4,0-9.5,0c-0.9,0-1.2-0.2-1.2-1.1c0-2.8,0-5.5,0-8.2c0-0.8,0.2-1,1-1
		c6.5,0,13.1,0,19.6,0c0.7,0,1,0.2,1,0.9c0,2.8,0,5.7,0,8.5c0,0.8-0.3,0.9-1,0.9C139.5,55.6,136.2,55.7,132.9,55.7z"/>
	<path class="st1" d="M76.6,15c3.1,0,6.2,0,9.4,0c1.7,0,2.8,0.7,2.8,2.3s-1.2,2.3-2.8,2.3c-6.2,0-12.5,0-18.7,0
		c-1.7,0-2.8-0.7-2.8-2.3c0-1.6,1.2-2.3,2.8-2.3C70.4,15,73.5,15,76.6,15z"/>
	<path class="st2" d="M76.6,103c-20.5,0-37-15.6-37-35s16.6-34.7,37.2-34.7s36.8,15.7,36.8,35.2C113.7,87.5,97,103,76.6,103z
		 M76.7,94.8c15.5,0,28.2-12,28.2-26.6S92.2,41.5,76.7,41.5S48.3,53.5,48.3,68.1S61.1,94.8,76.7,94.8L76.7,94.8z"/>
	<path class="st3" d="M106.9,97c-3.6,3.7-8.1,6.5-13,8.3c-16.3,5.9-31.1,3.5-44.3-7.2c-0.3-0.3-0.6-0.7-0.8-1c2.1-0.3,4.2,0.2,6,1.4
		c13.9,8.9,31.8,8.6,45.4-0.8C102.1,96.1,104.6,97.2,106.9,97z"/>
	<path class="st3" d="M140.3,39.3c-0.4-3.3,0.9-6.9-1.6-9.9c-0.7-0.8-1.5-1.5-2.3-2.3c4.3,0.1,8.9-1,12.4,2.5
		c2.8,2.8,2.5,6.1,2.4,9.4c0,0.1-0.5,0.3-0.7,0.3L140.3,39.3z"/>
	<path class="st3" d="M136.4,109.2c4.9-3,3.8-7.8,3.9-12.2h10.2c0.3,0,0.7-0.1,0.8,0.4c0.7,6.5-1.7,12-10,11.8L136.4,109.2z"/>
	<path class="st3" d="M50.6,39.3c2.6-2.5,5.6-4.4,8.9-5.8c14.6-6.8,33.1-4.6,45.2,5.4c0.1,0.1,0.2,0.2,0.3,0.4
		c-2.3,0.3-4.7-0.3-6.6-1.6c-13.7-8.7-31.4-8.4-44.8,0.8C52.8,39.2,51.7,39.4,50.6,39.3z"/>
	<path class="st4" d="M76.7,94.8c-15.6,0-28.3-12-28.3-26.6s12.7-26.6,28.3-26.6s28.3,12,28.2,26.7C104.9,82.9,92.2,94.7,76.7,94.8z
		 M97.5,69.1c0.1-9.4-6.2-17.7-15.4-20c-1.3-0.5-2.7,0.2-3.2,1.5c0,0,0,0.1,0,0.1c-0.5,1.2,0.1,2.5,1.3,3c0.2,0.1,0.3,0.1,0.5,0.1
		c8.7,2.7,13,9.8,11,18.3c-0.4,1.2,0.2,2.5,1.3,2.9c0.2,0.1,0.3,0.1,0.5,0.1c1.2,0.5,2.6-0.1,3.1-1.4c0.1-0.1,0.1-0.3,0.1-0.4
		C97.2,71.6,97.4,69.9,97.5,69.1L97.5,69.1z M92.3,80c-0.1-1.3-1.2-2.3-2.6-2.2c0,0,0,0-0.1,0c-1.7,0-4.8,2.8-4.7,4.2
		c0,1.3,1,2.4,2.3,2.4c0.1,0,0.1,0,0.2,0C89.3,84.4,92.3,81.8,92.3,80L92.3,80z"/>
	<path class="st1" d="M97.6,69.1c-0.1,0.8-0.4,2.5-0.8,4.2c-0.2,1.3-1.5,2.2-2.8,1.9c-0.2,0-0.3-0.1-0.4-0.1
		c-1.2-0.2-2.1-1.3-1.9-2.6c0-0.2,0.1-0.3,0.1-0.5c2-8.4-2.3-15.6-11-18.3c-1.3-0.2-2.1-1.3-2-2.6c0-0.2,0.1-0.3,0.1-0.5
		c0.4-1.3,1.8-2,3.1-1.6c0,0,0.1,0,0.1,0C91.3,51.4,97.7,59.6,97.6,69.1z"/>
	<path class="st1" d="M92.3,80c0,1.8-3,4.5-4.7,4.4c-1.3,0.1-2.5-0.9-2.6-2.2c0-0.1,0-0.1,0-0.2c-0.1-1.5,3-4.3,4.7-4.2
		C91,77.7,92.2,78.7,92.3,80C92.3,80,92.3,80,92.3,80z"/>
</g>
</svg>
