<svg id="Layer_1" data-name="Layer 1" xmlns="http://www.w3.org/2000/svg" viewBox="0 0 701.33 117.88"><defs><style>.cls-1{font-size:108.79px;fill:#fff;font-family: "Eras ITC", "Eras Bold ITC", sans-serif;font-weight:700;}.cls-2{letter-spacing:0.2em;}.cls-3{letter-spacing:0em;}.cls-4{letter-spacing:-0.04em;}.cls-5{letter-spacing:-0.07em;}.cls-6{fill:#4d4d4d;}.cls-7{fill:#fefefe;}.cls-8{fill:#69c;}.cls-9{fill:#0071bc;}.cls-10{fill:#e6e6e6;}</style></defs><text class="cls-1" transform="translate(0 90.68)">P<tspan class="cls-2" x="69.43" y="0">H</tspan><tspan class="cls-3" x="180.22" y="0" xml:space="preserve">  </tspan><tspan class="cls-4" x="234.62" y="0"> </tspan><tspan class="cls-5" x="257.68" y="0"> </tspan><tspan class="cls-3" x="277.48" y="0">TO-NET</tspan></text><path class="cls-6" d="M277.36,333H230.21c-4.58,0-8-3.11-8-7.43q0-23.46,0-46.91c0-4.32,3.39-7.4,8-7.4,3.57,0,3.57,0,3.73-3.34,0-.92.61-1.34,1.55-1.34h15.92c1.52,0,1.83,1,1.64,2.05-.39,2.22.42,2.8,2.8,2.69,4.74-.22,4.75-.06,5.47-4.54.23-1.48.49-3,.77-4.44a5,5,0,0,1,4.95-4.24c6.85-.12,13.7-.14,20.55,0,3.1.06,4.55,1.89,5.26,5.8.42,2.27.84,4.53,1.21,6.8.07.45.22.57.69.57,2.16,0,4.33,0,6.5,0,.54,0,.65-.16.64-.63,0-4.55-.31-4.05,4.36-4.06s9.47,0,14.2,0c1.55,0,2.31.54,2,2-.39,2.15.27,2.87,2.77,2.79a7.21,7.21,0,0,1,7.17,7.38q0,23.43,0,46.85c0,4.32-3.38,7.43-8,7.43Zm-20.11-10.1c-10.36,0-20.71,0-31.07-.1-2.12,0-2.69.39-2.58,2.42.21,4,2.69,6.48,7,6.48h88.66c.37,0,.74,0,1.12,0l3.51,0c6,.09,7.68-3.85,7.18-8.52,0-.37-.31-.3-.54-.3l-7.32,0H299.11c-1.64.17-3.43-.61-4.91.43a29.34,29.34,0,0,1-32.66.6A6.21,6.21,0,0,0,257.25,322.9Zm63.08-50.39c-.25,0-.5,0-.75,0H230a6.18,6.18,0,0,0-6.18,4.84c-.71,3.64-.44,4,3.31,4h2l29.51,0c1.18.2,2-.35,3.14-1.34a23.25,23.25,0,0,1,30.22-.57,7.35,7.35,0,0,0,5.81,1.91h25.39l7.32,0c.18,0,.51-.15.51-.23.06-2.38.31-4.8-1.71-6.75C326.7,271.82,323.43,272.6,320.33,272.51Zm-43,54.73c14.66,0,26.65-11.17,26.67-24.85,0-14.08-11.77-25.36-26.49-25.37s-26.78,11.15-26.78,25S262.58,327.23,277.33,327.24Zm40.53-34.09c2.36,0,4.73,0,7.09,0,.54,0,.75-.12.74-.67q0-3.06,0-6.12c0-.51-.2-.63-.7-.63-4.7,0-9.4,0-14.11,0-.6,0-.76.2-.75.74,0,2,0,3.94,0,5.91,0,.64.24.78.86.77C313.28,293.13,315.57,293.15,317.86,293.15Zm-40.5-29.24c-2.24,0-4.48,0-6.72,0-1.19,0-2,.5-2,1.68s.83,1.69,2,1.69q6.72,0,13.44,0c1.19,0,2-.51,2-1.69s-.83-1.68-2-1.68C281.84,263.9,279.6,263.91,277.36,263.91Z" transform="translate(-59.24 -241.06)"/><path class="cls-7" d="M258.6,281.27l-29.51,0h-2c-4.06,0-4-.42-3.11-5a5,5,0,0,1,4.92-3.84h90.88l.88.34a13.16,13.16,0,0,1,1.37,1.32c1.77,2.17.88,4.74,1.14,7.14H297.77a1.83,1.83,0,0,0-.21-.26c-8.73-7.19-22-8.8-32.52-3.89A20.81,20.81,0,0,0,258.6,281.27Z" transform="translate(-59.24 -241.06)"/><path class="cls-7" d="M320.33,331.66c-.38,0-.75,0-1.12,0H230.55c-4.26,0-6.74-2.48-7-6.48-.11-2,.46-2.45,2.58-2.42,10.36.14,20.71.08,31.07.1a4.37,4.37,0,0,0,.61.74c9.54,7.69,20.19,9.47,31.9,5.2a24.16,24.16,0,0,0,9.35-5.94h24.05C323.05,326.05,323.83,329.47,320.33,331.66Z" transform="translate(-59.24 -241.06)"/><path class="cls-7" d="M317.86,293.15c-2.29,0-4.58,0-6.87,0-.62,0-.88-.13-.86-.77,0-2,0-3.94,0-5.91,0-.54.15-.74.75-.74,4.71,0,9.41,0,14.11,0,.5,0,.7.12.7.63q0,3.06,0,6.12c0,.55-.2.67-.74.67C322.59,293.14,320.22,293.15,317.86,293.15Z" transform="translate(-59.24 -241.06)"/><path class="cls-7" d="M277.36,263.91c2.24,0,4.48,0,6.73,0,1.19,0,2,.51,2,1.68s-.84,1.69-2,1.69q-6.72,0-13.44,0c-1.19,0-2-.52-2-1.69s.83-1.68,2-1.68C272.88,263.9,275.12,263.91,277.36,263.91Z" transform="translate(-59.24 -241.06)"/><path class="cls-8" d="M277.33,327.24c-14.75,0-26.61-11.23-26.6-25.2s11.93-25,26.78-25S304,288.31,304,302.39C304,316.07,292,327.24,277.33,327.24Zm.06-5.95c11.16,0,20.29-8.62,20.3-19.14S288.56,283,277.37,283,257,291.59,257,302.14,266.19,321.3,277.39,321.29Z" transform="translate(-59.24 -241.06)"/><path class="cls-9" d="M299.11,322.9a24.16,24.16,0,0,1-9.35,5.94c-11.71,4.27-22.36,2.49-31.9-5.2a4.37,4.37,0,0,1-.61-.74,6.21,6.21,0,0,1,4.29,1,29.34,29.34,0,0,0,32.66-.6C295.68,322.29,297.47,323.07,299.11,322.9Z" transform="translate(-59.24 -241.06)"/><path class="cls-9" d="M323.16,281.36c-.26-2.4.63-5-1.14-7.14a21.63,21.63,0,0,0-1.69-1.62c3.1.09,6.37-.69,8.95,1.8,2,2,1.77,4.37,1.71,6.75,0,.08-.33.23-.51.23Z" transform="translate(-59.24 -241.06)"/><path class="cls-9" d="M320.33,331.66c3.5-2.19,2.72-5.61,2.83-8.77l7.32,0c.23,0,.5-.07.54.3.5,4.67-1.23,8.61-7.18,8.52Z" transform="translate(-59.24 -241.06)"/><path class="cls-9" d="M258.6,281.36a21,21,0,0,1,6.44-4.15c10.49-4.91,23.79-3.3,32.52,3.89a1.83,1.83,0,0,1,.21.26,7,7,0,0,1-4.77-1.15,29.19,29.19,0,0,0-32.21.58A2.83,2.83,0,0,1,258.6,281.36Z" transform="translate(-59.24 -241.06)"/><path class="cls-10" d="M277.39,321.29c-11.2,0-20.35-8.6-20.36-19.15S266.17,283,277.37,283s20.33,8.63,20.32,19.18S288.55,321.28,277.39,321.29Zm15-18.47a14.6,14.6,0,0,0-11.08-14.37,1.77,1.77,0,0,0-2.3,1.15,1.65,1.65,0,0,0,1.29,2.25c6.28,1.92,9.39,7.08,7.92,13.14a1.63,1.63,0,0,0,1.3,2.18,1.72,1.72,0,0,0,2.31-1.31C292.15,304.63,292.32,303.38,292.42,302.82Zm-3.79,7.84a1.73,1.73,0,0,0-1.88-1.61c-1.2,0-3.43,2-3.36,3a1.71,1.71,0,0,0,1.84,1.73C286.48,313.87,288.63,311.94,288.63,310.66Z" transform="translate(-59.24 -241.06)"/><path class="cls-7" d="M292.42,302.82c-.1.56-.27,1.81-.56,3a1.72,1.72,0,0,1-2.31,1.31,1.63,1.63,0,0,1-1.3-2.18c1.47-6.06-1.64-11.22-7.92-13.14A1.65,1.65,0,0,1,279,289.6a1.77,1.77,0,0,1,2.3-1.15A14.6,14.6,0,0,1,292.42,302.82Z" transform="translate(-59.24 -241.06)"/><path class="cls-7" d="M288.63,310.66c0,1.28-2.15,3.21-3.4,3.16a1.71,1.71,0,0,1-1.84-1.73c-.07-1.06,2.16-3.07,3.36-3A1.73,1.73,0,0,1,288.63,310.66Z" transform="translate(-59.24 -241.06)"/></svg>
