<svg id="_ëîé_1" data-name="‘ëîé_1" xmlns="http://www.w3.org/2000/svg" viewBox="0 0 2755.33 1829.45"><defs><style>.cls-1{fill:#bed5dc;}.cls-2{fill:#deebe9;}.cls-3{fill:#f5f9f8;}.cls-4{fill:#a0c0d0;}.cls-5{fill:#2f1a31;}.cls-6{fill:#6f4975;}.cls-7{fill:#e28569;}.cls-8{fill:#f7b686;}.cls-9{fill:#74a1bd;}.cls-10{fill:#4e3054;}.cls-11{fill:#81b3cc;}.cls-12{fill:#efab7d;}.cls-13{fill:#56335b;}.cls-14{fill:#060633;}.cls-15{fill:#fff;}.cls-16{fill:#e08b65;}.cls-17{fill:#79a39b;}.cls-18{opacity:0.3;}.cls-19{fill:#020202;}.cls-20{fill:#436e8e;}.cls-21{fill:#db996b;}.cls-22{fill:#efa878;}</style></defs><path class="cls-1" d="M2539.74,1892.65c-229.37,29-465.68,16.93-948.53-13.44-271.13-17-816.27,11.2-1088.38,13.44-198.38,1.63-359.21-148.07-359.21-330.73V422.79c0-182.66,161.17-341.48,359.21-330.74,183.92,10,454.44,49.48,736.43,25.29,335.39-28.76,972-53.21,1300.48-25.29C2737.29,108.84,2899,240.13,2899,422.79V1561.92C2899,1744.58,2736.28,1867.78,2539.74,1892.65Z" transform="translate(-143.62 -79.75)"/><rect class="cls-2" x="541.63" y="200.21" width="1550.33" height="1304.99"/><path class="cls-3" d="M952.5,339.38s428.82,166.64,976.22,6.94l161.77-7.67s114.8,604.45,138.29,787.47,6.47,516,6.47,516L685.25,1585V799.62s62.5-387.64,98.19-453.3S952.5,339.38,952.5,339.38Z" transform="translate(-143.62 -79.75)"/><ellipse class="cls-4" cx="1353.03" cy="1550.25" rx="1177.5" ry="126.8"/><path class="cls-5" d="M2097.55,705.46s6.6-24.87,19.38-26,28.2-1.53,28.2-1.53L2163.56,688v17.42Z" transform="translate(-143.62 -79.75)"/><path class="cls-5" d="M2004.12,703.13l49.17,10.23c3.89.81,6.69,3.55,6.94,6.78l3.27,43c.29,3.9-3.82,2.41-8.61,2.95l-53.58,11c-5.66.63-10.67-3-10.53-7.58l1.77-59.25C1992.69,705.37,1998.35,701.93,2004.12,703.13Z" transform="translate(-143.62 -79.75)"/><path class="cls-5" d="M2088.25,783.84h44.69a11.84,11.84,0,0,1,11.57,14.35l-3.3,15.27a11.83,11.83,0,0,1-11.57,9.33h-35.26a11.84,11.84,0,0,1-11-7.43l-6.13-15.27A11.84,11.84,0,0,1,2088.25,783.84Z" transform="translate(-143.62 -79.75)"/><polygon class="cls-5" points="1989.34 645.55 2012.96 644 1990.97 602.41 1977.51 608.25 1989.34 645.55"/><path class="cls-6" d="M2052.64,707.21l74.77-4.73-3.69,85.3-65.19-7c-8-.86-14.14-9.51-14.14-19.9V718.44C2044.39,712.44,2048,707.5,2052.64,707.21Z" transform="translate(-143.62 -79.75)"/><path class="cls-5" d="M2041.49,1606.41c1.39,0,2.6-2,2.79-4.77L2098.91,817c.21-3-.87-5.8-2.42-6.21s-3,1.7-3.17,4.72l-54.63,784.65c-.21,3,.87,5.8,2.41,6.21A1.31,1.31,0,0,0,2041.49,1606.41Z" transform="translate(-143.62 -79.75)"/><path class="cls-5" d="M2185.45,1606.41a1.2,1.2,0,0,0,.38-.05c1.55-.41,2.63-3.19,2.42-6.21L2133.62,815.5c-.21-3-1.63-5.12-3.17-4.72S2127.82,814,2128,817l54.63,784.65C2182.85,1604.41,2184.06,1606.41,2185.45,1606.41Z" transform="translate(-143.62 -79.75)"/><path class="cls-5" d="M2113.44,1606.41c1.56,0,2.82-2.47,2.82-5.51V816.25c0-3-1.26-5.52-2.82-5.52s-2.82,2.47-2.82,5.52V1600.9C2110.62,1603.94,2111.88,1606.41,2113.44,1606.41Z" transform="translate(-143.62 -79.75)"/><path class="cls-5" d="M2127.41,702.48h59.24c4.91,0,9,2.72,9.6,6.33L2207,776.37c.65,4.06-3.41,7.7-8.92,8l-73.26,3.81c-5.73.3-10.54-3.14-10.34-7.38l3.25-71.37C2117.92,705.55,2122.2,702.48,2127.41,702.48Z" transform="translate(-143.62 -79.75)"/><path class="cls-6" d="M2140.55,698.59l14-1.54a9,9,0,0,0,9-9h0a9,9,0,0,0-9-9l-15.69-1c-5,0-7.84,3.81-7.1,10C2132.72,696.05,2135.6,698.59,2140.55,698.59Z" transform="translate(-143.62 -79.75)"/><path class="cls-5" d="M2142.61,696.1l10.47-1.15a6.74,6.74,0,0,0,6.74-6.71h0a6.73,6.73,0,0,0-6.74-6.7l-11.74-.78c-3.71,0-5.86,2.83-5.32,7.41C2136.75,694.2,2138.9,696.1,2142.61,696.1Z" transform="translate(-143.62 -79.75)"/><path class="cls-6" d="M2187.66,721.54l-49.92-1.95a5.45,5.45,0,0,0-5.65,5.16l-.93,17.81a5.45,5.45,0,0,0,6,5.7l48.38-5a5.46,5.46,0,0,0,4.87-5.74l-.82-14A2,2,0,0,0,2187.66,721.54Z" transform="translate(-143.62 -79.75)"/><path class="cls-7" d="M2132.63,710.21a3,3,0,1,1,3,3A3,3,0,0,1,2132.63,710.21Z" transform="translate(-143.62 -79.75)"/><path class="cls-5" d="M2110.63,1389.17a2,2,0,0,1-.69-.12l-56.2-19.1a2.14,2.14,0,1,1,1.37-4l55.51,18.87,59.89-21.25a2.2,2.2,0,0,1,2.74,1.31,2.15,2.15,0,0,1-1.3,2.74l-60.6,21.48A2.18,2.18,0,0,1,2110.63,1389.17Z" transform="translate(-143.62 -79.75)"/><path class="cls-5" d="M2112,1115.24a1.76,1.76,0,0,1-.8-.2l-35.88-19.11a1.69,1.69,0,0,1-.7-2.3,1.72,1.72,0,0,1,2.32-.71l35.05,18.66,37.85-21a1.71,1.71,0,0,1,1.66,3L2112.87,1115A1.61,1.61,0,0,1,2112,1115.24Z" transform="translate(-143.62 -79.75)"/><rect class="cls-8" x="2069.59" y="733.92" width="13.59" height="40.46" rx="5.25" transform="translate(-215.98 161.57) rotate(-6.54)"/><rect class="cls-8" x="2082.01" y="728.4" width="13.59" height="42.17" rx="5.15" transform="translate(-215.37 162.96) rotate(-6.54)"/><path class="cls-8" d="M2099.12,798.6l-1.7-1.06a6.8,6.8,0,0,1-2.16-9.34l19.24-30.83c2-3.16,8.32-6.84,11.47-4.85,5.21,3.29,3.71,9.93,1.74,13.09l-19.25,30.83A6.8,6.8,0,0,1,2099.12,798.6Z" transform="translate(-143.62 -79.75)"/><path class="cls-8" d="M2105.58,769.8l-1.2.14a6.43,6.43,0,0,1-7.1-5.64l-5.14-44.83c-.4-3.5,0-11.31,6.25-11.44,4.6-.09,6.18,8.46,6.91,13.85,1.46,10.8,5.92,40.83,5.92,40.83A6.43,6.43,0,0,1,2105.58,769.8Z" transform="translate(-143.62 -79.75)"/><path class="cls-8" d="M2071.26,801.19s-18.36-32-12.48-54c2-7.62,40.53-12,45.28-4.54s8,43.69,8,43.69Z" transform="translate(-143.62 -79.75)"/><path class="cls-8" d="M2067.78,774.18l-3.17.36c-2.83.33-2.45,5.77-3.4,3.08-6.54-18.46-5.26-33.1-5.26-33.1-.32-2.83,2.25-6.9,5.09-7.22l2.68.11c2.83-.33,5.38,2.74,5.7,5.57l2.92,25.46A5.21,5.21,0,0,1,2067.78,774.18Z" transform="translate(-143.62 -79.75)"/><path class="cls-5" d="M2281,1597.06s1,18.83-11.42,23.8-49.07,8.78-34.31,21.26c8.47,7.17,45.57,3.69,56.14,4s20.84,5.14,28.16-1.7c8-7.53-3.52-46.39-3.52-46.39s-8.76,4.49-17,4.06C2287.21,1601.44,2281,1597.06,2281,1597.06Z" transform="translate(-143.62 -79.75)"/><path class="cls-7" d="M2139.63,1122.33c6.49,39.1,16.36,89.84,31.36,151.9,28.59,118.31,60.8,237.62,76.5,294.83,5.62,20.46,23.91,35.81,44.32,37.17l11,.73c22.07,1.47,38.49-16.89,35.18-39.33l-56.83-385.7-7.94-61.35S2129,1058.18,2139.63,1122.33Z" transform="translate(-143.62 -79.75)"/><path class="cls-5" d="M2433.5,1600.32s2.35,18.83-9.67,23.8-48.42,8.77-32.73,21.26c9,7.17,45.84,3.68,56.43,4s21.22,5.14,28-1.7c7.5-7.53-6.94-46.39-6.94-46.39s-8.43,4.49-16.68,4.06C2440.05,1604.69,2433.5,1600.32,2433.5,1600.32Z" transform="translate(-143.62 -79.75)"/><path class="cls-7" d="M2237.8,1028.63s10.17,85,61.88,248.86c37.32,118.31,78.34,237.62,98.26,294.83,7.13,20.46,26.56,35.81,47.06,37.17l11,.73c22.18,1.47,37.24-16.89,32.28-39.34L2403,1185.19,2377.2,1058.3Z" transform="translate(-143.62 -79.75)"/><path class="cls-5" d="M2291.17,1252.84c-.08-.18-7.78-19.26-.7-44.48s22.26-33.44,22.9-33.76l.76,1.45c-.15.09-15.19,8.18-22.08,32.75s.57,43.22.65,43.42Z" transform="translate(-143.62 -79.75)"/><path class="cls-8" d="M2269.88,764.79,2252,749.32l-5.64-5.32-33.15-31.23,18.54,38.73,11.12,23.25,3.52,7.36c2.4,5-.29,7.74-2,14.07-.67,2.56-5.32,18.4,8.79,17,17.57-1.79,43.06-18.83,47.11-35.91C2300.2,777.25,2287.58,778.85,2269.88,764.79Z" transform="translate(-143.62 -79.75)"/><ellipse class="cls-8" cx="2232.43" cy="712.45" rx="46.3" ry="41.57" transform="translate(1252.01 2821.55) rotate(-86.78)"/><path class="cls-5" d="M2206.67,700.3c-23.38,4.61-36.83-6-39-17.54-2.78-14.76,5.2-29.52,17.91-25.91s5.42-9.09,16.54-12.36c20.78-6.1,27,7.14,44.51,5,23-2.8,54.94,28.09,40,56.81C2286.59,706.31,2225.12,696.66,2206.67,700.3Z" transform="translate(-143.62 -79.75)"/><path class="cls-5" d="M2183.28,688.74s28.77,18.19,27.52,31.24.39,17.82,16.16,22.13,4.59,17.24,24.27,14.87,40.13-27.49,34.38-62.42a51.05,51.05,0,0,0-17.47-30.26Z" transform="translate(-143.62 -79.75)"/><path class="cls-8" d="M2198,721.48c2.23-4.18,7.28-6.14,11.28-4.38s5.41,6.56,3.18,10.74-7.29,6.13-11.28,4.37S2195.79,725.65,2198,721.48Z" transform="translate(-143.62 -79.75)"/><path class="cls-5" d="M2297.5,714.43a.57.57,0,0,1-.54-.37c-1.91-4.51-7.24-6.42-7.3-6.43a.59.59,0,0,1-.36-.76.67.67,0,0,1,.75-.37c.24.09,5.88,2.1,8,7.12a.59.59,0,0,1-.31.77A.62.62,0,0,1,2297.5,714.43Z" transform="translate(-143.62 -79.75)"/><path class="cls-5" d="M2289.41,705a.59.59,0,0,1-.57-.46.6.6,0,0,1,.45-.71c.06,0,6.36-1.46,6.52-6.12a.59.59,0,0,1,.59-.57h0a.58.58,0,0,1,.57.6c-.2,5.59-7.16,7.17-7.45,7.25Z" transform="translate(-143.62 -79.75)"/><path class="cls-5" d="M2247,643.47a4.82,4.82,0,0,1-1.28-.18,17.17,17.17,0,0,1-4.87-2.41c-2.65-1.71-5-3.19-9.94-1.7a.64.64,0,0,1-.74-.38.59.59,0,0,1,.4-.74c5.49-1.67,8.27.1,10.92,1.82a15.94,15.94,0,0,0,4.54,2.26,2.91,2.91,0,0,0,2.58-.37c2.6-1.76,3.22-7.41,3.22-7.47a.56.56,0,0,1,.65-.53.6.6,0,0,1,.54.65c0,.25-.69,6.25-3.74,8.32A3.89,3.89,0,0,1,2247,643.47Z" transform="translate(-143.62 -79.75)"/><path class="cls-5" d="M2205.25,733.15a3.8,3.8,0,0,1-.51,0,.29.29,0,0,1-.24-.32.3.3,0,0,1,.32-.24s.23,0,.54,0c1.45,0,5.47-.56,7.55-6.52a.26.26,0,0,1,.36-.18.27.27,0,0,1,.17.36C2211.23,732.59,2206.77,733.15,2205.25,733.15Z" transform="translate(-143.62 -79.75)"/><path class="cls-5" d="M2138.53,1122.33s172.75-9.44,254.73,10.32l1.22-23.37-114.95-34-92.81,2.28-28.51,6.08-20.12,31.07Z" transform="translate(-143.62 -79.75)"/><path class="cls-9" d="M2377.92,837.67s-15.2-65.38-108.21-65.38c-162.09,0-116.62,132.21-131.62,342.39,0,0,104.5-22.65,255.71,7.49,0,0,14.72-113.83-4.29-210.05C2384.48,886.71,2385.39,859.76,2377.92,837.67Z" transform="translate(-143.62 -79.75)"/><path class="cls-9" d="M2254.14,772.73s-55.09.31-93.76,36.81-88.45,86.76-99,115.68c-13,35.61,10.94,71.34,41.35,72.1S2160.38,976,2160.38,976Z" transform="translate(-143.62 -79.75)"/><path class="cls-9" d="M2440.26,941C2455.4,815.61,2310,777.13,2310,777.13s-14.94,210.08,7,202.67C2354.5,967.14,2426.21,1011.33,2440.26,941Z" transform="translate(-143.62 -79.75)"/><path class="cls-5" d="M2398.61,1070.9l-1.13-.06c4.51-82.45-10.09-166.84-10.24-167.68l1.13-.21C2388.51,903.79,2403.13,988.31,2398.61,1070.9Z" transform="translate(-143.62 -79.75)"/><path class="cls-5" d="M2142.36,987.89l-.58-1c30.55-18,70.31-65.49,70.71-66l.87.74C2213,922.14,2173.08,969.77,2142.36,987.89Z" transform="translate(-143.62 -79.75)"/><path class="cls-9" d="M2128.59,872.66s4-84.9-20.83-94.3c-22.05-8.33-50.56,4.11-50,30.22.68,32.71-19.38,123.87,11.81,171.22Z" transform="translate(-143.62 -79.75)"/><path class="cls-5" d="M2090.84,909.35l-.83-.77a30.24,30.24,0,0,0,1.75-5c3.76-12.32,12.58-41.2,37.38-64.91l.78.82c-24.58,23.52-33.34,52.19-37.07,64.43C2091.77,907.4,2091.31,908.85,2090.84,909.35Z" transform="translate(-143.62 -79.75)"/><path class="cls-6" d="M681,1047.09l86.29,180.46c3.34,7-1.57,15.15-9.09,15.15H538.07a19.26,19.26,0,0,1-18-13l-54.84-154.1a10.83,10.83,0,0,1,8.47-14.46l173.77-24.93C664.25,1033.8,677.39,1039.49,681,1047.09Z" transform="translate(-143.62 -79.75)"/><path class="cls-10" d="M667.11,1047.09l86.3,180.46c3.33,7-1.57,15.15-9.1,15.15H524.16a19.26,19.26,0,0,1-18-13l-54.84-154.1a10.82,10.82,0,0,1,8.47-14.46l187.68-24.93A19.07,19.07,0,0,1,667.11,1047.09Z" transform="translate(-143.62 -79.75)"/><path class="cls-5" d="M618,1092.66l39.7,80.24a4.67,4.67,0,0,1-4.19,6.73H552.24a8.84,8.84,0,0,1-8.3-5.78l-25.23-68.52a4.81,4.81,0,0,1,3.9-6.43L609,1087.81A8.84,8.84,0,0,1,618,1092.66Z" transform="translate(-143.62 -79.75)"/><path class="cls-10" d="M567.54,1639.09a5.92,5.92,0,0,1-3.16-.91,6,6,0,0,1-2-8.31c.37-.62,37.67-61.29,52.83-92.27a6.05,6.05,0,1,1,10.87,5.33c-15.42,31.49-51.85,90.77-53.4,93.27A6,6,0,0,1,567.54,1639.09Z" transform="translate(-143.62 -79.75)"/><path class="cls-10" d="M609.74,1645.13a6.51,6.51,0,0,1-1.22-.11,6.06,6.06,0,0,1-4.71-7.15L624,1539.05a6,6,0,0,1,11.36-1.45c15.17,31,52.46,91.65,52.84,92.27a6,6,0,0,1-10.31,6.33c-1.32-2.13-28.06-45.64-45.45-77.94l-16.74,82A6,6,0,0,1,609.74,1645.13Z" transform="translate(-143.62 -79.75)"/><path class="cls-5" d="M625.7,1543.55a8.36,8.36,0,0,1-8.32-7.65c-9.22-109.15-33.63-394.9-35.63-406.06a8,8,0,0,1,5.59-10.11,8.64,8.64,0,0,1,10.54,5.84c1.86,6,23.44,258.75,36.15,408.91a8.37,8.37,0,0,1-7.62,9C626.17,1543.53,625.94,1543.55,625.7,1543.55Z" transform="translate(-143.62 -79.75)"/><path class="cls-10" d="M616.39,1354.17h.15a14.32,14.32,0,0,1,14.32,14.32v92.4a14.32,14.32,0,0,1-14.32,14.32h-.15a14.32,14.32,0,0,1-14.32-14.32v-92.4a14.31,14.31,0,0,1,14.31-14.31Z" transform="translate(1199.89 2696.1) rotate(175.44)"/><circle class="cls-10" cx="625.28" cy="1535.19" r="11.42" transform="translate(-380.64 39.73) rotate(-9.18)"/><path class="cls-6" d="M1772.37,1254.12l-74.48,155.76c-2.88,6,1.35,13.08,7.84,13.08h190a16.63,16.63,0,0,0,15.57-11.23l47.33-133a9.34,9.34,0,0,0-7.31-12.47l-150-21.52C1786.85,1242.64,1775.51,1247.55,1772.37,1254.12Z" transform="translate(-143.62 -79.75)"/><path class="cls-10" d="M1784.38,1254.12l-74.49,155.76c-2.88,6,1.36,13.08,7.85,13.08h190a16.61,16.61,0,0,0,15.56-11.23l47.34-133a9.34,9.34,0,0,0-7.31-12.47l-162-21.52A16.45,16.45,0,0,0,1784.38,1254.12Z" transform="translate(-143.62 -79.75)"/><path class="cls-5" d="M1826.78,1293.45l-34.27,69.26a4,4,0,0,0,3.61,5.82h87.42a7.63,7.63,0,0,0,7.16-5l21.78-59.15a4.14,4.14,0,0,0-3.36-5.54l-74.53-9.57A7.61,7.61,0,0,0,1826.78,1293.45Z" transform="translate(-143.62 -79.75)"/><path class="cls-10" d="M1874.08,1622.07a5.21,5.21,0,0,1-4.45-2.49c-1.33-2.16-32.79-53.33-46.09-80.53a5.22,5.22,0,0,1,9.39-4.58c13.07,26.73,45.27,79.11,45.6,79.64a5.22,5.22,0,0,1-1.72,7.19A5.3,5.3,0,0,1,1874.08,1622.07Z" transform="translate(-143.62 -79.75)"/><path class="cls-10" d="M1837.66,1627.3a5.21,5.21,0,0,1-5.11-4.17l-14.46-70.83c-15,27.87-38.1,65.43-39.23,67.28a5.22,5.22,0,1,1-8.9-5.47c.32-.53,32.52-52.91,45.6-79.64a5.22,5.22,0,0,1,9.81,1.24l17.41,85.32a5.22,5.22,0,0,1-4.07,6.17A5.33,5.33,0,0,1,1837.66,1627.3Z" transform="translate(-143.62 -79.75)"/><path class="cls-5" d="M1824.25,1539.6l-.53,0a7.2,7.2,0,0,1-6.66-7.72c5-68.33,13.68-183.74,15.3-188.9a7.21,7.21,0,0,1,13.87,3.92c-1.39,7.7-9.59,115.29-14.8,186.05A7.21,7.21,0,0,1,1824.25,1539.6Z" transform="translate(-143.62 -79.75)"/><rect class="cls-10" x="1814.15" y="1444.42" width="24.85" height="66.24" rx="9.85" transform="translate(-19.97 -220.71) rotate(4.57)"/><circle class="cls-10" cx="1824.24" cy="1532.38" r="9.86" transform="translate(-692.87 1659.01) rotate(-45)"/><rect class="cls-9" x="489.09" y="156.83" width="1643.32" height="61.49" rx="13.66"/><path class="cls-11" d="M1180.94,890.67l-13.89-85.48s39,5.35,108.38,53.65c50,34.83,66.14-60,74-56.69,8.53,3.53,39,66.33,39,66.33C1383.61,880.27,1325.34,1021.31,1180.94,890.67Z" transform="translate(-143.62 -79.75)"/><path class="cls-12" d="M1142.13,914.22h0a7.37,7.37,0,0,1-9.58,4l-31.06-13.13c-3.7-1.54-16.6-10.32-15-14.05h0c1.57-3.74,14.86-1.2,18.74-.18,9,2.36,27.66,3.36,36.56,5.9C1145.62,897.85,1143.7,910.49,1142.13,914.22Z" transform="translate(-143.62 -79.75)"/><path class="cls-12" d="M1154.4,936.85s-12.34,11.76-34.34,22.47c-6.69,3.25-30.23-39.85-24-45.44s33.15-10.62,33.15-10.62Z" transform="translate(-143.62 -79.75)"/><path class="cls-12" d="M1121.76,913s1.37-14.66-13.79-11.36c-24.63,5.35-72.62,38.29-11.29,20.57,1.21-.35-36.19,13.13-30.11,19.8s38.72-6.79,38.72-6.79-34.35,15.37-26.57,19.79,31.45-3,31.45-3-30,10.19-21.69,16.4c5.69,4.23,28.81-7.83,37-11.64,7.78-3.6,8-9.79,4.12-17.06,0,0,.3-9.56-3.46-13.64-1.44-1.57-.51-4.22-1-5.65A53.17,53.17,0,0,0,1121.76,913Z" transform="translate(-143.62 -79.75)"/><path class="cls-12" d="M1127.81,883.34S1253.19,875,1327,783.29l37.27,63.24S1317.2,911,1151.51,940Z" transform="translate(-143.62 -79.75)"/><path class="cls-5" d="M1404.72,1496.35s-.91,17.36-12.92,21.94-46.57,8.09-34,19.6c7.21,6.6,42.11,3.39,51.93,3.65s18.93,4.75,26.4-1.56c8.23-6.94,1.17-42.76,1.17-42.76s-8.6,4.14-16.21,3.74C1410.1,1500.39,1404.72,1496.35,1404.72,1496.35Z" transform="translate(-143.62 -79.75)"/><path class="cls-6" d="M1309.7,973.22s-4.5,78.32,16.69,229.37c15.29,109.05,33.86,219,43,271.75a41.21,41.21,0,0,0,37.73,34.26l10.14.67c20.42,1.36,37.48-15.57,36.55-36.26l-16-355.49-3.13-116.95Z" transform="translate(-143.62 -79.75)"/><path class="cls-5" d="M1517.25,1499.35s-.91,17.36-12.93,22-46.56,8.08-34,19.59c7.21,6.61,42.11,3.39,51.93,3.66s18.92,4.74,26.4-1.57c8.22-6.94,1.16-42.76,1.16-42.76s-8.59,4.14-16.21,3.75C1522.63,1503.39,1517.25,1499.35,1517.25,1499.35Z" transform="translate(-143.62 -79.75)"/><path class="cls-6" d="M1422.23,976.22s-4.51,78.32,16.68,229.38c15.3,109,33.87,219,43,271.74a41.2,41.2,0,0,0,37.72,34.26l10.15.67c20.42,1.36,37.48-15.57,36.55-36.25l-16-355.5-3.14-116.95Z" transform="translate(-143.62 -79.75)"/><path class="cls-5" d="M1558,1065.81c-.5,9.45-58.42,11.67-129.86,7.55s-128.31-15.42-127.81-24.87,58.19-13.47,129.63-9.35S1558.47,1056.36,1558,1065.81Z" transform="translate(-143.62 -79.75)"/><path class="cls-7" d="M1547.76,797.6s-11.29-49.91-104.56-52.9c-134.51-4.32-125.39,118.29-142.9,303.79,0,0,133-15,257.8,15C1558.1,1063.49,1574.91,874.12,1547.76,797.6Z" transform="translate(-143.62 -79.75)"/><path class="cls-7" d="M1582.39,791.41l-61.84,31.72s-133.73,8.42-169,1.71-44.27-32.7-44.27-32.7,38.77-37.6,103.16-46.2c6-.82,12.32-1.37,18.81-1.61a185.68,185.68,0,0,1,32.39,1.5C1542.66,757.06,1582.39,791.41,1582.39,791.41Z" transform="translate(-143.62 -79.75)"/><path class="cls-8" d="M1456.33,733.69,1449.9,711l-1.87-6.6-11-38.8-2.63,38.24-1.57,22.95-.5,7.26c-.34,4.93-3.41,5.89-7.23,10.08-1.55,1.7-11.43,12-.67,17,13.41,6.29,39-2,49-13.52C1473.35,747.65,1458.41,741,1456.33,733.69Z" transform="translate(-143.62 -79.75)"/><path class="cls-6" d="M1311.35,1056.44s78.09-20.48,237.7,14.75l.61,22.87-235.43,2Z" transform="translate(-143.62 -79.75)"/><ellipse class="cls-5" cx="1556.76" cy="810.94" rx="32.39" ry="16.09" transform="translate(-331.01 928.83) rotate(-33.98)"/><path class="cls-8" d="M1592.45,1083.06c-3.94-61.23-14.43-148.91-42-218.86-6.39-16.2-9.07-22.3-14.15-31.19-4.09-7.16,4-22.43,16.3-29.48,11.54-6.63,29.18-5,31.89-1.52,4.6,6,9.37,17.26,16.78,35.21,25.76,62.36,40,142.41,43.9,245.23Z" transform="translate(-143.62 -79.75)"/><path class="cls-13" d="M1473.39,644.84a50.13,50.13,0,0,1,4.27,20.57c0,11.93-17.64-13.81-17.64-13.81Z" transform="translate(-143.62 -79.75)"/><ellipse class="cls-8" cx="1447.06" cy="679.61" rx="34.54" ry="41.3" transform="translate(-289.22 461.04) rotate(-20.18)"/><path class="cls-5" d="M1411.13,679.41l16-5a12.11,12.11,0,0,0,7.75-7.11c2.28-5.88,5.77-9.37,21.18-11.92,19.52-3.21,29.94-17.24,30-27.69,0-10.66-11.34-15.59-20.06-8.73s-7-6-16.64-5.33c-18,1.18-18.48,15.18-32.89,17.66-18.88,3.24-49.57,24.18-26.84,53.62Z" transform="translate(-143.62 -79.75)"/><path class="cls-14" d="M1448.49,677.56a.66.66,0,0,0,.21-.58.69.69,0,0,0-.77-.61,7.57,7.57,0,0,0-7,6.07.68.68,0,0,0,.49.84.77.77,0,0,0,.86-.49,11.93,11.93,0,0,1,5.8-5A.68.68,0,0,0,1448.49,677.56Z" transform="translate(-143.62 -79.75)"/><path class="cls-14" d="M1447.33,686.88c.75,1.47,2.24,2.23,3.33,1.69s1.34-2.18.59-3.66-2.25-2.23-3.33-1.69S1446.57,685.4,1447.33,686.88Z" transform="translate(-143.62 -79.75)"/><path class="cls-14" d="M1473.48,670.38a.51.51,0,0,0,.3-.42.83.83,0,0,0-.46-.86,4.93,4.93,0,0,0-6.83,2.21.81.81,0,0,0,.18,1,.52.52,0,0,0,.78,0,7.35,7.35,0,0,1,5.68-1.84A.47.47,0,0,0,1473.48,670.38Z" transform="translate(-143.62 -79.75)"/><path class="cls-14" d="M1468.66,678.61c.13,1.65,1.22,2.91,2.43,2.82s2.09-1.51,2-3.16-1.22-2.91-2.43-2.81S1468.53,677,1468.66,678.61Z" transform="translate(-143.62 -79.75)"/><path class="cls-13" d="M1389.63,684.89s16.35,21.88,32.77,20.39c0,0-16.81-15.79,8.23-32.58C1430.63,672.7,1404.69,673.9,1389.63,684.89Z" transform="translate(-143.62 -79.75)"/><path class="cls-8" d="M1415,693.63c3.89,1.47,8.11-.13,9.43-3.56s-.76-7.4-4.64-8.87-8.1.13-9.42,3.57S1411.16,692.17,1415,693.63Z" transform="translate(-143.62 -79.75)"/><path class="cls-13" d="M1430.63,672.7s2,20.73,7,23.72,32.88-1,44.72-8.5h0a27,27,0,0,1-16.52,31.18,40.2,40.2,0,0,1-13.17,2.63h0c-9.32.27-18.84-1.63-24.27-9.14-1.65-2.29-1.58-18.42-1.58-18.42s-.65-9.33-7-13C1419.83,681.2,1424.86,674.47,1430.63,672.7Z" transform="translate(-143.62 -79.75)"/><path class="cls-5" d="M1462.06,617.93a5.13,5.13,0,0,1-4.92-3.41l.9-.27c0,.13,1.18,3.55,5.61,2.54l.22.92A8.17,8.17,0,0,1,1462.06,617.93Z" transform="translate(-143.62 -79.75)"/><path class="cls-15" d="M1460.49,648.88l-.22-.41c.2-.11,19.55-10.34,18.22-21-.38-3-1.28-4.87-2.76-5.71-2.41-1.31-6,.28-9.08,1.7l-1.42.64-.19-.45c.46-.19.93-.4,1.42-.62,3.23-1.46,6.9-3.15,9.49-1.67,1.63.9,2.61,2.89,3,6C1480.32,638.38,1461.29,648.45,1460.49,648.88Z" transform="translate(-143.62 -79.75)"/><path class="cls-15" d="M1409.21,636.68l0-.47c20.67-1.39,28-14.55,28.11-14.69l.42.24C1437.63,621.89,1430.15,635.26,1409.21,636.68Z" transform="translate(-143.62 -79.75)"/><path class="cls-15" d="M1475.47,697.23a65.63,65.63,0,0,1-19.85,3.68s2.46,9.21,12.84,6.2C1474.5,705.36,1475.47,697.23,1475.47,697.23Z" transform="translate(-143.62 -79.75)"/><path class="cls-16" d="M1610.94,945.9c-4.45,0-8.6-4.68-9.47-10.94-.54-3.9.29-7.76,2.24-10.3a7.16,7.16,0,0,1,4.74-2.95c4.83-.68,9.41,4.25,10.33,10.89.54,3.9-.29,7.76-2.24,10.3a7.15,7.15,0,0,1-4.75,3A6,6,0,0,1,1610.94,945.9ZM1609.33,924a3.73,3.73,0,0,0-.57,0,4.93,4.93,0,0,0-3.23,2,11.91,11.91,0,0,0-1.79,8.61c.75,5.41,4.16,9.45,7.74,8.93a5,5,0,0,0,3.24-2,11.91,11.91,0,0,0,1.78-8.61C1615.79,927.81,1612.65,924,1609.33,924Z" transform="translate(-143.62 -79.75)"/><path class="cls-8" d="M1616.63,1068.15h0a7.71,7.71,0,0,1-1.11,10.89l-28.14,22.52c-3.33,2.69-18.15,10.4-20.87,7.1h0c-2.73-3.29,6.41-14.44,9.35-17.55,6.77-7.19,17.22-24.14,24.13-31.19C1603,1056.86,1613.9,1064.85,1616.63,1068.15Z" transform="translate(-143.62 -79.75)"/><path class="cls-8" d="M1644.17,1067.82s4.8,17.29,3.71,43.06c-.34,7.84-52.89,8.61-55,.07s6.84-36.12,6.84-36.12Z" transform="translate(-143.62 -79.75)"/><path class="cls-8" d="M1605.13,1086.54s-13.12-8.47-17.72,7.28c-7.47,25.59-.83,86.52,13.64,20.63.29-1.3-6,40.19,3.35,37.8s13.27-39.44,13.27-39.44-3,39.58,5.14,34.49,13.11-30.82,13.11-30.82-5.66,33,4.42,28.28c6.87-3.22,7.27-30.7,7.86-40.25.57-9-5.13-12.31-14-12.22,0,0-8.84-5-14.6-3.47-2.21.57-4.23-1.6-5.82-1.88A57.19,57.19,0,0,0,1605.13,1086.54Z" transform="translate(-143.62 -79.75)"/><path class="cls-5" d="M1330.55,819.77l-1.47-.44c4.31-14,18-31.17,18.1-31.33l1.19.94C1348.23,789.12,1334.77,806.09,1330.55,819.77Z" transform="translate(-143.62 -79.75)"/><path class="cls-5" d="M1442.35,1236.33c-.09-.65-8.75-64.72-15.26-87.68-6.44-22.71-36.34-42.48-36.65-42.69l.84-1.27c1.25.81,30.68,20.27,37.28,43.54,6.54,23.06,15.22,87.25,15.3,87.9Z" transform="translate(-143.62 -79.75)"/><path class="cls-5" d="M1128.71,1499.08s-1,17.07,10.66,22.82,46.32,12.81,32.3,22.74c-8.05,5.7-43.09-1.12-53.08-1.9s-19.73,2.64-26.61-4.32c-7.56-7.65,3.6-41.92,3.6-41.92s8.25,5,16,5.37C1122.8,1502.46,1128.71,1499.08,1128.71,1499.08Z" transform="translate(-143.62 -79.75)"/><path class="cls-5" d="M956.18,1433.36s-27.24,66.69-22.31,78.86S960,1553.08,943,1551c-9.74-1.19-31.39-30-38.33-37.28s-16.44-11.36-17-21.2c-.62-10.82,34.24-44.49,34.24-44.49s4.44-49,10-43.42C939.84,1412.62,956.18,1433.36,956.18,1433.36Z" transform="translate(-143.62 -79.75)"/><path class="cls-5" d="M1158.12,691.4s6.16-28.89-20.72-33.8-22.54,15.15-27.92,19.72,5.73,20.34,18.59,23.41S1158.12,691.4,1158.12,691.4Z" transform="translate(-143.62 -79.75)"/><path class="cls-17" d="M1230.72,1078.24c-3.63-54.24-117.88,5.88-117.88,5.88s-48.09,372.19-26.16,424.42c4.33,10.31,23,10.14,31.73,9.17,61.78-6.84,77.11-192.85,93.23-274.6C1219.73,1202.09,1232.92,1111.05,1230.72,1078.24Z" transform="translate(-143.62 -79.75)"/><path class="cls-5" d="M1010.68,1077.31c3.24,13.32,55,27.29,117,13.17S1238,1061.35,1234.76,1048s-56.87-19.91-118.85-5.79S1007.43,1064,1010.68,1077.31Z" transform="translate(-143.62 -79.75)"/><path class="cls-11" d="M1208.32,850.82c15.25-6.67,17.3-9.62,17.3-9.62s-19.11-41.8-87.73-38.11c-9.51.51-52.44,8-61.65,9.57-118.18,20.63-66,259.48-65.56,264.65,119.45-51.37,224.08-29.28,224.08-29.28C1235.63,957,1210.21,855.37,1208.32,850.82Z" transform="translate(-143.62 -79.75)"/><path class="cls-17" d="M1032,1080.08s104.14-32,190.29-26.85a7.68,7.68,0,0,1,7.35,7s1.7,30.5.93,40.63c-1.68,22.43-206,14.2-206,14.2Z" transform="translate(-143.62 -79.75)"/><path class="cls-8" d="M1088,810.54c10.47,11.6,22.22,15.33,37.55,15.33,23.2,0,12.39-22.78,12.39-22.78-5.7-.13-8.82-2.88-9.29-8.3l-.57-6.65-.28-3.3-.92-10.54-.81-9.47L1122.67,726,1112,765.54l-1.82,6.72-6.27,23.17a21.67,21.67,0,0,1-15.81,15.08Z" transform="translate(-143.62 -79.75)"/><path class="cls-5" d="M1110.15,772.26s6.85,11.46,17.6,12.58l-.92-10.54C1120.12,773,1110.15,772.26,1110.15,772.26Z" transform="translate(-143.62 -79.75)"/><path class="cls-5" d="M1076.11,726.42s2.59,6.07.89,19.55c-2.48,19.72,21.46,24.26,26.37,18,.61-.78-5.57-32.78-5.57-32.78l-7.91-3Z" transform="translate(-143.62 -79.75)"/><ellipse class="cls-8" cx="1125.5" cy="731.87" rx="38.24" ry="45.11" transform="translate(-265.8 156.46) rotate(-11.37)"/><path class="cls-5" d="M1134.92,695.49c-.83,1.52,8.86,23.54-34.75,35.59s-25.26-43.37,7.39-49.39c47.13-8.7,59,20.67,56.21,32.28S1134.92,695.49,1134.92,695.49Z" transform="translate(-143.62 -79.75)"/><path class="cls-5" d="M1103.89,723.06s-15.21,21-5.86,38.73c0,0-12.34-9.43-13.24-13.5s-.51-19.29-.51-19.29Z" transform="translate(-143.62 -79.75)"/><ellipse class="cls-8" cx="1098.43" cy="736.43" rx="8.39" ry="10.7" transform="translate(-268.68 1158.62) rotate(-56.15)"/><path class="cls-14" d="M1129.23,731.76a.82.82,0,0,0-.16-1.57,9.71,9.71,0,0,0-10.76,4,.83.83,0,0,0,.22,1.16,1,1,0,0,0,1.22-.21,15.37,15.37,0,0,1,8.93-3.35A.93.93,0,0,0,1129.23,731.76Z" transform="translate(-143.62 -79.75)"/><path class="cls-14" d="M1123.88,741.79c.26,2,1.68,3.42,3.17,3.24s2.51-1.91,2.26-3.88-1.68-3.42-3.17-3.24S1123.63,739.82,1123.88,741.79Z" transform="translate(-143.62 -79.75)"/><path class="cls-14" d="M1160.65,731.49a.92.92,0,0,0,.69-.35.81.81,0,0,0-.21-1.15,9.77,9.77,0,0,0-11.55-.2.82.82,0,0,0-.26,1.15,1,1,0,0,0,1.21.25,15.55,15.55,0,0,1,9.59.15A.86.86,0,0,0,1160.65,731.49Z" transform="translate(-143.62 -79.75)"/><path class="cls-14" d="M1151.7,738.82c-.55,1.91.18,3.77,1.64,4.15s3.08-.85,3.63-2.76-.18-3.77-1.63-4.16S1152.26,736.91,1151.7,738.82Z" transform="translate(-143.62 -79.75)"/><g class="cls-18"><ellipse class="cls-15" cx="1122.15" cy="738.4" rx="14.8" ry="20.79" transform="translate(-193.04 1.48) rotate(-4.06)"/></g><g class="cls-18"><ellipse class="cls-15" cx="1159.54" cy="738.33" rx="12.82" ry="20.53" transform="matrix(0.99, -0.16, 0.16, 0.99, -249.23, 120.94)"/></g><path class="cls-7" d="M1106.8,740.92c.1.57.2,1.14.34,1.68a24.35,24.35,0,0,0,7.45,13.25,15.12,15.12,0,0,0,4.71,2.8,12.64,12.64,0,0,0,4.92.77c.44,0,.88-.07,1.32-.13a13,13,0,0,0,4.27-1.49,18,18,0,0,0,7.74-9.38,27.85,27.85,0,0,0,1.87-11.87,20.58,20.58,0,0,0-.24-2.61c-1-7.62-5-14.37-10.48-17.44a14.38,14.38,0,0,0-2.11-1,12.32,12.32,0,0,0-10.51.84c-4.19,2.33-7.31,6.8-8.77,12.5-.21.82-.38,1.65-.52,2.51-.08.5-.15,1-.2,1.53a30,30,0,0,0,.21,8Zm25.94,12.7a13.56,13.56,0,0,1-3.66,3,10.79,10.79,0,0,1-3.66,1.3,11.25,11.25,0,0,1-5.6-.56,14,14,0,0,1-4.82-3c-3.52-3.24-6-8.27-6.81-13.87h0c-.13-.85-.22-1.72-.28-2.6s-.07-1.67,0-2.51a26.69,26.69,0,0,1,.35-3.76,23.57,23.57,0,0,1,.78-3.34,15.4,15.4,0,0,1,.61-1.77.31.31,0,0,1,.05-.1,1,1,0,0,1,.07-.18,18.87,18.87,0,0,1,1.54-3.12,15.2,15.2,0,0,1,5.54-5.53,10.9,10.9,0,0,1,9.26-.74,10.72,10.72,0,0,1,1.59.71c5.34,2.78,9.14,9.33,10.12,16.76a25.19,25.19,0,0,1,.23,2.63,28.41,28.41,0,0,1-.34,5.66,23.88,23.88,0,0,1-1.48,5.36,19.6,19.6,0,0,1-3.39,5.64S1132.75,753.6,1132.74,753.62Z" transform="translate(-143.62 -79.75)"/><path class="cls-7" d="M1146.87,740.31q.15.9.33,1.77c.13.58.29,1.16.45,1.72.1.38.21.77.33,1.13,0,.05,0,.11,0,.16l.31.93s0,0,0,0a31.34,31.34,0,0,1-1.35-9,5.27,5.27,0,0,0-.52-.21c0,.6.08,1.18.14,1.77S1146.78,739.76,1146.87,740.31Zm0,0q.15.9.33,1.77c.13.58.29,1.16.45,1.72.1.38.21.77.33,1.13,0,.05,0,.11,0,.16l.31.93s0,0,0,0a31.34,31.34,0,0,1-1.35-9,5.27,5.27,0,0,0-.52-.21c0,.6.08,1.18.14,1.77S1146.78,739.76,1146.87,740.31Zm0,0q.15.9.33,1.77c.13.58.29,1.16.45,1.72.1.38.21.77.33,1.13,0,.05,0,.11,0,.16l.31.93s0,0,0,0a31.34,31.34,0,0,1-1.35-9,5.27,5.27,0,0,0-.52-.21c0,.6.08,1.18.14,1.77S1146.78,739.76,1146.87,740.31Zm0,0q.15.9.33,1.77c.13.58.29,1.16.45,1.72.1.38.21.77.33,1.13,0,.05,0,.11,0,.16l.31.93s0,0,0,0a31.34,31.34,0,0,1-1.35-9,5.27,5.27,0,0,0-.52-.21c0,.6.08,1.18.14,1.77S1146.78,739.76,1146.87,740.31Zm0,0q.15.9.33,1.77c.13.58.29,1.16.45,1.72.1.38.21.77.33,1.13,0,.05,0,.11,0,.16l.31.93s0,0,0,0a31.34,31.34,0,0,1-1.35-9,5.27,5.27,0,0,0-.52-.21c0,.6.08,1.18.14,1.77S1146.78,739.76,1146.87,740.31Zm0,0q.15.9.33,1.77c.13.58.29,1.16.45,1.72.1.38.21.77.33,1.13,0,.05,0,.11,0,.16l.31.93s0,0,0,0a31.34,31.34,0,0,1-1.35-9,5.27,5.27,0,0,0-.52-.21c0,.6.08,1.18.14,1.77S1146.78,739.76,1146.87,740.31Zm0,0q.15.9.33,1.77c.13.58.29,1.16.45,1.72.1.38.21.77.33,1.13,0,.05,0,.11,0,.16l.31.93s0,0,0,0a31.34,31.34,0,0,1-1.35-9,5.27,5.27,0,0,0-.52-.21c0,.6.08,1.18.14,1.77S1146.78,739.76,1146.87,740.31Zm0,0q.15.9.33,1.77c.13.58.29,1.16.45,1.72.1.38.21.77.33,1.13,0,.05,0,.11,0,.16l.31.93s0,0,0,0a31.34,31.34,0,0,1-1.35-9,5.27,5.27,0,0,0-.52-.21c0,.6.08,1.18.14,1.77S1146.78,739.76,1146.87,740.31Zm-.86,1.84a28.12,28.12,0,0,0,3.85,10.55h0a14.83,14.83,0,0,0,7.09,6.21c.18.07.36.12.53.17,0,0,0,0,0,0a9.66,9.66,0,0,0,4.32.35,9.82,9.82,0,0,0,3.54-1.25c4.48-2.54,7.71-8.35,8.67-15.52,1.54-11.69-3.47-23.51-11.13-26.37a4.75,4.75,0,0,0-.49-.17h0a10.12,10.12,0,0,0-2-.44,9.6,9.6,0,0,0-2.73.1,10.51,10.51,0,0,0-3.25,1.2c-4.46,2.54-7.71,8.34-8.65,15.51-.06.47-.11.94-.15,1.4a25.31,25.31,0,0,0-.11,2.61A30.46,30.46,0,0,0,1146,742.15Zm2.36,3.91a31.34,31.34,0,0,1-1.35-9c0-.92,0-1.84.1-2.75,0-.53.1-1.06.17-1.59a25.56,25.56,0,0,1,2.77-8.91,14.37,14.37,0,0,1,5-5.45l.22-.14a8.65,8.65,0,0,1,3-1.06,7.55,7.55,0,0,1,2.76.08,8.57,8.57,0,0,1,1.38.38c7.09,2.65,11.68,13.82,10.22,24.92l0,.15v0s0,0,0,.06,0,0,0,.05c-.94,6.64-3.89,11.91-7.93,14.22a8.18,8.18,0,0,1-6.41.83,5.37,5.37,0,0,1-.75-.23,4.85,4.85,0,0,1-.62-.27.51.51,0,0,1-.18-.09h0s0,0,0,0a12.34,12.34,0,0,1-4.44-3.67,22.61,22.61,0,0,1-3.72-7.13A2.78,2.78,0,0,0,1148.37,746.06Zm-1.5-5.75q.15.9.33,1.77c.13.58.29,1.16.45,1.72.1.38.21.77.33,1.13,0,.05,0,.11,0,.16l.31.93s0,0,0,0a31.34,31.34,0,0,1-1.35-9,5.27,5.27,0,0,0-.52-.21c0,.6.08,1.18.14,1.77S1146.78,739.76,1146.87,740.31Zm0,0q.15.9.33,1.77c.13.58.29,1.16.45,1.72.1.38.21.77.33,1.13,0,.05,0,.11,0,.16l.31.93s0,0,0,0a31.34,31.34,0,0,1-1.35-9,5.27,5.27,0,0,0-.52-.21c0,.6.08,1.18.14,1.77S1146.78,739.76,1146.87,740.31Zm0,0q.15.9.33,1.77c.13.58.29,1.16.45,1.72.1.38.21.77.33,1.13,0,.05,0,.11,0,.16l.31.93s0,0,0,0a31.34,31.34,0,0,1-1.35-9,5.27,5.27,0,0,0-.52-.21c0,.6.08,1.18.14,1.77S1146.78,739.76,1146.87,740.31Zm0,0q.15.9.33,1.77c.13.58.29,1.16.45,1.72.1.38.21.77.33,1.13,0,.05,0,.11,0,.16l.31.93s0,0,0,0a31.34,31.34,0,0,1-1.35-9,5.27,5.27,0,0,0-.52-.21c0,.6.08,1.18.14,1.77S1146.78,739.76,1146.87,740.31Zm0,0q.15.9.33,1.77c.13.58.29,1.16.45,1.72.1.38.21.77.33,1.13,0,.05,0,.11,0,.16l.31.93s0,0,0,0a31.34,31.34,0,0,1-1.35-9,5.27,5.27,0,0,0-.52-.21c0,.6.08,1.18.14,1.77S1146.78,739.76,1146.87,740.31Zm0,0q.15.9.33,1.77c.13.58.29,1.16.45,1.72.1.38.21.77.33,1.13,0,.05,0,.11,0,.16l.31.93s0,0,0,0a31.34,31.34,0,0,1-1.35-9,5.27,5.27,0,0,0-.52-.21c0,.6.08,1.18.14,1.77S1146.78,739.76,1146.87,740.31Zm0,0q.15.9.33,1.77c.13.58.29,1.16.45,1.72.1.38.21.77.33,1.13,0,.05,0,.11,0,.16l.31.93s0,0,0,0a31.34,31.34,0,0,1-1.35-9,5.27,5.27,0,0,0-.52-.21c0,.6.08,1.18.14,1.77S1146.78,739.76,1146.87,740.31Z" transform="translate(-143.62 -79.75)"/><path class="cls-5" d="M1148,737.24a1.36,1.36,0,0,0,1-.65,1.26,1.26,0,0,0-.52-1.75c-.21-.11-5.19-2.69-12.15-.05a1.27,1.27,0,0,0-.76,1.67,1.38,1.38,0,0,0,1.76.72c5.78-2.19,9.79-.11,9.83-.09A1.38,1.38,0,0,0,1148,737.24Z" transform="translate(-143.62 -79.75)"/><path class="cls-5" d="M1098.43,691.33s-8.28-28.41-34.56-21.13-18.46,20.9-15.48,29.66c2.22,6.53,14.8,15.64,27.72,12.8S1098.43,691.33,1098.43,691.33Z" transform="translate(-143.62 -79.75)"/><path class="cls-19" d="M1139.94,764.23a26.38,26.38,0,0,1-9.33-2.05.44.44,0,0,1-.22-.58.42.42,0,0,1,.58-.22c.11.06,11,4.75,15.72-.58a.42.42,0,0,1,.61,0,.43.43,0,0,1,0,.62C1145.42,763.55,1142.66,764.23,1139.94,764.23Z" transform="translate(-143.62 -79.75)"/><path class="cls-2" d="M1137.89,803.09s9.64,22.24-12.39,22.78c0,0,11.57,11,19.67,6.62s.35-8.38,3.79-11.34,7.24-5.1,3.8-8.55,0-9.51,0-9.51S1143.18,801,1137.89,803.09Z" transform="translate(-143.62 -79.75)"/><ellipse class="cls-2" cx="1005.43" cy="778.58" rx="3.46" ry="3.3"/><path class="cls-2" d="M1160.12,964.38a3.47,3.47,0,1,1,3.47,3.3A3.39,3.39,0,0,1,1160.12,964.38Z" transform="translate(-143.62 -79.75)"/><path class="cls-2" d="M1160.12,916.33a3.47,3.47,0,1,1,3.47,3.3A3.39,3.39,0,0,1,1160.12,916.33Z" transform="translate(-143.62 -79.75)"/><path class="cls-2" d="M1088,810.54l-15.68,2.92s-2.78,7.77,4.9,10.23,9.22,2.47,11.68,8.14,12,5.91,15.39,3.94,9.26,5.43,14.71,5.43,8.67-9.22,6.55-15.33C1125.5,825.87,1105,822.52,1088,810.54Z" transform="translate(-143.62 -79.75)"/><path class="cls-17" d="M1167.05,1080.83s-73.48,290.51-193.19,392.31a37,37,0,0,1-41.38,4.4l-21.22-11.28A30,30,0,0,1,899,1425.77c31.78-60.09,107.41-212.35,133-345.69Z" transform="translate(-143.62 -79.75)"/><path class="cls-5" d="M1090,1301.25l-1.38-.56c.32-.77,31.82-77.49,42.77-121,11.07-43.91,46.83-59.3,47.19-59.45l.58,1.36c-.36.15-35.46,15.29-46.33,58.44C1121.89,1223.68,1090.36,1300.48,1090,1301.25Z" transform="translate(-143.62 -79.75)"/><path class="cls-20" d="M1170.7,1142l-.37-1c17.38-6,26.74-40.06,23.61-53-3.25-13.38,13.39-23.32,14.1-23.74l.56,1c-.17.1-16.64,10-13.58,22.52C1198.23,1100.92,1188.56,1135.77,1170.7,1142Z" transform="translate(-143.62 -79.75)"/><path class="cls-20" d="M1204,1057s-19.7-13.07-31.52-.92,1.49,35.51-23.17,38.69-31.45,25.4-26.62,34.7,24.35,19.06,40,9.2,27.86-34.6,27.13-50.74,16.59-18,16.3-24.53S1204,1057,1204,1057Z" transform="translate(-143.62 -79.75)"/><path class="cls-8" d="M1114.81,1062.58l30.26-3.76-19-.26,19,.22c-.61,13.91,2.61,50.87,22.56,68.87,8.57,7.73,15,11.54,33.57,13.79,2.14.26,10.93,5.56,12.39,7.12,2.82,3,.15,3.19,1.3,16.85.8,9.55-7.2,11.83-7.2,11.83C1106.63,1169.7,1114.77,1063.26,1114.81,1062.58Z" transform="translate(-143.62 -79.75)"/><path class="cls-20" d="M1230.59,1039.66s-39.72-.62-35.83,43.46c3.76,42.51,53.17,50.87,72.33,33.35C1287.91,1097.44,1295.13,1018.86,1230.59,1039.66Z" transform="translate(-143.62 -79.75)"/><path class="cls-8" d="M1365.52,1028.88l-28.43,1.87c-1,16.66-9.18,43.33-31.53,76.77-3.36,5-29.54,35.15-26.51,46.67l25,11C1357.63,1138.53,1365.69,1029.47,1365.52,1028.88Z" transform="translate(-143.62 -79.75)"/><path class="cls-8" d="M1294.17,1404.21c-4.39,12.45-8.64,24.83-12.69,36.68-12.13,35.47-22.54,66.19-30,79.7-5.94,10.8-24,5.71-19-6.69a734,734,0,0,1,9-83c2.15-13,4.78-26.8,8-40.86C1258,1353.27,1306,1370.78,1294.17,1404.21Z" transform="translate(-143.62 -79.75)"/><path class="cls-8" d="M1239.37,1383.06c-14.45,9.62-28.64,19.31-41.81,28.26-26.6,18.07-49.12,33.16-61.59,38.76-11.17,5-22.55-10.07-11.15-16.93a715.51,715.51,0,0,1,49.61-53.92c11.31-11.15,24.09-23,37.87-34.69C1241,1320.34,1268.7,1363.53,1239.37,1383.06Z" transform="translate(-143.62 -79.75)"/><path class="cls-7" d="M1318,1399.93c27.13-71.23,3.5-231.62,3.5-231.62,10.19-27.24-21-54.51-21-54.51-10.74,10.25-21.43,22.19-31.36,24.93-8,2.23-24.46,2.65-31.44,4-12.14,2.26-48.84-3.49-48.84-3.49.5,29.12,20,53.18,20,53.18,8.63,103.68-56,145.86-55.91,169.63C1153.28,1402.48,1307.34,1428,1318,1399.93Z" transform="translate(-143.62 -79.75)"/><path class="cls-8" d="M1237.76,1142.68c8.82-4.34,6.09-21.16,6.09-21.16l.06-4.38.35-25.77,8.42,22.44,5.06,13.46,1.44,3.84c1.17,3.14,5.37,7.85,10,7.62,0,0,.56,7.08-12.43,10.91C1247.06,1152.51,1237.74,1142.69,1237.76,1142.68Z" transform="translate(-143.62 -79.75)"/><path class="cls-21" d="M1243.57,1121.17l.2.34c3.86,6.67,14.58,7.61,14.58,7.61l-.7-1.86-5.05-13.46c-3,.42-7.06,1.35-8.78,3.33A3.32,3.32,0,0,0,1243.57,1121.17Z" transform="translate(-143.62 -79.75)"/><ellipse class="cls-8" cx="1105.87" cy="1012.43" rx="33.09" ry="33.57"/><path class="cls-14" d="M1247.56,1088.29a.7.7,0,0,0-.49-1.23,7.49,7.49,0,0,0-7.2,5.74.71.71,0,0,0,.44.88.75.75,0,0,0,.87-.45,11.78,11.78,0,0,1,6-4.77A.66.66,0,0,0,1247.56,1088.29Z" transform="translate(-143.62 -79.75)"/><path class="cls-14" d="M1271.34,1080.79a.72.72,0,0,0,.43-.44.7.7,0,0,0-.43-.89,7.41,7.41,0,0,0-8.81,2.52.72.72,0,0,0,.08,1,.75.75,0,0,0,1-.08,11.66,11.66,0,0,1,7.32-2.1A.73.73,0,0,0,1271.34,1080.79Z" transform="translate(-143.62 -79.75)"/><path class="cls-20" d="M1250,1053.44s26.27,1,30.67,18.82c2.69,10.94-11.45-6.68-15-1.09s-11.22-8.62-20.66-5.42,5.33,19.64-17.12,21.31c-7.79.58-2.7,20-18.46,12.1C1206.47,1097.67,1217.85,1050.58,1250,1053.44Z" transform="translate(-143.62 -79.75)"/><ellipse class="cls-8" cx="1217.6" cy="1101.87" rx="6.94" ry="8.64" transform="translate(-428.95 1683.81) rotate(-65.91)"/><path class="cls-5" d="M1136,1450.08s-9.78,3.84-14.47,20.44c-2.35,8.3-3.1,23-11.27,20.9-5-1.3-3.65-19.92-4.65-26.22-1.49-9.3-7.52-13.23-5.94-20,.83-3.6,7.1-4.62,13-6.68a103.56,103.56,0,0,0,12.22-5.34,22.07,22.07,0,0,0,3.35,9.51C1132.28,1448.43,1136,1450.08,1136,1450.08Z" transform="translate(-143.62 -79.75)"/><path class="cls-5" d="M1256.12,1511s-6,12.86,3,27.53c4.48,7.34,16.86,11.45,9.79,16.13-4.33,2.86-19.14-4.32-24.42-7.8-7.8-5.14-14.74-3.28-18.65-9-2.06-3,0-8,2.5-13.71,2.64-6.21,4.46-15.85,4.46-15.85s6.4,3.93,11.26,4.49A23.06,23.06,0,0,0,1256.12,1511Z" transform="translate(-143.62 -79.75)"/><path class="cls-15" d="M1250,1107.93s13.63-.72,21.07-7.77c0,0,0,8.48-7.36,10.8S1250,1107.93,1250,1107.93Z" transform="translate(-143.62 -79.75)"/><path class="cls-14" d="M1246.53,1097.87c-.79-1.66-.52-3.45.61-4s2.67.35,3.46,2,.52,3.46-.6,4S1247.32,1099.53,1246.53,1097.87Z" transform="translate(-143.62 -79.75)"/><path class="cls-14" d="M1264.26,1089.54c-.1-1.85.84-3.39,2.08-3.46s2.33,1.38,2.43,3.22-.84,3.39-2.09,3.45S1264.35,1091.38,1264.26,1089.54Z" transform="translate(-143.62 -79.75)"/><path class="cls-20" d="M1253.48,1041.08s13.67-13.72,7-22.85-32.22,6.11-35.92-12.48-25.7-23.06-33.77-7.07,11,40.91,29,35.7S1257,1028.72,1253.48,1041.08Z" transform="translate(-143.62 -79.75)"/><path class="cls-20" d="M1256,1039.05l-.53-1c.09,0,9.51-5.26,11.21-12a8.19,8.19,0,0,0-1.17-6.65c-2.92-4.54-9.65-5-16.1-5h-4.32c-5.92,0-11.1-.38-11.89-4.55-1.68-8.92-3.4-15.9-8.78-18l.4-1c5.92,2.3,7.73,9.56,9.47,18.82.62,3.31,5.13,3.65,10.69,3.65,1.42,0,2.92,0,4.45,0,6.73,0,13.79.46,17,5.47a9.24,9.24,0,0,1,1.32,7.51C1265.89,1033.55,1256.38,1038.83,1256,1039.05Z" transform="translate(-143.62 -79.75)"/><ellipse class="cls-15" cx="1141.23" cy="1259.57" rx="7.85" ry="7.97"/><ellipse class="cls-15" cx="1156.94" cy="1306.73" rx="7.85" ry="7.97"/><ellipse class="cls-15" cx="1052.24" cy="1269.18" rx="7.85" ry="7.97"/><ellipse class="cls-15" cx="1091.51" cy="1240.89" rx="7.85" ry="7.97"/><ellipse class="cls-15" cx="1149.08" cy="1208.75" rx="7.85" ry="7.97"/><ellipse class="cls-15" cx="1086.58" cy="1186.87" rx="7.85" ry="7.97"/><ellipse class="cls-15" cx="1145.12" cy="1163.04" rx="7.85" ry="7.97"/><ellipse class="cls-15" cx="1106.37" cy="1135.66" rx="7.85" ry="7.97"/><ellipse class="cls-15" cx="1150.68" cy="1102.55" rx="7.85" ry="7.97"/><ellipse class="cls-15" cx="1098.51" cy="1303.78" rx="7.85" ry="7.97"/><path class="cls-8" d="M1111,1050.4c.28,1.22.53,2.31.71,3.12a8.16,8.16,0,0,0,.57,1.71,72.09,72.09,0,0,0,6.39,15.53l12-5.51a3.79,3.79,0,0,0,1.31,1.59c1.77,1.23,8.16,3.61,9.19,1.72,2.39-4.36,5.14-14,7.45-18.41,1-1.92,3.91-8.57,2.14-9.79-1.54-1.07-6.38,3.14-8.44,5.42-1.81-14-10.78-33.66-9.13-4h-.05c-.45-3-2.93-19.6-6.71-17.42-3.33,1.93-2.05,13.9-1.37,18.82l-.14,0c-1.13-4.94-4.16-16.79-6.74-14-3.24,3.58-2.15,16.74-2.15,16.74s-1.76-16.78-6-13.11c-2.39,2.07-.37,11.56,1,17.45h0Z" transform="translate(-143.62 -79.75)"/><path class="cls-8" d="M1367.87,1020.71c-.28,1.23-.54,2.32-.71,3.13a8.15,8.15,0,0,1-.58,1.71,72.09,72.09,0,0,1-6.39,15.53l-12-5.52a3.76,3.76,0,0,1-1.31,1.6c-1.77,1.23-8.15,3.61-9.19,1.72-2.39-4.36-5.14-14-7.44-18.42-1-1.91-3.91-8.56-2.14-9.79,1.54-1.06,6.37,3.15,8.43,5.43,1.81-14,10.78-33.67,9.13-4h0c.45-3,2.93-19.6,6.71-17.42,3.34,1.93,2.06,13.9,1.37,18.82l.14,0c1.13-4.94,4.17-16.8,6.74-14,3.24,3.58,2.15,16.74,2.15,16.74s1.77-16.78,6-13.11c2.39,2.06.37,11.56-1,17.45h0Z" transform="translate(-143.62 -79.75)"/><path class="cls-22" d="M1080.61,1003.87c7.5-.73,22.94,1.18,30.46.6,3.27-.25,14.37-.34,15.37,2.85.87,2.77-7.51,7-11.79,8.49,24.65,13.21,52.13,39.21,1.69,15.06l0,.07c4.19,2.39,35.49,19,30.35,24.55-3.76,4.1-29.14-10.28-36.07-14.16l-.11.17c6.75,4.51,27.81,17.06,24.43,21.16-4.46,5.4-31.14-11.62-31.14-11.62s22.45,13.59,15.13,17.31c-4.12,2.09-17.17-6.36-25.23-11.73h0c-1.68-1.12-3.16-2.12-4.28-2.85a13.62,13.62,0,0,1-2.34-1.88c-13-9.77-19.85-18-19.85-18s-9.71-8.44-3.74-19.92C1067.25,1006.6,1077.36,1004.18,1080.61,1003.87Z" transform="translate(-143.62 -79.75)"/><path class="cls-11" d="M1072.27,813.46s-56.91,6.8-99.08,75.6-36.19,115.13-17,128.74,95.73,34.67,124.77,24.9,12.93-43.33,8.81-53.81-53.85-35.1-52.77-40.09,28.91-74.87,28.91-74.87Z" transform="translate(-143.62 -79.75)"/><path class="cls-5" d="M1064.56,1046.49c-23.21,0-59.24-9.28-61.22-9.79a.54.54,0,0,1-.39-.65.51.51,0,0,1,.65-.39c.64.18,63.79,16.43,77,6.61a.54.54,0,0,1,.64.86C1078,1045.55,1071.91,1046.49,1064.56,1046.49Z" transform="translate(-143.62 -79.75)"/><path class="cls-5" d="M1095,1004.61a.54.54,0,0,1-.54-.53c-.1-12.94-43.22-42.93-52.43-46-3.56-1.16-4.43-1.86-4.69-2.58a2,2,0,0,1,.46-1.72c.63-1,1.35-2-1.2-4.63a3.27,3.27,0,0,1-.91-2.67c.57-8.28,24.47-26.52,25.48-27.3a.54.54,0,0,1,.75.1.55.55,0,0,1-.1.76c-.25.17-24.53,18.7-25.08,26.51a2.27,2.27,0,0,0,.62,1.86c2.9,2.93,2.25,4.54,1.34,6-.22.33-.4.61-.35.77.11.31.89.9,4,1.94,10.33,3.41,53.06,33.59,53.16,47a.53.53,0,0,1-.53.53Z" transform="translate(-143.62 -79.75)"/><path class="cls-6" d="M763.46,265.9l231.34-1.18a8.66,8.66,0,0,1,7.74,12.54l-36.27,72.55a8.68,8.68,0,0,1-7.75,4.79H763.85c-6.44,0-9.7-6.06-10-16.22l1.89-67.69A8.68,8.68,0,0,1,763.46,265.9Z" transform="translate(-143.62 -79.75)"/><path class="cls-2" d="M819.13,280.66H974.61a6.2,6.2,0,0,1,5.42,9.22l-27.53,49.5a13.51,13.51,0,0,1-11.8,6.94H783.44a5.16,5.16,0,0,1-4.51-7.67l28.4-51.06A13.5,13.5,0,0,1,819.13,280.66Z" transform="translate(-143.62 -79.75)"/><path class="cls-6" d="M2106,265.9l-231.33-1.18a8.67,8.67,0,0,0-7.75,12.54l36.27,72.55a8.68,8.68,0,0,0,7.75,4.79h194.67c6.44,0,9.7-6.06,10-16.22l-1.89-67.69A8.68,8.68,0,0,0,2106,265.9Z" transform="translate(-143.62 -79.75)"/><path class="cls-2" d="M2050.29,280.66H1894.81a6.2,6.2,0,0,0-5.42,9.22l27.53,49.5a13.52,13.52,0,0,0,11.8,6.94H2086a5.16,5.16,0,0,0,4.51-7.67l-28.4-51.06A13.5,13.5,0,0,0,2050.29,280.66Z" transform="translate(-143.62 -79.75)"/></svg>