<?xml version="1.0" encoding="utf-8"?>
<!-- Generator: Adobe Illustrator 25.0.0, SVG Export Plug-In . SVG Version: 6.00 Build 0)  -->
<svg version="1.1" id="_ëîé_1" xmlns="http://www.w3.org/2000/svg" xmlns:xlink="http://www.w3.org/1999/xlink" x="0px" y="0px"
	 viewBox="0 0 2755.3 1829.4" style="enable-background:new 0 0 2755.3 1829.4;" xml:space="preserve">
<style type="text/css">
	.st0{fill:#CFE9FF;}
	.st1{fill:#B9D2E9;}
	.st2{fill:#F5F9F8;}
	.st3{fill:#6699CC;}
	.st4{fill:#2F1A31;}
	.st5{fill:#6F4975;}
	.st6{fill:#E28569;}
	.st7{fill:#F7B686;}
	.st8{fill:#74A1BD;}
	.st9{fill:#4E3054;}
	.st10{fill:#81B3CC;}
	.st11{fill:#EFAB7D;}
	.st12{fill:#56335B;}
	.st13{fill:#060633;}
	.st14{fill:#FFFFFF;}
	.st15{fill:#E08B65;}
	.st16{fill:#79A39B;}
	.st17{opacity:0.3;}
	.st18{fill:#020202;}
	.st19{fill:#DEEBE9;}
	.st20{fill:#436E8E;}
	.st21{fill:#DB996B;}
	.st22{fill:#EFA878;}
</style>
<path class="st0" d="M2396.1,1812.9c-229.4,29-465.7,16.9-948.5-13.4c-271.1-17-816.3,11.2-1088.4,13.4
	C160.8,1814.5,0,1664.8,0,1482.2V343C0,160.4,161.2,1.6,359.2,12.3c183.9,10,454.4,49.5,736.4,25.3c335.4-28.8,972-53.2,1300.5-25.3
	c197.5,16.8,359.3,148.1,359.3,330.7v1139.1C2755.4,1664.8,2592.7,1788,2396.1,1812.9z"/>
<rect x="541.6" y="200.2" class="st1" width="1550.3" height="1305"/>
<path class="st2" d="M808.9,259.6c0,0,428.8,166.6,976.2,6.9l161.8-7.7c0,0,114.8,604.4,138.3,787.5c23.5,183,6.5,516,6.5,516
	l-1550-57.1V719.9c0,0,62.5-387.6,98.2-453.3S808.9,259.6,808.9,259.6z"/>
<ellipse class="st3" cx="1353" cy="1550.2" rx="1177.5" ry="126.8"/>
<path class="st4" d="M1953.9,625.7c0,0,6.6-24.9,19.4-26s28.2-1.5,28.2-1.5l18.4,10.1v17.4H1953.9z"/>
<path class="st4" d="M1860.5,623.4l49.2,10.2c3.9,0.8,6.7,3.5,6.9,6.8l3.3,43c0.3,3.9-3.8,2.4-8.6,3l-53.6,11
	c-5.7,0.6-10.7-3-10.5-7.6l1.8-59.2C1849.1,625.6,1854.7,622.2,1860.5,623.4z"/>
<path class="st4" d="M1944.6,704.1h44.7c6.5,0,11.8,5.3,11.8,11.8c0,0.8-0.1,1.7-0.3,2.5l-3.3,15.3c-1.2,5.4-6,9.3-11.6,9.3h-35.3
	c-4.8,0-9.2-2.9-11-7.4l-6.1-15.3c-2.4-6.1,0.5-13,6.6-15.4C1941.6,704.4,1943.1,704.1,1944.6,704.1z"/>
<polygon class="st4" points="1989.3,645.5 2013,644 1991,602.4 1977.5,608.2 "/>
<path class="st5" d="M1909,627.5l74.8-4.7l-3.7,85.3l-65.2-7c-8-0.9-14.1-9.5-14.1-19.9v-42.4C1900.8,632.7,1904.4,627.8,1909,627.5
	z"/>
<path class="st4" d="M1897.9,1526.7c1.4,0,2.6-2,2.8-4.8l54.6-784.6c0.2-3-0.9-5.8-2.4-6.2s-3,1.7-3.2,4.7l-54.6,784.6
	c-0.2,3,0.9,5.8,2.4,6.2C1897.6,1526.7,1897.7,1526.7,1897.9,1526.7z"/>
<path class="st4" d="M2041.8,1526.7c0.1,0,0.3,0,0.4-0.1c1.6-0.4,2.6-3.2,2.4-6.2L1990,735.8c-0.2-3-1.6-5.1-3.2-4.7
	s-2.6,3.2-2.5,6.2l54.6,784.7C2039.2,1524.7,2040.4,1526.7,2041.8,1526.7z"/>
<path class="st4" d="M1969.8,1526.7c1.6,0,2.8-2.5,2.8-5.5V736.5c0-3-1.3-5.5-2.8-5.5s-2.8,2.5-2.8,5.5v784.7
	C1967,1524.2,1968.3,1526.7,1969.8,1526.7z"/>
<path class="st4" d="M1983.8,622.7h59.2c4.9,0,9,2.7,9.6,6.3l10.8,67.6c0.6,4.1-3.4,7.7-8.9,8l-73.3,3.8c-5.7,0.3-10.5-3.1-10.3-7.4
	l3.2-71.4C1974.3,625.8,1978.6,622.7,1983.8,622.7z"/>
<path class="st5" d="M1996.9,618.8l14-1.5c5,0,9-4,9-9l0,0c0-5-4-9-9-9l-15.7-1c-5,0-7.8,3.8-7.1,10
	C1989.1,616.3,1992,618.8,1996.9,618.8z"/>
<path class="st4" d="M1999,616.3l10.5-1.2c3.7,0,6.7-3,6.7-6.7l0,0c0-3.7-3-6.7-6.7-6.7l-11.7-0.8c-3.7,0-5.9,2.8-5.3,7.4
	C1993.1,614.5,1995.3,616.3,1999,616.3z"/>
<path class="st5" d="M2044,641.8l-49.9-2c-3-0.1-5.5,2.2-5.6,5.2l-0.9,17.8c-0.2,3,2.2,5.6,5.2,5.7c0.3,0,0.6,0,0.8,0l48.4-5
	c2.9-0.3,5-2.8,4.9-5.7l-0.8-14C2046,642.7,2045.1,641.8,2044,641.8z"/>
<path class="st6" d="M1989,630.5c0-1.7,1.3-3,3-3s3,1.3,3,3s-1.3,3-3,3S1989,632.1,1989,630.5z"/>
<path class="st4" d="M1967,1309.4c-0.2,0-0.5,0-0.7-0.1l-56.2-19.1c-1.2-0.2-1.9-1.3-1.7-2.5c0.2-1.2,1.3-1.9,2.5-1.7
	c0.2,0,0.4,0.1,0.6,0.2l55.5,18.9l59.9-21.2c1.1-0.4,2.3,0.2,2.7,1.3c0.4,1.1-0.2,2.3-1.3,2.7l-60.6,21.5
	C1967.5,1309.4,1967.3,1309.4,1967,1309.4z"/>
<path class="st4" d="M1968.4,1035.5c-0.3,0-0.6-0.1-0.8-0.2l-35.9-19.1c-0.8-0.4-1.1-1.5-0.7-2.3l0,0c0.4-0.8,1.5-1.2,2.3-0.7
	l35.1,18.7l37.9-21c0.8-0.5,1.9-0.2,2.3,0.7c0.5,0.8,0.2,1.9-0.7,2.3l-38.6,21.4C1969,1035.4,1968.7,1035.5,1968.4,1035.5z"/>
<path class="st7" d="M1928.9,654.4l3.1-0.4c2.9-0.3,5.5,1.7,5.8,4.6l3.4,29.8c0.3,2.9-1.7,5.5-4.6,5.8l-3.1,0.4
	c-2.9,0.3-5.5-1.7-5.8-4.6l-3.4-29.8C1924,657.3,1926.1,654.7,1928.9,654.4z"/>
<path class="st7" d="M1941.2,648.9l3.3-0.4c2.8-0.3,5.4,1.7,5.7,4.5l3.6,31.7c0.3,2.8-1.7,5.4-4.5,5.7l-3.3,0.4
	c-2.8,0.3-5.4-1.7-5.7-4.5l-3.6-31.7C1936.3,651.8,1938.3,649.2,1941.2,648.9z"/>
<path class="st7" d="M1955.5,718.8l-1.7-1.1c-3.2-2-4.1-6.2-2.2-9.3l19.2-30.8c2-3.2,8.3-6.8,11.5-4.8c5.2,3.3,3.7,9.9,1.7,13.1
	l-19.2,30.8C1962.9,719.9,1958.7,720.8,1955.5,718.8z"/>
<path class="st7" d="M1962,690l-1.2,0.1c-3.5,0.4-6.7-2.1-7.1-5.6l-5.1-44.8c-0.4-3.5,0-11.3,6.2-11.4c4.6-0.1,6.2,8.5,6.9,13.8
	c1.5,10.8,5.9,40.8,5.9,40.8C1968,686.5,1965.5,689.6,1962,690z"/>
<path class="st7" d="M1927.6,721.4c0,0-18.4-32-12.5-54c2-7.6,40.5-12,45.3-4.5s8,43.7,8,43.7L1927.6,721.4z"/>
<path class="st7" d="M1924.2,694.4l-3.2,0.4c-2.8,0.3-2.4,5.8-3.4,3.1c-6.5-18.5-5.3-33.1-5.3-33.1c-0.3-2.8,2.2-6.9,5.1-7.2
	l2.7,0.1c2.8-0.3,5.4,2.7,5.7,5.6l2.9,25.5C1929,691.5,1927,694.1,1924.2,694.4z"/>
<path class="st4" d="M2137.4,1517.3c0,0,1,18.8-11.4,23.8s-49.1,8.8-34.3,21.3c8.5,7.2,45.6,3.7,56.1,4s20.8,5.1,28.2-1.7
	c8-7.5-3.5-46.4-3.5-46.4s-8.8,4.5-17,4.1C2143.6,1521.7,2137.4,1517.3,2137.4,1517.3z"/>
<path class="st6" d="M1996,1042.6c6.5,39.1,16.4,89.8,31.4,151.9c28.6,118.3,60.8,237.6,76.5,294.8c5.6,20.5,23.9,35.8,44.3,37.2
	l11,0.7c22.1,1.5,38.5-16.9,35.2-39.3l-56.8-385.7l-7.9-61.3C2129.6,1040.8,1985.4,978.4,1996,1042.6z"/>
<path class="st4" d="M2289.9,1520.6c0,0,2.4,18.8-9.7,23.8s-48.4,8.8-32.7,21.3c9,7.2,45.8,3.7,56.4,4s21.2,5.1,28-1.7
	c7.5-7.5-6.9-46.4-6.9-46.4s-8.4,4.5-16.7,4.1C2296.4,1524.9,2289.9,1520.6,2289.9,1520.6z"/>
<path class="st6" d="M2094.2,948.9c0,0,10.2,85,61.9,248.9c37.3,118.3,78.3,237.6,98.3,294.8c7.1,20.5,26.6,35.8,47.1,37.2l11,0.7
	c22.2,1.5,37.2-16.9,32.3-39.3l-85.3-385.7l-25.8-126.9L2094.2,948.9z"/>
<path class="st4" d="M2147.5,1173.1c-0.1-0.2-7.8-19.3-0.7-44.5s22.3-33.4,22.9-33.8l0.8,1.4c-0.1,0.1-15.2,8.2-22.1,32.8
	s0.6,43.2,0.6,43.4L2147.5,1173.1z"/>
<path class="st7" d="M2126.3,685l-17.9-15.5l-5.6-5.3l-33.1-31.2l18.5,38.7l11.1,23.2l3.5,7.4c2.4,5-0.3,7.7-2,14.1
	c-0.7,2.6-5.3,18.4,8.8,17c17.6-1.8,43.1-18.8,47.1-35.9C2156.6,697.5,2144,699.1,2126.3,685z"/>
<ellipse transform="matrix(5.617123e-02 -0.9984 0.9984 5.617123e-02 1339.6833 2682.6533)" class="st7" cx="2088.8" cy="632.7" rx="46.3" ry="41.6"/>
<path class="st4" d="M2063,620.5c-23.4,4.6-36.8-6-39-17.5c-2.8-14.8,5.2-29.5,17.9-25.9s5.4-9.1,16.5-12.4c20.8-6.1,27,7.1,44.5,5
	c23-2.8,54.9,28.1,40,56.8C2143,626.6,2081.5,616.9,2063,620.5z"/>
<path class="st4" d="M2039.7,609c0,0,28.8,18.2,27.5,31.2s0.4,17.8,16.2,22.1s4.6,17.2,24.3,14.9c19.7-2.4,40.1-27.5,34.4-62.4
	c-2.1-11.8-8.3-22.5-17.5-30.3L2039.7,609z"/>
<path class="st7" d="M2054.4,641.7c2.2-4.2,7.3-6.1,11.3-4.4s5.4,6.6,3.2,10.7s-7.3,6.1-11.3,4.4
	C2053.6,650.7,2052.2,645.9,2054.4,641.7z"/>
<path class="st4" d="M2153.9,634.7c-0.2,0-0.5-0.1-0.5-0.4c-1.9-4.5-7.2-6.4-7.3-6.4c-0.3-0.1-0.5-0.4-0.4-0.8l0,0
	c0.1-0.3,0.4-0.4,0.8-0.4c0.2,0.1,5.9,2.1,8,7.1c0.1,0.3,0,0.6-0.3,0.8C2154,634.7,2154,634.7,2153.9,634.7z"/>
<path class="st4" d="M2145.8,625.2c-0.3,0-0.5-0.2-0.6-0.5s0.1-0.6,0.5-0.7c0.1,0,6.4-1.5,6.5-6.1c0-0.3,0.3-0.6,0.6-0.6l0,0
	c0.3,0,0.6,0.3,0.6,0.6l0,0c-0.2,5.6-7.2,7.2-7.5,7.2L2145.8,625.2z"/>
<path class="st4" d="M2103.4,563.7c-0.4,0-0.9-0.1-1.3-0.2c-1.7-0.5-3.4-1.4-4.9-2.4c-2.6-1.7-5-3.2-9.9-1.7
	c-0.3,0.1-0.6-0.1-0.7-0.4c-0.1-0.3,0.1-0.6,0.4-0.7l0,0c5.5-1.7,8.3,0.1,10.9,1.8c1.4,1,2.9,1.8,4.5,2.3c0.9,0.3,1.8,0.2,2.6-0.4
	c2.6-1.8,3.2-7.4,3.2-7.5c0-0.3,0.3-0.5,0.6-0.5c0,0,0,0,0.1,0c0.3,0,0.6,0.3,0.5,0.7c0,0.2-0.7,6.2-3.7,8.3
	C2105,563.5,2104.2,563.7,2103.4,563.7z"/>
<path class="st4" d="M2061.6,653.4c-0.2,0-0.3,0-0.5,0s-0.3-0.2-0.2-0.3c0-0.1,0.2-0.3,0.3-0.2c0,0,0.2,0,0.5,0
	c1.4,0,5.5-0.6,7.5-6.5c0-0.1,0.2-0.2,0.3-0.2l0,0c0.1,0,0.2,0.2,0.2,0.3l0,0C2067.6,652.8,2063.1,653.4,2061.6,653.4z"/>
<path class="st4" d="M1994.9,1042.6c0,0,172.8-9.4,254.7,10.3l1.2-23.4l-114.9-34l-92.8,2.3l-28.5,6.1l-20.1,31.1L1994.9,1042.6z"/>
<path class="st8" d="M2234.3,757.9c0,0-15.2-65.4-108.2-65.4c-162.1,0-116.6,132.2-131.6,342.4c0,0,104.5-22.7,255.7,7.5
	c0,0,14.7-113.8-4.3-210C2240.9,807,2241.8,780,2234.3,757.9z"/>
<path class="st8" d="M2110.5,693c0,0-55.1,0.3-93.8,36.8s-88.4,86.8-99,115.7c-13,35.6,10.9,71.3,41.4,72.1s57.6-21.3,57.6-21.3
	L2110.5,693z"/>
<path class="st8" d="M2296.6,861.2c15.1-125.4-130.3-163.9-130.3-163.9s-14.9,210.1,7,202.7C2210.9,887.4,2282.6,931.6,2296.6,861.2
	z"/>
<path class="st4" d="M2255,991.2l-1.1-0.1c4.5-82.5-10.1-166.8-10.2-167.7l1.1-0.2C2244.9,824,2259.5,908.6,2255,991.2z"/>
<path class="st4" d="M1998.7,908.1l-0.6-1c30.6-18,70.3-65.5,70.7-66l0.9,0.7C2069.4,842.4,2029.5,890,1998.7,908.1z"/>
<path class="st8" d="M1985,792.9c0,0,4-84.9-20.8-94.3c-22.1-8.3-50.6,4.1-50,30.2c0.7,32.7-19.4,123.9,11.8,171.2L1985,792.9z"/>
<path class="st4" d="M1947.2,829.6l-0.8-0.8c0.7-1.6,1.3-3.3,1.8-5c3.8-12.3,12.6-41.2,37.4-64.9l0.8,0.8
	c-24.6,23.5-33.3,52.2-37.1,64.4C1948.2,827.7,1947.7,829.1,1947.2,829.6z"/>
<path class="st5" d="M537.4,967.3l86.3,180.5c3.3,7-1.6,15.2-9.1,15.2H394.5c-8.1-0.1-15.4-5.3-18-13l-54.8-154.1
	c-2.1-5.6,0.8-11.8,6.4-13.9c0.7-0.2,1.4-0.4,2.1-0.5L504,956.6C520.6,954.1,533.8,959.7,537.4,967.3z"/>
<path class="st9" d="M523.5,967.3l86.3,180.5c3.3,7-1.6,15.2-9.1,15.2H380.5c-8.1-0.1-15.4-5.3-18-13l-54.8-154.1
	c-2.1-5.6,0.8-11.8,6.4-13.9c0.7-0.3,1.4-0.4,2.1-0.5l187.7-24.9C512.1,955.4,520,959.8,523.5,967.3z"/>
<path class="st4" d="M474.4,1012.9l39.7,80.2c1.1,2.3,0.2,5.1-2.1,6.3c-0.6,0.3-1.3,0.5-2.1,0.5H408.6c-3.7,0-7-2.3-8.3-5.8
	l-25.2-68.5c-0.9-2.5,0.4-5.3,2.9-6.2c0.3-0.1,0.7-0.2,1-0.3l86.4-11.1C469.1,1007.6,472.7,1009.5,474.4,1012.9z"/>
<path class="st9" d="M423.9,1559.3c-1.1,0-2.2-0.3-3.2-0.9c-2.8-1.7-3.8-5.4-2-8.2v-0.1c0.4-0.6,37.7-61.3,52.8-92.3
	c1.5-3,5.1-4.2,8.1-2.8s4.2,5.1,2.8,8.1l0,0c-15.4,31.5-51.8,90.8-53.4,93.3C428,1558.2,426,1559.3,423.9,1559.3z"/>
<path class="st9" d="M466.1,1565.4c-0.4,0-0.8,0-1.2-0.1c-3.3-0.7-5.4-3.9-4.7-7.2l20.2-98.8c0.6-3.3,3.7-5.4,7-4.9
	c1.9,0.3,3.6,1.6,4.4,3.4c15.2,31,52.5,91.7,52.8,92.3c1.7,2.8,0.9,6.6-2,8.3c-2.8,1.7-6.6,0.9-8.3-2c-1.3-2.1-28.1-45.6-45.5-77.9
	l-16.7,82C471.5,1563.4,469,1565.4,466.1,1565.4z"/>
<path class="st4" d="M482.1,1463.8c-4.3,0-8-3.3-8.3-7.7c-9.2-109.2-33.6-394.9-35.6-406.1c-1.3-4.2,1-8.7,5.3-10
	c0.1,0,0.2-0.1,0.3-0.1c4.5-1.2,9.2,1.4,10.5,5.8c1.9,6,23.4,258.8,36.2,408.9c0.4,4.6-3,8.6-7.6,9
	C482.5,1463.8,482.3,1463.8,482.1,1463.8z"/>
<path class="st9" d="M477.8,1395.2h-0.1c-7.9,0.6-14.8-5.3-15.4-13.1L455,1290c-0.6-7.9,5.3-14.8,13.1-15.4h0.1
	c7.9-0.6,14.8,5.3,15.4,13.1l7.3,92.1C491.6,1387.7,485.7,1394.6,477.8,1395.2L477.8,1395.2L477.8,1395.2z"/>
<ellipse transform="matrix(0.9872 -0.1595 0.1595 0.9872 -225.9904 95.4406)" class="st9" cx="481.5" cy="1455.5" rx="11.4" ry="11.4"/>
<path class="st5" d="M1628.8,1174.4l-74.5,155.8c-2.9,6,1.3,13.1,7.8,13.1h190c7-0.1,13.3-4.6,15.6-11.2l47.3-133
	c1.8-4.8-0.7-10.2-5.5-12c-0.6-0.2-1.2-0.4-1.8-0.5l-150-21.5C1643.2,1162.9,1631.9,1167.8,1628.8,1174.4z"/>
<path class="st9" d="M1640.8,1174.4l-74.5,155.8c-2.9,6,1.4,13.1,7.8,13.1h190c7-0.1,13.3-4.6,15.6-11.2l47.3-133
	c1.8-4.8-0.7-10.2-5.5-12c-0.6-0.2-1.2-0.4-1.8-0.5l-162-21.5C1650.6,1164.1,1643.8,1167.9,1640.8,1174.4z"/>
<path class="st4" d="M1683.2,1213.7l-34.3,69.3c-1,2-0.2,4.4,1.7,5.4c0.6,0.3,1.2,0.4,1.9,0.4h87.4c3.2,0,6.1-2,7.2-5l21.8-59.2
	c0.8-2.1-0.3-4.5-2.5-5.3c-0.3-0.1-0.6-0.2-0.9-0.2l-74.5-9.6C1687.7,1209.1,1684.6,1210.8,1683.2,1213.7z"/>
<path class="st9" d="M1730.5,1542.3c-1.8,0-3.5-0.9-4.4-2.5c-1.3-2.2-32.8-53.3-46.1-80.5c-1.3-2.6-0.2-5.7,2.4-7s5.7-0.2,7,2.4
	c13.1,26.7,45.3,79.1,45.6,79.6c1.5,2.5,0.7,5.7-1.7,7.2l0,0C1732.4,1542,1731.4,1542.3,1730.5,1542.3z"/>
<path class="st9" d="M1694,1547.6c-2.5,0-4.6-1.7-5.1-4.2l-14.5-70.8c-15,27.9-38.1,65.4-39.2,67.3c-1.5,2.5-4.7,3.2-7.2,1.7
	s-3.2-4.7-1.7-7.2l0,0c0.3-0.5,32.5-52.9,45.6-79.6c1.3-2.6,4.4-3.7,7-2.4c1.5,0.7,2.5,2.1,2.8,3.7l17.4,85.3
	c0.6,2.8-1.2,5.6-4.1,6.2l0,0C1694.7,1547.5,1694.4,1547.6,1694,1547.6z"/>
<path class="st4" d="M1680.6,1459.8h-0.5c-4-0.3-6.9-3.7-6.7-7.7l0,0c5-68.3,13.7-183.7,15.3-188.9c1.2-3.8,5.2-5.9,9-4.7
	c3.6,1.1,5.7,4.9,4.8,8.6c-1.4,7.7-9.6,115.3-14.8,186.1C1687.5,1457,1684.4,1459.8,1680.6,1459.8z"/>
<path class="st9" d="M1683.1,1364.4l5.1,0.4c5.4,0.4,9.5,5.2,9,10.6l-3.7,46.4c-0.4,5.4-5.2,9.5-10.6,9l-5.1-0.4
	c-5.4-0.4-9.5-5.2-9-10.6l3.7-46.4C1673,1368.1,1677.7,1364,1683.1,1364.4z"/>
<circle class="st9" cx="1680.6" cy="1452.6" r="9.9"/>
<path class="st8" d="M502.8,156.8h1616c7.5,0,13.7,6.1,13.7,13.7v34.2c0,7.5-6.1,13.7-13.7,13.7h-1616c-7.5,0-13.7-6.1-13.7-13.7
	v-34.2C489.1,162.9,495.2,156.8,502.8,156.8z"/>
<path class="st10" d="M1037.3,810.9l-13.9-85.5c0,0,39,5.3,108.4,53.7c50,34.8,66.1-60,74-56.7c8.5,3.5,39,66.3,39,66.3
	C1240,800.5,1181.7,941.6,1037.3,810.9z"/>
<path class="st11" d="M998.5,834.5L998.5,834.5c-1.6,3.7-5.8,5.5-9.6,4l-31.1-13.1c-3.7-1.5-16.6-10.3-15-14l0,0
	c1.6-3.7,14.9-1.2,18.7-0.2c9,2.4,27.7,3.4,36.6,5.9C1002,818.1,1000.1,830.7,998.5,834.5z"/>
<path class="st11" d="M1010.8,857.1c0,0-12.3,11.8-34.3,22.5c-6.7,3.2-30.2-39.8-24-45.4s33.2-10.6,33.2-10.6L1010.8,857.1z"/>
<path class="st11" d="M978.1,833.2c0,0,1.4-14.7-13.8-11.4c-24.6,5.3-72.6,38.3-11.3,20.6c1.2-0.3-36.2,13.1-30.1,19.8
	s38.7-6.8,38.7-6.8s-34.3,15.4-26.6,19.8s31.4-3,31.4-3s-30,10.2-21.7,16.4c5.7,4.2,28.8-7.8,37-11.6c7.8-3.6,8-9.8,4.1-17.1
	c0,0,0.3-9.6-3.5-13.6c-1.4-1.6-0.5-4.2-1-5.7C980.6,838.1,979.5,835.6,978.1,833.2z"/>
<path class="st11" d="M984.2,803.6c0,0,125.4-8.3,199.2-100.1l37.3,63.2c0,0-47.1,64.5-212.8,93.5L984.2,803.6z"/>
<path class="st4" d="M1261.1,1416.6c0,0-0.9,17.4-12.9,21.9s-46.6,8.1-34,19.6c7.2,6.6,42.1,3.4,51.9,3.7s18.9,4.8,26.4-1.6
	c8.2-6.9,1.2-42.8,1.2-42.8s-8.6,4.1-16.2,3.7C1266.5,1420.6,1261.1,1416.6,1261.1,1416.6z"/>
<path class="st5" d="M1166.1,893.5c0,0-4.5,78.3,16.7,229.4c15.3,109.1,33.9,219,43,271.8c3.2,18.8,18.8,32.9,37.7,34.3l10.1,0.7
	c20.4,1.4,37.5-15.6,36.6-36.3l-16-355.5l-3.1-117L1166.1,893.5z"/>
<path class="st4" d="M1373.6,1419.6c0,0-0.9,17.4-12.9,22s-46.6,8.1-34,19.6c7.2,6.6,42.1,3.4,51.9,3.7s18.9,4.7,26.4-1.6
	c8.2-6.9,1.2-42.8,1.2-42.8s-8.6,4.1-16.2,3.8C1379,1423.6,1373.6,1419.6,1373.6,1419.6z"/>
<path class="st5" d="M1278.6,896.5c0,0-4.5,78.3,16.7,229.4c15.3,109,33.9,219,43,271.7c3.2,18.8,18.7,32.9,37.7,34.3l10.2,0.7
	c20.4,1.4,37.5-15.6,36.6-36.2l-16-355.5l-3.1-117L1278.6,896.5z"/>
<path class="st4" d="M1414.4,986.1c-0.5,9.4-58.4,11.7-129.9,7.6s-128.3-15.4-127.8-24.9s58.2-13.5,129.6-9.3
	S1414.8,976.6,1414.4,986.1z"/>
<path class="st6" d="M1404.1,717.8c0,0-11.3-49.9-104.6-52.9c-134.5-4.3-125.4,118.3-142.9,303.8c0,0,133-15,257.8,15
	C1414.5,983.7,1431.3,794.4,1404.1,717.8z"/>
<path class="st6" d="M1438.8,711.7l-61.8,31.7c0,0-133.7,8.4-169,1.7s-44.3-32.7-44.3-32.7s38.8-37.6,103.2-46.2
	c6-0.8,12.3-1.4,18.8-1.6c10.8-0.4,21.7,0.1,32.4,1.5C1399,677.3,1438.8,711.7,1438.8,711.7z"/>
<path class="st7" d="M1312.7,653.9l-6.4-22.7l-1.9-6.6l-11-38.8l-2.6,38.2l-1.6,23l-0.5,7.3c-0.3,4.9-3.4,5.9-7.2,10.1
	c-1.6,1.7-11.4,12-0.7,17c13.4,6.3,39-2,49-13.5C1329.7,667.9,1314.8,661.2,1312.7,653.9z"/>
<path class="st5" d="M1167.7,976.7c0,0,78.1-20.5,237.7,14.8l0.6,22.9l-235.4,2L1167.7,976.7z"/>
<ellipse transform="matrix(0.8292 -0.5589 0.5589 0.8292 -167.368 914.651)" class="st4" cx="1413.1" cy="731.2" rx="32.4" ry="16.1"/>
<path class="st7" d="M1448.8,1003.3c-3.9-61.2-14.4-148.9-42-218.9c-6.4-16.2-9.1-22.3-14.2-31.2c-4.1-7.2,4-22.4,16.3-29.5
	c11.5-6.6,29.2-5,31.9-1.5c4.6,6,9.4,17.3,16.8,35.2c25.8,62.4,40,142.4,43.9,245.2L1448.8,1003.3z"/>
<path class="st12" d="M1329.8,565.1c2.9,6.5,4.3,13.5,4.3,20.6c0,11.9-17.6-13.8-17.6-13.8L1329.8,565.1z"/>
<ellipse transform="matrix(0.9386 -0.345 0.345 0.9386 -126.8457 486.5197)" class="st7" cx="1303.5" cy="599.6" rx="34.5" ry="41.3"/>
<path class="st4" d="M1267.5,599.7l16-5c3.5-1.1,6.4-3.7,7.8-7.1c2.3-5.9,5.8-9.4,21.2-11.9c19.5-3.2,29.9-17.2,30-27.7
	c0-10.7-11.3-15.6-20.1-8.7s-7-6-16.6-5.3c-18,1.2-18.5,15.2-32.9,17.7c-18.9,3.2-49.6,24.2-26.8,53.6L1267.5,599.7z"/>
<path class="st13" d="M1304.9,597.8c0.2-0.1,0.2-0.4,0.2-0.6c0-0.4-0.4-0.7-0.8-0.6l0,0c-3.4,0.2-6.3,2.7-7,6.1
	c-0.1,0.4,0.1,0.7,0.5,0.8l0,0c0.4,0.1,0.7-0.1,0.9-0.5c1.3-2.3,3.4-4,5.8-5C1304.6,598,1304.8,597.9,1304.9,597.8z"/>
<path class="st13" d="M1303.7,607.1c0.8,1.5,2.2,2.2,3.3,1.7s1.3-2.2,0.6-3.7s-2.2-2.2-3.3-1.7S1302.9,605.7,1303.7,607.1z"/>
<path class="st13" d="M1329.9,590.6c0.2-0.1,0.3-0.2,0.3-0.4c0-0.4-0.1-0.7-0.5-0.9c-2.4-1.3-5.4-0.4-6.7,1.9c0,0.1-0.1,0.2-0.1,0.3
	c-0.2,0.3-0.1,0.8,0.2,1c0.2,0.2,0.5,0.2,0.7,0l0,0c1.5-1.4,3.6-2.1,5.7-1.8C1329.6,590.7,1329.8,590.7,1329.9,590.6z"/>
<path class="st13" d="M1325,598.9c0.1,1.7,1.2,2.9,2.4,2.8s2.1-1.5,2-3.2s-1.2-2.9-2.4-2.8S1324.9,597.2,1325,598.9z"/>
<path class="st12" d="M1246,605.1c0,0,16.3,21.9,32.8,20.4c0,0-16.8-15.8,8.2-32.6C1287,593,1261.1,594.2,1246,605.1z"/>
<path class="st7" d="M1271.4,613.9c3.9,1.5,8.1-0.1,9.4-3.6s-0.8-7.4-4.6-8.9s-8.1,0.1-9.4,3.6S1267.5,612.4,1271.4,613.9z"/>
<path class="st12" d="M1287,593c0,0,2,20.7,7,23.7s32.9-1,44.7-8.5l0,0c3,13.1-4,26.3-16.5,31.2c-4.2,1.6-8.7,2.5-13.2,2.6l0,0
	c-9.3,0.3-18.8-1.6-24.3-9.1c-1.7-2.3-1.6-18.4-1.6-18.4s-0.7-9.3-7-13C1276.2,601.5,1281.2,594.7,1287,593z"/>
<path class="st4" d="M1318.4,538.2c-2.2,0-4.2-1.3-4.9-3.4l0.9-0.3c0,0.1,1.2,3.5,5.6,2.5l0.2,0.9
	C1319.7,538.1,1319,538.2,1318.4,538.2z"/>
<path class="st14" d="M1316.9,569.1l-0.2-0.4c0.2-0.1,19.6-10.3,18.2-21c-0.4-3-1.3-4.9-2.8-5.7c-2.4-1.3-6,0.3-9.1,1.7l-1.4,0.6
	l-0.2-0.5c0.5-0.2,0.9-0.4,1.4-0.6c3.2-1.5,6.9-3.2,9.5-1.7c1.6,0.9,2.6,2.9,3,6C1336.7,558.6,1317.7,568.7,1316.9,569.1z"/>
<path class="st14" d="M1265.6,556.9v-0.5c20.7-1.4,28-14.5,28.1-14.7l0.4,0.2C1294,542.1,1286.5,555.5,1265.6,556.9z"/>
<path class="st14" d="M1331.8,617.5c-6.4,2.2-13.1,3.5-19.8,3.7c0,0,2.5,9.2,12.8,6.2C1330.9,625.6,1331.8,617.5,1331.8,617.5z"/>
<path class="st15" d="M1467.3,866.2c-4.4,0-8.6-4.7-9.5-10.9c-0.5-3.9,0.3-7.8,2.2-10.3c1.1-1.6,2.8-2.6,4.7-3
	c4.8-0.7,9.4,4.2,10.3,10.9c0.5,3.9-0.3,7.8-2.2,10.3c-1.1,1.6-2.8,2.7-4.8,3C1467.9,866.2,1467.6,866.2,1467.3,866.2z
	 M1465.7,844.2c-0.2,0-0.4,0-0.6,0c-1.3,0.2-2.5,0.9-3.2,2c-1.7,2.5-2.3,5.6-1.8,8.6c0.8,5.4,4.2,9.5,7.7,8.9c1.3-0.2,2.5-0.9,3.2-2
	c1.7-2.5,2.3-5.6,1.8-8.6C1472.2,848.1,1469,844.2,1465.7,844.2z"/>
<path class="st7" d="M1473,988.4L1473,988.4c2.7,3.3,2.2,8.1-1.1,10.9l0,0l-28.1,22.5c-3.3,2.7-18.2,10.4-20.9,7.1l0,0
	c-2.7-3.3,6.4-14.4,9.3-17.6c6.8-7.2,17.2-24.1,24.1-31.2C1459.4,977.1,1470.3,985.1,1473,988.4z"/>
<path class="st7" d="M1500.6,988.1c0,0,4.8,17.3,3.7,43.1c-0.3,7.8-52.9,8.6-55,0.1s6.8-36.1,6.8-36.1L1500.6,988.1z"/>
<path class="st7" d="M1461.5,1006.8c0,0-13.1-8.5-17.7,7.3c-7.5,25.6-0.8,86.5,13.6,20.6c0.3-1.3-6,40.2,3.3,37.8
	s13.3-39.4,13.3-39.4s-3,39.6,5.1,34.5s13.1-30.8,13.1-30.8s-5.7,33,4.4,28.3c6.9-3.2,7.3-30.7,7.9-40.2c0.6-9-5.1-12.3-14-12.2
	c0,0-8.8-5-14.6-3.5c-2.2,0.6-4.2-1.6-5.8-1.9C1467.3,1006.8,1464.4,1006.7,1461.5,1006.8z"/>
<path class="st4" d="M1186.9,740l-1.5-0.4c4.3-14,18-31.2,18.1-31.3l1.2,0.9C1204.6,709.4,1191.2,726.3,1186.9,740z"/>
<path class="st4" d="M1298.7,1156.6c-0.1-0.7-8.8-64.7-15.3-87.7c-6.4-22.7-36.3-42.5-36.7-42.7l0.8-1.3
	c1.2,0.8,30.7,20.3,37.3,43.5c6.5,23.1,15.2,87.2,15.3,87.9L1298.7,1156.6z"/>
<path class="st4" d="M985.1,1419.3c0,0-1,17.1,10.7,22.8s46.3,12.8,32.3,22.7c-8.1,5.7-43.1-1.1-53.1-1.9s-19.7,2.6-26.6-4.3
	c-7.6-7.7,3.6-41.9,3.6-41.9s8.2,5,16,5.4C979.2,1422.7,985.1,1419.3,985.1,1419.3z"/>
<path class="st4" d="M812.6,1353.6c0,0-27.2,66.7-22.3,78.9s26.1,40.9,9.1,38.8c-9.7-1.2-31.4-30-38.3-37.3s-16.4-11.4-17-21.2
	c-0.6-10.8,34.2-44.5,34.2-44.5s4.4-49,10-43.4C796.2,1332.9,812.6,1353.6,812.6,1353.6z"/>
<path class="st4" d="M1014.5,611.7c0,0,6.2-28.9-20.7-33.8s-22.5,15.2-27.9,19.7s5.7,20.3,18.6,23.4S1014.5,611.7,1014.5,611.7z"/>
<path class="st16" d="M1087.1,998.5c-3.6-54.2-117.9,5.9-117.9,5.9s-48.1,372.2-26.2,424.4c4.3,10.3,23,10.1,31.7,9.2
	c61.8-6.8,77.1-192.8,93.2-274.6C1076.1,1122.3,1089.3,1031.3,1087.1,998.5z"/>
<path class="st4" d="M867.1,997.6c3.2,13.3,55,27.3,117,13.2s110.3-29.1,107.1-42.5s-56.9-19.9-118.8-5.8S863.8,984.2,867.1,997.6z"
	/>
<path class="st10" d="M1064.7,771.1c15.2-6.7,17.3-9.6,17.3-9.6s-19.1-41.8-87.7-38.1c-9.5,0.5-52.4,8-61.7,9.6
	c-118.2,20.6-66,259.5-65.6,264.7c119.5-51.4,224.1-29.3,224.1-29.3C1092,877.2,1066.6,775.6,1064.7,771.1z"/>
<path class="st16" d="M888.4,1000.3c0,0,104.1-32,190.3-26.8c3.9,0.2,7,3.1,7.3,7c0,0,1.7,30.5,0.9,40.6
	c-1.7,22.4-206,14.2-206,14.2L888.4,1000.3z"/>
<path class="st7" d="M944.4,730.8c10.5,11.6,22.2,15.3,37.6,15.3c23.2,0,12.4-22.8,12.4-22.8c-5.7-0.1-8.8-2.9-9.3-8.3l-0.6-6.7
	l-0.3-3.3l-0.9-10.5l-0.8-9.5l-3.4-38.8l-10.7,39.5l-1.8,6.7l-6.3,23.2C958.1,723.2,952.1,729,944.4,730.8L944.4,730.8z"/>
<path class="st4" d="M966.5,692.5c0,0,6.8,11.5,17.6,12.6l-0.9-10.5C976.5,693.2,966.5,692.5,966.5,692.5z"/>
<path class="st4" d="M932.5,646.7c0,0,2.6,6.1,0.9,19.5c-2.5,19.7,21.5,24.3,26.4,18c0.6-0.8-5.6-32.8-5.6-32.8l-7.9-3L932.5,646.7z
	"/>
<ellipse transform="matrix(0.9804 -0.1971 0.1971 0.9804 -109.2774 206.3221)" class="st7" cx="981.9" cy="652.2" rx="38.2" ry="45.1"/>
<path class="st4" d="M991.3,615.7c-0.8,1.5,8.9,23.5-34.8,35.6s-25.3-43.4,7.4-49.4c47.1-8.7,59,20.7,56.2,32.3
	S991.3,615.7,991.3,615.7z"/>
<path class="st4" d="M960.3,643.3c0,0-15.2,21-5.9,38.7c0,0-12.3-9.4-13.2-13.5s-0.5-19.3-0.5-19.3L960.3,643.3z"/>
<ellipse transform="matrix(0.557 -0.8305 0.8305 0.557 -122.3101 1083.806)" class="st7" cx="954.8" cy="656.6" rx="8.4" ry="10.7"/>
<path class="st13" d="M985.6,652c0.4-0.2,0.6-0.6,0.5-1.1c-0.1-0.3-0.3-0.5-0.6-0.5c-4.1-1.2-8.4,0.5-10.8,4
	c-0.3,0.4-0.2,0.9,0.2,1.2l0,0c0.4,0.2,0.9,0.1,1.2-0.2c2.5-2,5.7-3.2,8.9-3.3C985.2,652.1,985.4,652.1,985.6,652z"/>
<path class="st13" d="M980.3,662c0.3,2,1.7,3.4,3.2,3.2s2.5-1.9,2.3-3.9s-1.7-3.4-3.2-3.2S980,660.1,980.3,662z"/>
<path class="st13" d="M1017,651.7c0.3,0,0.5-0.1,0.7-0.3c0.3-0.4,0.2-0.9-0.2-1.1l0,0c-3.4-2.6-8.1-2.7-11.6-0.2
	c-0.4,0.2-0.5,0.7-0.3,1.1l0,0c0.3,0.4,0.8,0.5,1.2,0.2c3.1-1,6.5-0.9,9.6,0.2C1016.7,651.7,1016.8,651.7,1017,651.7z"/>
<path class="st13" d="M1008.1,659.1c-0.6,1.9,0.2,3.8,1.6,4.2s3.1-0.8,3.6-2.8s-0.2-3.8-1.6-4.2S1008.6,657.2,1008.1,659.1z"/>
<g class="st17">
	
		<ellipse transform="matrix(0.9975 -7.080040e-02 7.080040e-02 0.9975 -44.1736 70.9388)" class="st14" cx="978.6" cy="658.6" rx="14.8" ry="20.8"/>
</g>
<g class="st17">
	
		<ellipse transform="matrix(0.9872 -0.1595 0.1595 0.9872 -93.2827 170.7077)" class="st14" cx="1016.8" cy="666.5" rx="12.9" ry="20.6"/>
</g>
<path class="st6" d="M963.2,661.2c0.1,0.6,0.2,1.1,0.3,1.7c1,5.1,3.6,9.7,7.4,13.2c1.4,1.2,3,2.2,4.7,2.8c1.6,0.6,3.2,0.8,4.9,0.8
	c0.4,0,0.9-0.1,1.3-0.1c1.5-0.2,2.9-0.7,4.3-1.5c3.6-2.1,6.3-5.5,7.7-9.4c1.5-3.8,2.1-7.8,1.9-11.9c0-0.9-0.1-1.7-0.2-2.6
	c-1-7.6-5-14.4-10.5-17.4c-0.7-0.4-1.4-0.7-2.1-1c-3.5-1.3-7.3-1-10.5,0.8c-4.2,2.3-7.3,6.8-8.8,12.5c-0.2,0.8-0.4,1.7-0.5,2.5
	c-0.1,0.5-0.2,1-0.2,1.5C962.7,655.8,962.8,658.5,963.2,661.2L963.2,661.2z M989.1,673.9c-1,1.2-2.3,2.2-3.7,3
	c-1.1,0.7-2.4,1.1-3.7,1.3c-1.9,0.3-3.8,0.1-5.6-0.6c-1.8-0.7-3.4-1.7-4.8-3c-3.5-3.2-6-8.3-6.8-13.9l0,0c-0.1-0.8-0.2-1.7-0.3-2.6
	s-0.1-1.7,0-2.5c0-1.3,0.1-2.5,0.3-3.8c0.2-1.1,0.4-2.2,0.8-3.3c0.2-0.6,0.4-1.2,0.6-1.8c0,0,0-0.1,0.1-0.1c0-0.1,0-0.1,0.1-0.2
	c0.4-1.1,0.9-2.1,1.5-3.1c1.3-2.3,3.2-4.2,5.5-5.5c2.8-1.6,6.2-1.9,9.3-0.7c0.5,0.2,1.1,0.4,1.6,0.7c5.3,2.8,9.1,9.3,10.1,16.8
	c0.1,0.9,0.2,1.7,0.2,2.6c0.1,1.9,0,3.8-0.3,5.7c-0.3,1.8-0.8,3.6-1.5,5.4C991.8,670.3,990.7,672.2,989.1,673.9
	C989.2,673.8,989.1,673.8,989.1,673.9z"/>
<path class="st6" d="M1003.2,660.6c0.1,0.6,0.2,1.2,0.3,1.8s0.3,1.2,0.4,1.7c0.1,0.4,0.2,0.8,0.3,1.1c0,0,0,0.1,0,0.2l0.3,0.9l0,0
	c-0.9-2.9-1.3-6-1.3-9c-0.2-0.1-0.3-0.1-0.5-0.2c0,0.6,0.1,1.2,0.1,1.8S1003.2,660,1003.2,660.6z M1003.2,660.6
	c0.1,0.6,0.2,1.2,0.3,1.8s0.3,1.2,0.4,1.7c0.1,0.4,0.2,0.8,0.3,1.1c0,0,0,0.1,0,0.2l0.3,0.9l0,0c-0.9-2.9-1.3-6-1.3-9
	c-0.2-0.1-0.3-0.1-0.5-0.2c0,0.6,0.1,1.2,0.1,1.8S1003.2,660,1003.2,660.6z M1003.2,660.6c0.1,0.6,0.2,1.2,0.3,1.8s0.3,1.2,0.4,1.7
	c0.1,0.4,0.2,0.8,0.3,1.1c0,0,0,0.1,0,0.2l0.3,0.9l0,0c-0.9-2.9-1.3-6-1.3-9c-0.2-0.1-0.3-0.1-0.5-0.2c0,0.6,0.1,1.2,0.1,1.8
	S1003.2,660,1003.2,660.6z M1003.2,660.6c0.1,0.6,0.2,1.2,0.3,1.8s0.3,1.2,0.4,1.7c0.1,0.4,0.2,0.8,0.3,1.1c0,0,0,0.1,0,0.2l0.3,0.9
	l0,0c-0.9-2.9-1.3-6-1.3-9c-0.2-0.1-0.3-0.1-0.5-0.2c0,0.6,0.1,1.2,0.1,1.8S1003.2,660,1003.2,660.6z M1003.2,660.6
	c0.1,0.6,0.2,1.2,0.3,1.8s0.3,1.2,0.4,1.7c0.1,0.4,0.2,0.8,0.3,1.1c0,0,0,0.1,0,0.2l0.3,0.9l0,0c-0.9-2.9-1.3-6-1.3-9
	c-0.2-0.1-0.3-0.1-0.5-0.2c0,0.6,0.1,1.2,0.1,1.8S1003.2,660,1003.2,660.6z M1003.2,660.6c0.1,0.6,0.2,1.2,0.3,1.8s0.3,1.2,0.4,1.7
	c0.1,0.4,0.2,0.8,0.3,1.1c0,0,0,0.1,0,0.2l0.3,0.9l0,0c-0.9-2.9-1.3-6-1.3-9c-0.2-0.1-0.3-0.1-0.5-0.2c0,0.6,0.1,1.2,0.1,1.8
	S1003.2,660,1003.2,660.6z M1003.2,660.6c0.1,0.6,0.2,1.2,0.3,1.8s0.3,1.2,0.4,1.7c0.1,0.4,0.2,0.8,0.3,1.1c0,0,0,0.1,0,0.2l0.3,0.9
	l0,0c-0.9-2.9-1.3-6-1.3-9c-0.2-0.1-0.3-0.1-0.5-0.2c0,0.6,0.1,1.2,0.1,1.8S1003.2,660,1003.2,660.6z M1003.2,660.6
	c0.1,0.6,0.2,1.2,0.3,1.8s0.3,1.2,0.4,1.7c0.1,0.4,0.2,0.8,0.3,1.1c0,0,0,0.1,0,0.2l0.3,0.9l0,0c-0.9-2.9-1.3-6-1.3-9
	c-0.2-0.1-0.3-0.1-0.5-0.2c0,0.6,0.1,1.2,0.1,1.8S1003.2,660,1003.2,660.6z M1002.4,662.4c0.6,3.7,1.9,7.3,3.8,10.5l0,0
	c1.6,2.8,4.1,5,7.1,6.2c0.2,0.1,0.4,0.1,0.5,0.2l0,0c1.4,0.4,2.9,0.6,4.3,0.3c1.2-0.2,2.5-0.6,3.5-1.2c4.5-2.5,7.7-8.3,8.7-15.5
	c1.5-11.7-3.5-23.5-11.1-26.4c-0.2-0.1-0.3-0.1-0.5-0.2l0,0c-0.7-0.2-1.3-0.4-2-0.4c-0.9-0.1-1.8-0.1-2.7,0.1
	c-1.1,0.2-2.2,0.6-3.2,1.2c-4.5,2.5-7.7,8.3-8.7,15.5c-0.1,0.5-0.1,0.9-0.2,1.4c-0.1,0.9-0.1,1.7-0.1,2.6
	C1001.9,658.6,1002,660.5,1002.4,662.4L1002.4,662.4z M1004.8,666.3c-0.9-2.9-1.3-6-1.3-9c0-0.9,0-1.8,0.1-2.8
	c0-0.5,0.1-1.1,0.2-1.6c0.4-3.1,1.3-6.1,2.8-8.9c1.2-2.2,2.9-4.1,5-5.5l0.2-0.1c0.9-0.5,1.9-0.9,3-1.1c0.9-0.1,1.9-0.1,2.8,0.1
	c0.5,0.1,0.9,0.2,1.4,0.4c7.1,2.7,11.7,13.8,10.2,24.9v0.2l0,0c0,0,0,0,0,0.1s0,0,0,0c-0.9,6.6-3.9,11.9-7.9,14.2
	c-1.9,1.1-4.2,1.4-6.4,0.8c-0.3-0.1-0.5-0.1-0.8-0.2c-0.2-0.1-0.4-0.2-0.6-0.3c-0.1,0-0.1,0-0.2-0.1l0,0l0,0
	c-1.7-0.9-3.3-2.1-4.4-3.7c-1.7-2.1-2.9-4.6-3.7-7.1C1004.9,666.6,1004.8,666.4,1004.8,666.3z M1003.2,660.6
	c0.1,0.6,0.2,1.2,0.3,1.8s0.3,1.2,0.4,1.7c0.1,0.4,0.2,0.8,0.3,1.1c0,0,0,0.1,0,0.2l0.3,0.9l0,0c-0.9-2.9-1.3-6-1.3-9
	c-0.2-0.1-0.3-0.1-0.5-0.2c0,0.6,0.1,1.2,0.1,1.8S1003.2,660,1003.2,660.6z M1003.2,660.6c0.1,0.6,0.2,1.2,0.3,1.8s0.3,1.2,0.4,1.7
	c0.1,0.4,0.2,0.8,0.3,1.1c0,0,0,0.1,0,0.2l0.3,0.9l0,0c-0.9-2.9-1.3-6-1.3-9c-0.2-0.1-0.3-0.1-0.5-0.2c0,0.6,0.1,1.2,0.1,1.8
	S1003.2,660,1003.2,660.6z M1003.2,660.6c0.1,0.6,0.2,1.2,0.3,1.8s0.3,1.2,0.4,1.7c0.1,0.4,0.2,0.8,0.3,1.1c0,0,0,0.1,0,0.2l0.3,0.9
	l0,0c-0.9-2.9-1.3-6-1.3-9c-0.2-0.1-0.3-0.1-0.5-0.2c0,0.6,0.1,1.2,0.1,1.8S1003.2,660,1003.2,660.6z M1003.2,660.6
	c0.1,0.6,0.2,1.2,0.3,1.8s0.3,1.2,0.4,1.7c0.1,0.4,0.2,0.8,0.3,1.1c0,0,0,0.1,0,0.2l0.3,0.9l0,0c-0.9-2.9-1.3-6-1.3-9
	c-0.2-0.1-0.3-0.1-0.5-0.2c0,0.6,0.1,1.2,0.1,1.8S1003.2,660,1003.2,660.6z M1003.2,660.6c0.1,0.6,0.2,1.2,0.3,1.8s0.3,1.2,0.4,1.7
	c0.1,0.4,0.2,0.8,0.3,1.1c0,0,0,0.1,0,0.2l0.3,0.9l0,0c-0.9-2.9-1.3-6-1.3-9c-0.2-0.1-0.3-0.1-0.5-0.2c0,0.6,0.1,1.2,0.1,1.8
	S1003.2,660,1003.2,660.6z M1003.2,660.6c0.1,0.6,0.2,1.2,0.3,1.8s0.3,1.2,0.4,1.7c0.1,0.4,0.2,0.8,0.3,1.1c0,0,0,0.1,0,0.2l0.3,0.9
	l0,0c-0.9-2.9-1.3-6-1.3-9c-0.2-0.1-0.3-0.1-0.5-0.2c0,0.6,0.1,1.2,0.1,1.8S1003.2,660,1003.2,660.6z M1003.2,660.6
	c0.1,0.6,0.2,1.2,0.3,1.8s0.3,1.2,0.4,1.7c0.1,0.4,0.2,0.8,0.3,1.1c0,0,0,0.1,0,0.2l0.3,0.9l0,0c-0.9-2.9-1.3-6-1.3-9
	c-0.2-0.1-0.3-0.1-0.5-0.2c0,0.6,0.1,1.2,0.1,1.8S1003.2,660,1003.2,660.6z"/>
<path class="st4" d="M1004.4,657.5c0.4-0.1,0.8-0.3,1-0.7c0.3-0.6,0.1-1.4-0.5-1.7c0,0,0,0-0.1,0c-0.2-0.1-5.2-2.7-12.2,0
	c-0.7,0.2-1,1-0.8,1.6c0,0,0,0,0,0.1c0.3,0.7,1.1,1,1.8,0.7c5.8-2.2,9.8-0.1,9.8-0.1C1003.8,657.5,1004.1,657.5,1004.4,657.5z"/>
<path class="st4" d="M954.8,611.6c0,0-8.3-28.4-34.6-21.1s-18.5,20.9-15.5,29.7c2.2,6.5,14.8,15.6,27.7,12.8
	S954.8,611.6,954.8,611.6z"/>
<path class="st18" d="M996.3,684.5c-3.2-0.1-6.4-0.8-9.3-2c-0.2-0.1-0.3-0.4-0.2-0.6c0.1-0.2,0.3-0.3,0.5-0.2l0,0
	c0.1,0.1,11,4.8,15.7-0.6c0.2-0.2,0.4-0.2,0.6,0l0,0c0.2,0.2,0.2,0.4,0,0.6l0,0C1001.8,683.8,999,684.5,996.3,684.5z"/>
<path class="st19" d="M994.3,723.3c0,0,9.6,22.2-12.4,22.8c0,0,11.6,11,19.7,6.6s0.3-8.4,3.8-11.3s7.2-5.1,3.8-8.5s0-9.5,0-9.5
	S999.6,721.2,994.3,723.3z"/>
<ellipse class="st19" cx="1005.4" cy="778.6" rx="3.5" ry="3.3"/>
<path class="st19" d="M1016.5,884.6c-0.1-1.9,1.4-3.5,3.3-3.6c1.9-0.1,3.5,1.4,3.6,3.3s-1.4,3.5-3.3,3.6c-0.1,0-0.1,0-0.2,0
	C1018.1,888,1016.5,886.5,1016.5,884.6z"/>
<path class="st19" d="M1016.5,836.6c-0.1-1.9,1.4-3.5,3.3-3.6c1.9-0.1,3.5,1.4,3.6,3.3s-1.4,3.5-3.3,3.6c-0.1,0-0.1,0-0.2,0
	C1018.1,839.9,1016.5,838.4,1016.5,836.6z"/>
<path class="st19" d="M944.4,730.8l-15.7,2.9c0,0-2.8,7.8,4.9,10.2s9.2,2.5,11.7,8.1s12,5.9,15.4,3.9s9.3,5.4,14.7,5.4
	s8.7-9.2,6.6-15.3C981.9,746.1,961.4,742.8,944.4,730.8z"/>
<path class="st16" d="M1023.4,1001.1c0,0-73.5,290.5-193.2,392.3c-11.6,9.8-28,11.6-41.4,4.4l-21.2-11.3
	c-14.5-7.8-20-25.9-12.3-40.5c31.8-60.1,107.4-212.3,133-345.7L1023.4,1001.1z"/>
<path class="st4" d="M946.4,1221.5l-1.4-0.6c0.3-0.8,31.8-77.5,42.8-121c11.1-43.9,46.8-59.3,47.2-59.4l0.6,1.4
	c-0.4,0.2-35.5,15.3-46.3,58.4C978.3,1143.9,946.7,1220.7,946.4,1221.5z"/>
<path class="st20" d="M1027.1,1062.2l-0.4-1c17.4-6,26.7-40.1,23.6-53c-3.2-13.4,13.4-23.3,14.1-23.7l0.6,1
	c-0.2,0.1-16.6,10-13.6,22.5C1054.6,1021.2,1044.9,1056,1027.1,1062.2z"/>
<path class="st20" d="M1060.4,977.2c0,0-19.7-13.1-31.5-0.9s1.5,35.5-23.2,38.7s-31.4,25.4-26.6,34.7s24.3,19.1,40,9.2
	s27.9-34.6,27.1-50.7s16.6-18,16.3-24.5S1060.4,977.2,1060.4,977.2z"/>
<path class="st7" d="M971.2,982.8l30.3-3.8l-19-0.3l19,0.2c-0.6,13.9,2.6,50.9,22.6,68.9c8.6,7.7,15,11.5,33.6,13.8
	c2.1,0.3,10.9,5.6,12.4,7.1c2.8,3,0.2,3.2,1.3,16.8c0.8,9.6-7.2,11.8-7.2,11.8C963,1089.9,971.2,983.5,971.2,982.8z"/>
<path class="st20" d="M1087,959.9c0,0-39.7-0.6-35.8,43.5c3.8,42.5,53.2,50.9,72.3,33.3C1144.3,1017.7,1151.5,939.1,1087,959.9z"/>
<path class="st7" d="M1221.9,949.1l-28.4,1.9c-1,16.7-9.2,43.3-31.5,76.8c-3.4,5-29.5,35.2-26.5,46.7l25,11
	C1214,1058.8,1222.1,949.7,1221.9,949.1z"/>
<path class="st7" d="M1150.6,1324.5c-4.4,12.4-8.6,24.8-12.7,36.7c-12.1,35.5-22.5,66.2-30,79.7c-5.9,10.8-24,5.7-19-6.7
	c1.4-27.8,4.4-55.5,9-83c2.2-13,4.8-26.8,8-40.9C1114.4,1273.5,1162.4,1291,1150.6,1324.5z"/>
<path class="st7" d="M1095.8,1303.3c-14.4,9.6-28.6,19.3-41.8,28.3c-26.6,18.1-49.1,33.2-61.6,38.8c-11.2,5-22.6-10.1-11.2-16.9
	c15.6-18.8,32.2-36.8,49.6-53.9c11.3-11.2,24.1-23,37.9-34.7C1097.4,1240.6,1125.1,1283.8,1095.8,1303.3z"/>
<path class="st6" d="M1174.4,1320.2c27.1-71.2,3.5-231.6,3.5-231.6c10.2-27.2-21-54.5-21-54.5c-10.7,10.2-21.4,22.2-31.4,24.9
	c-8,2.2-24.5,2.7-31.4,4c-12.1,2.3-48.8-3.5-48.8-3.5c0.5,29.1,20,53.2,20,53.2c8.6,103.7-56,145.9-55.9,169.6
	C1009.7,1322.7,1163.7,1348.2,1174.4,1320.2z"/>
<path class="st7" d="M1094.1,1062.9c8.8-4.3,6.1-21.2,6.1-21.2l0.1-4.4l0.3-25.8l8.4,22.4l5.1,13.5l1.4,3.8c1.2,3.1,5.4,7.8,10,7.6
	c0,0,0.6,7.1-12.4,10.9C1103.4,1072.8,1094.1,1062.9,1094.1,1062.9z"/>
<path class="st21" d="M1099.9,1041.4l0.2,0.3c3.9,6.7,14.6,7.6,14.6,7.6l-0.7-1.9l-5.1-13.5c-3,0.4-7.1,1.3-8.8,3.3
	C1099.2,1038.5,1099.1,1040.2,1099.9,1041.4z"/>
<ellipse class="st7" cx="1105.9" cy="1012.4" rx="33.1" ry="33.6"/>
<path class="st13" d="M1103.9,1008.5c0.3-0.3,0.3-0.7,0.1-1c-0.1-0.2-0.3-0.3-0.6-0.2c-3.4,0-6.4,2.4-7.2,5.7
	c-0.1,0.4,0.1,0.8,0.4,0.9c0.4,0.1,0.7-0.1,0.9-0.4c1.4-2.2,3.5-3.9,6-4.8C1103.7,1008.7,1103.8,1008.6,1103.9,1008.5z"/>
<path class="st13" d="M1127.7,1001c0.2-0.1,0.4-0.2,0.4-0.4c0.1-0.4-0.1-0.8-0.4-0.9c-3.2-1.3-6.8-0.3-8.8,2.5
	c-0.2,0.3-0.2,0.7,0.1,1c0.3,0.2,0.7,0.2,1-0.1c2.1-1.5,4.7-2.2,7.3-2.1C1127.4,1001.1,1127.6,1001.1,1127.7,1001z"/>
<path class="st20" d="M1106.4,973.7c0,0,26.3,1,30.7,18.8c2.7,10.9-11.4-6.7-15-1.1s-11.2-8.6-20.7-5.4s5.3,19.6-17.1,21.3
	c-7.8,0.6-2.7,20-18.5,12.1C1062.8,1017.9,1074.2,970.8,1106.4,973.7z"/>
<ellipse transform="matrix(0.4082 -0.9129 0.9129 0.4082 -297.4865 1585.265)" class="st7" cx="1073.9" cy="1022.1" rx="6.9" ry="8.6"/>
<path class="st4" d="M992.4,1370.3c0,0-9.8,3.8-14.5,20.4c-2.3,8.3-3.1,23-11.3,20.9c-5-1.3-3.7-19.9-4.7-26.2
	c-1.5-9.3-7.5-13.2-5.9-20c0.8-3.6,7.1-4.6,13-6.7c4.2-1.5,8.3-3.3,12.2-5.3c0.4,3.4,1.5,6.6,3.3,9.5
	C988.7,1368.7,992.4,1370.3,992.4,1370.3z"/>
<path class="st4" d="M1112.5,1431.2c0,0-6,12.9,3,27.5c4.5,7.3,16.9,11.4,9.8,16.1c-4.3,2.9-19.1-4.3-24.4-7.8
	c-7.8-5.1-14.7-3.3-18.7-9c-2.1-3,0-8,2.5-13.7c2.6-6.2,4.5-15.8,4.5-15.8s6.4,3.9,11.3,4.5
	C1104.5,1433.5,1108.7,1432.9,1112.5,1431.2z"/>
<path class="st14" d="M1106.4,1028.2c0,0,13.6-0.7,21.1-7.8c0,0,0,8.5-7.4,10.8S1106.4,1028.2,1106.4,1028.2z"/>
<path class="st13" d="M1102.9,1018.1c-0.8-1.7-0.5-3.4,0.6-4s2.7,0.3,3.5,2s0.5,3.5-0.6,4S1103.7,1019.8,1102.9,1018.1z"/>
<path class="st13" d="M1120.6,1009.8c-0.1-1.8,0.8-3.4,2.1-3.5s2.3,1.4,2.4,3.2s-0.8,3.4-2.1,3.4S1120.7,1011.6,1120.6,1009.8z"/>
<path class="st20" d="M1109.9,961.3c0,0,13.7-13.7,7-22.8s-32.2,6.1-35.9-12.5s-25.7-23.1-33.8-7.1s11,40.9,29,35.7
	S1113.4,949,1109.9,961.3z"/>
<path class="st20" d="M1112.4,959.3l-0.5-1c0.1,0,9.5-5.3,11.2-12c0.6-2.3,0.2-4.7-1.2-6.7c-2.9-4.5-9.7-5-16.1-5h-4.3
	c-5.9,0-11.1-0.4-11.9-4.5c-1.7-8.9-3.4-15.9-8.8-18l0.4-1c5.9,2.3,7.7,9.6,9.5,18.8c0.6,3.3,5.1,3.7,10.7,3.7c1.4,0,2.9,0,4.4,0
	c6.7,0,13.8,0.5,17,5.5c1.5,2.2,2,4.9,1.3,7.5C1122.3,953.8,1112.8,959.1,1112.4,959.3z"/>
<ellipse class="st14" cx="1141.2" cy="1259.6" rx="7.8" ry="8"/>
<ellipse class="st14" cx="1156.9" cy="1306.7" rx="7.8" ry="8"/>
<ellipse class="st14" cx="1052.2" cy="1269.2" rx="7.8" ry="8"/>
<ellipse class="st14" cx="1091.5" cy="1240.9" rx="7.8" ry="8"/>
<ellipse class="st14" cx="1149.1" cy="1208.8" rx="7.8" ry="8"/>
<ellipse class="st14" cx="1086.6" cy="1186.9" rx="7.8" ry="8"/>
<ellipse class="st14" cx="1145.1" cy="1163" rx="7.8" ry="8"/>
<ellipse class="st14" cx="1106.4" cy="1135.7" rx="7.8" ry="8"/>
<ellipse class="st14" cx="1150.7" cy="1102.6" rx="7.8" ry="8"/>
<ellipse class="st14" cx="1098.5" cy="1303.8" rx="7.8" ry="8"/>
<path class="st7" d="M967.4,970.7c0.3,1.2,0.5,2.3,0.7,3.1c0.1,0.6,0.3,1.2,0.6,1.7c1.5,5.4,3.7,10.6,6.4,15.5l12-5.5
	c0.3,0.6,0.7,1.2,1.3,1.6c1.8,1.2,8.2,3.6,9.2,1.7c2.4-4.4,5.1-14,7.4-18.4c1-1.9,3.9-8.6,2.1-9.8c-1.5-1.1-6.4,3.1-8.4,5.4
	c-1.8-14-10.8-33.7-9.1-4h-0.1c-0.4-3-2.9-19.6-6.7-17.4c-3.3,1.9-2.1,13.9-1.4,18.8h-0.1c-1.1-4.9-4.2-16.8-6.7-14
	c-3.2,3.6-2.2,16.7-2.2,16.7s-1.8-16.8-6-13.1c-2.4,2.1-0.4,11.6,1,17.4l0,0V970.7z"/>
<path class="st7" d="M1224.2,941c-0.3,1.2-0.5,2.3-0.7,3.1c-0.1,0.6-0.3,1.2-0.6,1.7c-1.5,5.4-3.7,10.6-6.4,15.5l-12-5.5
	c-0.3,0.6-0.7,1.2-1.3,1.6c-1.8,1.2-8.2,3.6-9.2,1.7c-2.4-4.4-5.1-14-7.4-18.4c-1-1.9-3.9-8.6-2.1-9.8c1.5-1.1,6.4,3.2,8.4,5.4
	c1.8-14,10.8-33.7,9.1-4l0,0c0.4-3,2.9-19.6,6.7-17.4c3.3,1.9,2.1,13.9,1.4,18.8h0.1c1.1-4.9,4.2-16.8,6.7-14
	c3.2,3.6,2.2,16.7,2.2,16.7s1.8-16.8,6-13.1c2.4,2.1,0.4,11.6-1,17.5l0,0L1224.2,941z"/>
<path class="st22" d="M937,924.1c7.5-0.7,22.9,1.2,30.5,0.6c3.3-0.2,14.4-0.3,15.4,2.8c0.9,2.8-7.5,7-11.8,8.5
	c24.7,13.2,52.1,39.2,1.7,15.1v0.1c4.2,2.4,35.5,19,30.3,24.6c-3.8,4.1-29.1-10.3-36.1-14.2l-0.1,0.2c6.8,4.5,27.8,17.1,24.4,21.2
	c-4.5,5.4-31.1-11.6-31.1-11.6s22.4,13.6,15.1,17.3c-4.1,2.1-17.2-6.4-25.2-11.7l0,0c-1.7-1.1-3.2-2.1-4.3-2.8
	c-0.8-0.5-1.6-1.2-2.3-1.9c-13-9.8-19.8-18-19.8-18s-9.7-8.4-3.7-19.9C923.6,926.8,933.7,924.4,937,924.1z"/>
<path class="st10" d="M928.7,733.7c0,0-56.9,6.8-99.1,75.6s-36.2,115.1-17,128.7c19.2,13.6,95.7,34.7,124.8,24.9s12.9-43.3,8.8-53.8
	S892.3,874,893.4,869s28.9-74.9,28.9-74.9L928.7,733.7z"/>
<path class="st4" d="M920.9,966.7c-23.2,0-59.2-9.3-61.2-9.8c-0.3-0.1-0.5-0.4-0.4-0.7s0.3-0.5,0.6-0.4c0,0,0,0,0.1,0
	c0.6,0.2,63.8,16.4,77,6.6c0.3-0.1,0.6-0.1,0.7,0.2c0.1,0.2,0.1,0.5-0.1,0.7C934.4,965.8,928.3,966.7,920.9,966.7z"/>
<path class="st4" d="M951.4,924.9c-0.3,0-0.5-0.2-0.5-0.5c-0.1-12.9-43.2-42.9-52.4-46c-3.6-1.2-4.4-1.9-4.7-2.6
	c-0.1-0.6,0-1.3,0.5-1.7c0.6-1,1.3-2-1.2-4.6c-0.7-0.7-1-1.7-0.9-2.7c0.6-8.3,24.5-26.5,25.5-27.3c0.2-0.2,0.6-0.1,0.8,0.1
	c0.2,0.2,0.1,0.6-0.1,0.8c-0.2,0.2-24.5,18.7-25.1,26.5c-0.1,0.7,0.1,1.4,0.6,1.9c2.9,2.9,2.2,4.5,1.3,6c-0.2,0.3-0.4,0.6-0.3,0.8
	c0.1,0.3,0.9,0.9,4,1.9c10.3,3.4,53.1,33.6,53.2,47C951.9,924.7,951.7,924.9,951.4,924.9L951.4,924.9L951.4,924.9z"/>
<path class="st5" d="M619.8,186.1l231.3-1.2c4.8,0,8.7,3.9,8.7,8.7c0,1.3-0.3,2.7-0.9,3.9L822.6,270c-1.5,2.9-4.5,4.8-7.8,4.8H620.2
	c-6.4,0-9.7-6.1-10-16.2l1.9-67.7C613.6,188,616.6,186.2,619.8,186.1z"/>
<path class="st19" d="M675.5,200.9H831c3.4,0,6.2,2.8,6.2,6.2c0,1.1-0.3,2.1-0.8,3l-27.5,49.5c-2.4,4.3-6.9,6.9-11.8,6.9H639.8
	c-2.8,0-5.2-2.3-5.2-5.2c0-0.9,0.2-1.7,0.7-2.5l28.4-51.1C666.1,203.6,670.6,200.9,675.5,200.9z"/>
<path class="st5" d="M1962.4,186.1l-231.3-1.2c-4.8,0-8.7,3.9-8.7,8.7c0,1.3,0.3,2.7,0.9,3.9l36.3,72.5c1.5,2.9,4.5,4.8,7.8,4.8
	H1962c6.4,0,9.7-6.1,10-16.2l-1.9-67.7C1968.6,188,1965.7,186.2,1962.4,186.1z"/>
<path class="st19" d="M1906.7,200.9h-155.5c-3.4,0-6.2,2.8-6.2,6.2c0,1.1,0.3,2.1,0.8,3l27.5,49.5c2.4,4.3,6.9,6.9,11.8,6.9h157.3
	c2.8,0,5.2-2.3,5.2-5.2c0-0.9-0.2-1.7-0.7-2.5l-28.4-51.1C1916.1,203.6,1911.6,200.9,1906.7,200.9z"/>
</svg>
