<?xml version="1.0" encoding="utf-8"?>
<!-- Generator: Adobe Illustrator 25.0.0, SVG Export Plug-In . SVG Version: 6.00 Build 0)  -->
<svg version="1.1" id="Layer_1" xmlns="http://www.w3.org/2000/svg" xmlns:xlink="http://www.w3.org/1999/xlink" x="0px" y="0px"
	 viewBox="0 0 2826.4 1763.8" style="enable-background:new 0 0 2826.4 1763.8;" xml:space="preserve">
<style type="text/css">
	.st0{fill:#FBFBFDff;}
	.st1{fill:#A4F7FA;}
	.st2{fill:#93EBFB;}
	.st3{fill:#300B39;}
	.st4{fill:#FDAB74;}
	.st5{fill:#F68E4F;}
	.st6{fill:#2AABBE;}
	.st7{fill:#1E90A4;}
	.st8{fill:#39608D;}
	.st9{fill:#303876;}
	.st10{fill:#F87204;}
	.st11{fill:#33468B;}
	.st12{fill:#283968;}
	.st13{fill:#F9B806;}
	.st14{fill:#1F5593;}
	.st15{fill:#0D3563;}
	.st16{fill:#FA7205;}
	.st17{fill:#F5492D;}
	.st18{fill:#D0301A;}
	.st19{fill:#18BDDE;}
	.st20{fill:#323949;}
</style>
<g id="Слой_2">
	<path class="st0" d="M114.8,1645.3c63,60.7,142.7,87.5,768.4,73.8c507.9-11.1,553.2-30.8,811.4-31.5
		c737.3-1.8,906.6,158.1,1044.7,19.6c199.5-200.2,18.1-706.3-163.8-1213.9c-89.4-249.6-137.9-304.2-169.4-334.6
		C2209.4-31.2,1978.9,51.5,1309.2,35.9c-621.2-14.4-759.2-93.4-936,42.4C219.9,195.9,179.6,365.9,102.1,692.4
		C12.6,1069.7-79.6,1457.9,114.8,1645.3z"/>
</g>
<g id="Layer_1_1_">
	<rect x="637" y="177.3" class="st1" width="1551.9" height="1413.1"/>
	<path class="st2" d="M1645.5,1405h-0.2c-0.9-0.2-4.9-1.5-7.5-7.9c-1.8-4.2-2.3-7.6-3.9-11.7l-6.5-11.3c-6.8-9-9.2-6.9-9.2-6.9
		s-1.8,2.3-4.4,5.3c-4.4,5-11.1,12-15.8,13.7c-2.8,1-5.1,2.8-6.8,5.3c-1,1.4-1.6,3-2,4.6l0,0c-26.1-49.8-108.7-122.1-136.9-137.8
		c-14.4-8.1-12.1-39.2-9-77.6c2.2-26.1,4.8-55.5,2.8-83.5c11.3-2.6,17.8-4.7,17.8-4.7s-14.7-62-23.8-92.1
		c-8.4-27.8-37.2-89.7-41.6-99c0-0.2,0-0.4,0.1-0.7l1.6-13.2c0-0.1,0.1-0.2,0.1-0.3c5.4-5.5,10.4-11.2,15.2-17.2c0,0,0.3,2.4,1,6.4
		c3.4,22.3,35.8,40.6,47.4,42.3c26.6,3.9,42.9-3.6,55-16.4c2.6-2.8,5.1-5.8,7.3-8.9c39.6,2.9,80.9,3.4,80.9,3.4s10.4,0.6,19.8,1.9
		s15.2-1.2,16.9-3.3s11.3-3.8,11.1-6.5s-15.7,0.8-18.6,0s6.7-7.9,11.7-8.8s23.8-12.5,23.8-14.2s-17.5-1.3-28,0s-36.7,14.2-36.7,14.2
		l-68.6-17.7c0.6-7.6-0.9-14.3-4.4-19.3c-13.6-19.3-47.8-7.1-71.1-72.3c0,0,0-0.1,0-0.1c-12.4-34.8-22.3-61-23.4-63
		c-2.9-5.6-37.4-12.5-43.8-12.8c-4.6-0.3,4-20-4.2-22.2c-1.7-0.4-3.6-0.3-5.3,0.2c-0.1-1.1-0.2-2.2-0.2-3.3
		c3.7,1.2,7.4,2.2,11.2,2.9c-0.7-1.3-0.6-5-0.6-5c0.2,2.4,3.7,4.9,3.7,4.9c2.7,0.7,9-0.5,9-0.5s-5.8-1.5-7.9-12.4
		c7.5-8.9,15-24.5,20.3-38.4l0,0c0,0,20.2-26.5,10.8-47c-4.3-9.4-9.3-12-13.5-12c-0.6-0.7-1.1-1.4-1.6-2
		c-6.7-7.5-14.9-13.4-24.2-17.3l-1-0.4c-4.6-2.5-9.4-4.4-14.5-5.5c-59-29.4-95.4,84-87.9,93.5s30.1,14.6,30.1,14.6
		c-0.7-1.5-1.2-3-1.5-4.6c2.7,3.8,10.5,6.8,17.5,8.8c-0.7,3-1.5,6.2-2.3,9.2c-0.9,3.4-2.4,8.6-4.1,14.2l-0.7-0.2
		c-3.6-1.2-7.9,5.2-7.3,8.9c0.7,4.4-1.9,11.3-4.5,13.6c0,0-41.5,7.8-47.9,20c-1.6,3.1-2.6,12.8-3.3,25.9c-4.3,10.2-4.5,37-3.1,66.2
		c-1.5,24-4,44.4-9,49.1c-2.7,2.5-19.5,2.6-19.5,2.6c-17.5-9.7-38.1-22.2-46.7-31.5c0.3-8.2,0.4-23.1-2.4-26.4
		c-3.9-4.5-19.7-18.1-22.7-17.2s8.8,20.3,8.1,25.9c-0.3,2.1-0.8,5.6-1.1,9.6c-2.3-2.4-5.7-6-7.1-6.2c-2.1-0.4-3.9-1.1-1,2.8
		s9.5,18.3,9.5,18.3l0,0c0.5,1.5,1.2,2.9,2,4.3l-0.4,0.4c0,0,29.7,42,65.5,69.6c3.6,11.7,10,22.9,20.8,30.1
		c-2.5,8.1-5.4,17.6-8.7,28.6c-13.2,43.1-8.6,125.8-8.6,125.8c2.6,1,5.2,1.9,7.9,2.8c1.6,18.1,3.6,41,5.9,65.3
		c0.9,10.1,1.9,20.5,2.9,31c0.3,3,0.6,6,0.9,9c5.9,59.6,12.5,118,17.1,131.7c8.1,24.3,33.8,154.2,43.4,203.3c-0.2,0-0.4,0.1-0.6,0.2
		l-0.1,0.1c0,0-13.2,23.6-15.9,31.2c-4.8,13.5-17.8,11.3-22.2,15.6c-1.8,1.7-5.5,11-3.3,12.1l46.1-0.4c0,0,4.6,0.8,7.8-12.3
		c0.2-0.9,4.7-5.7,11.1-8.2c4.2-1.6,7.7-2,11.8-3.5l11.5-6.2c9.2-6.6,7.2-9,7.2-9s-2.2-1.9-5.2-4.6c-4.9-4.5-11.6-11.4-13.3-16.2
		c-0.9-2.8-2.7-5.2-5.1-6.9c-1.3-0.9-2.8-1.7-4.3-2.1c3.1-35.3,15.9-190.1-0.6-211.8c-4.5-5.9-3.7-20.1-0.3-39.2
		c2.2-12.3,5.6-26.6,9.3-42c10.1,35.6,20.3,64.1,28.4,70.3c25.1,19.2,218.8,119.3,218.8,119.3l0,0c0,0,24,12.5,31.6,15
		c13.6,4.4,20.8,13.6,25.2,17.9c1.8,1.7,4.3,2.5,6.7,2.1c3.6-0.6,8.3-1.7,9.3-3.9L1645.5,1405z"/>
	<path class="st3" d="M1468.2,603.6c0,0-28.2,16.6-10.9,48.8c0,0-24.7-4.5-30-11.9c0.3,1.6,0.8,3.1,1.5,4.6c0,0-22.7-5.1-30.1-14.6
		s29-122.8,87.9-93.5c0,0,53.9,10,32.8,69.9s-1.2,65.1-1.2,65.1s-6.3,1.3-9,0.5c0,0-3.5-2.5-3.7-4.9c0,0-0.1,3.6,0.6,5
		c0,0-22.1-3.7-30.7-14.6S1461.8,615.4,1468.2,603.6z"/>
	<path class="st4" d="M1427.5,699.9h-0.1C1427.3,700,1427.3,699.9,1427.5,699.9z"/>
	<path class="st4" d="M1496,680.2c0.8,7.4,1.8,14.1,2.3,17.2c1,7.1-66.5,2.5-70.8,2.5c3-1.3,12.1-30.3,15-41.4
		c3.5-13.4,6.3-27.9,6.3-27.9l47.6,3l2.8,0.2c-1.6,6-2.9,12.1-3.9,18.3c-0.1,0.8-0.2,1.5-0.3,2.3
		C1494.2,660.7,1495,671.1,1496,680.2z"/>
	<path class="st3" d="M1442.3,625.8c0,0-7.7-24.5-6.2-43.3c1.1-13.4,20.2-59.1,66.1-39.7c9.2,3.9,17.5,9.8,24.2,17.3
		c8.5,9.7,19.5,28.8-8.2,65.8l-8,12.8L1442.3,625.8z"/>
	<path class="st5" d="M1496,680.2c-33.3-9.8-47.5-48.2-47.5-48.2c14.1,0.4,32.5,10.2,46.9,20.1c-0.1,0.8-0.2,1.5-0.3,2.3
		C1494.2,660.7,1495,671.1,1496,680.2z"/>
	<path class="st4" d="M1498.4,666.7c0,0-60.2-14.9-50.3-52.2s8.7-64.4,47.5-56.5s42.5,24.1,42.3,37.4S1514.3,669.6,1498.4,666.7z"/>
	<path class="st3" d="M1523.1,564.3c0,0-28,39.5-54.9,39.3s-36-9.8-36-9.8s23.4-10.2,34.5-36
		C1466.7,557.8,1516.3,540.2,1523.1,564.3z"/>
	<path class="st3" d="M1518.1,566.8c0,0,9.7,13,10.1,23.3s-3.4,30.2,2.5,31.1c0,0,20.2-26.5,10.8-47
		C1531.6,552.4,1518.1,566.8,1518.1,566.8z"/>
	<path class="st3" d="M1520,568.9c0,0-23.8,42.8-59.5,49c0,0,39.2-19.8,49.9-49.3S1520,568.9,1520,568.9z"/>
	<path class="st1" d="M1489,642.8c0,0,0.8,5.7,4.4,7s13.2,3.8,14.2,3.2s4.6-5,4.6-5S1497,642.1,1489,642.8z"/>
	<path class="st4" d="M1466.5,1213.9c-0.8,3.2-1.5,6.3-2.3,9.5c-4.5,18.8-8.8,36.3-11.4,51c-3.5,19-4.3,33.2,0.3,39.2
		c18.7,24.5,0,219,0,219l-21.3,21.9c0,0-37-192-47-222.1c-4.6-13.7-11.2-72.1-17.1-131.7c-0.3-3-0.6-6-0.9-9c-1-10.4-2-20.8-2.9-31
		c-5.3-56.4-9.2-104.7-9.2-104.7s39.2-27.6,74.9-30.6c21-1.8,40.7,4.8,50.5,30.6C1494.3,1093.5,1479.9,1158.3,1466.5,1213.9z"/>
	<path class="st5" d="M1466.5,1213.9c-29.1-21-70.1-58.5-85-119.9c-2.8-30.5,21.2-59.5,48.1-68.7c21-1.8,40.7,4.8,50.5,30.6
		C1494.3,1093.5,1479.9,1158.3,1466.5,1213.9z"/>
	<path class="st4" d="M1572.8,843l143.2,37v16.7c0,0-142.5-1.7-151.7-17.5S1572.8,843,1572.8,843z"/>
	<path class="st4" d="M1716,1394.3l-6.7,27.6c0,0-193.7-100.1-218.8-119.3c-10.1-7.7-23.4-49.7-35.7-97.1
		c-18.4-70.7-34.5-153.6-34.5-153.6s27.2-104.4,99.9-40.5c43.5,38.2,36.7,112,32,169.3c-3.2,38.5-5.5,69.6,9,77.6
		c28.1,15.7,110.7,88.1,136.9,137.8L1716,1394.3z"/>
	<path class="st4" d="M1387.4,930c-50.6-12.9-106.2-91.4-106.2-91.4l14.2-12.4c14.8,17.4,76.1,47.3,76.1,47.3
		c-0.3-15.9,0.1-30.4,1.1-43.6c6.8-89.8,40.7-119.7,49.9-126.3c0.7-0.5,1.5-1.1,2.3-1.5c0,0,0,0.7,0.1,1.9c0.1,2.7,0.4,8,0.6,15.4
		C1427.4,774.4,1429.6,940.7,1387.4,930z"/>
	<path class="st6" d="M1427.4,822.2c-2.6,64.1-12.2,127.5-40.1,123.4c-34.2-5-43.1-36.9-44.9-60.6c-0.7-8.8-0.5-17.6,0.5-26.3
		c0,0,16.8-0.1,19.5-2.6c12.9-11.9,9.1-129,15.5-141.1s47.9-20,47.9-20S1430,758.9,1427.4,822.2z"/>
	<path class="st7" d="M1427.4,822.2c-2.6,64.1-12.2,127.5-40.1,123.4c-34.2-5-43.1-36.9-44.9-60.6c8.4-0.4,23.2-2.5,29-11.4
		c8.4-12.8,34.6-95.3,34.6-95.3S1416.4,796.8,1427.4,822.2z"/>
	<path class="st6" d="M1643.1,843c9.3,13.2,4.2,38.7-15.3,59.2c-12.1,12.8-28.4,20.3-55,16.4c-11.6-1.7-44-20-47.4-42.3
		c-0.6-4-1-6.4-1-6.4s-14.8,14.8-15.3,17.6c-0.2,1.3-1.5,12.4-1.7,13.9c-0.2,1.8,1.1,8.6,1.1,8.6s-70.5,30.8-128.7-4.3
		c0,0-16.6-142.3-4.7-166c5.9-11.8,39.2-34.7,50.8-44.8c2.6-2.3,5.2-9.1,4.5-13.6c-0.6-3.7,3.7-10,7.3-8.9c7,2.2,26.7,12,40.5,8.3
		c6.9-1.8,15.7-9.8,22.4-8c8.2,2.2-0.5,21.9,4.2,22.2c6.4,0.3,40.9,7.2,43.8,12.8c1,1.9,10.9,28.2,23.4,63c0,0,0,0.1,0,0.1
		C1595.3,836,1629.5,823.7,1643.1,843z"/>
	<path class="st7" d="M1524.4,869.9c0,0-1.7-54.3-6.1-53.6s-67.7,61.6-52.6,86S1524.4,869.9,1524.4,869.9z"/>
	<path class="st8" d="M1572.8,1092.6c0,0-24.4,7.5-60.3,12.5c-44.5,6.2-106.7,8.4-162.3-12.5c0,0-4.6-82.7,8.6-125.8
		s19.3-63.7,19.3-63.7s52.7,13.2,106.3,3c7.6-1.4,15.1-3.4,22.5-5.8c0,0,33,70.2,42.1,100.2S1572.8,1092.6,1572.8,1092.6z"/>
	<path class="st9" d="M1572.8,1092.6c0,0-24.4,7.5-60.3,12.5c-65.9-37.4-33.8-194.6-33.8-194.6c2-1.6,3.9-3,5.7-4.4
		c7.6-1.4,15.1-3.4,22.5-5.8c0,0,33,70.2,42.1,100.2S1572.8,1092.6,1572.8,1092.6z"/>
	<path class="st3" d="M1434.1,918.6c-39.1,0-55.2-13.4-56.4-14.4l-2.5-18.4c0.4,0.3,52.8,31.8,133.9,1.6l-1.7,13.9
		C1476.2,913,1454.4,918.6,1434.1,918.6z"/>
	<path class="st4" d="M1716,880c0,0,26.3-12.9,36.7-14.2s28-1.7,28,0s-18.8,13.3-23.8,14.2s-14.6,7.9-11.7,8.8s18.4-2.7,18.6,0
		s-9.4,4.4-11.1,6.5s-7.5,4.6-16.9,3.3s-19.8-1.9-19.8-1.9L1716,880z"/>
	<path class="st8" d="M1716,1394.3l-6.7,27.6c0,0-193.7-100.1-218.8-119.3c-10.1-7.7-23.4-49.7-35.7-97.1
		c16.5,3.4,52.2,5.2,97.3-24.8c-3.2,38.5-5.5,69.6,9,77.6c28.1,15.7,110.7,88.1,136.9,137.8L1716,1394.3z"/>
	<path class="st3" d="M1754.3,1405h-0.2c-0.9-0.2-4.9-1.5-7.5-7.9c-1.8-4.2-2.3-7.6-3.9-11.7l-6.5-11.3c-6.8-9-9.2-6.9-9.2-6.9
		s-1.8,2.3-4.4,5.3c-4.4,5-11.1,12-15.8,13.7c-2.8,1-5.1,2.9-6.8,5.3c-1,1.4-1.6,3-2,4.6c0,0,14,2.4,12.8,9.4
		c-2.4,13.4-1.8,15.8-1.6,16.3l0.1,0.1c0,0,24,12.5,31.6,15c13.6,4.4,20.8,13.6,25.2,17.9c1.8,1.7,4.3,2.5,6.7,2.1
		c3.6-0.6,8.3-1.7,9.3-3.9L1754.3,1405z"/>
	<path class="st9" d="M1453.1,1313.5c18.7,24.5,0,219,0,219l-21.3,21.9c0,0-37-192-47-222.1c-4.6-13.7-11.2-72.1-17.1-131.7
		c17.7,7.9,61,25.1,96.5,22.8c-4.5,18.8-8.8,36.3-11.4,51C1449.4,1293.4,1448.5,1307.5,1453.1,1313.5z"/>
	<path class="st3" d="M1474.5,1564.1l-11.5,6.2c-4.2,1.5-7.6,1.9-11.8,3.5c-6.4,2.4-10.9,7.3-11.1,8.2c-3.2,13.2-7.8,12.3-7.8,12.3
		l-46.1,0.4c-2.2-1.1,1.5-10.4,3.3-12.1c4.4-4.3,17.4-2.1,22.2-15.6c2.7-7.6,15.9-31.2,15.9-31.2l0.1-0.1c0.5-0.2,2.9-0.7,16.2,2
		c6.9,1.4,9.7-12.5,9.7-12.5c1.7,0.4,3.2,1.1,4.6,2.2c2.4,1.7,4.2,4.1,5.1,6.9c1.6,4.8,8.4,11.7,13.3,16.2c3,2.7,5.2,4.6,5.2,4.6
		S1483.7,1557.5,1474.5,1564.1z"/>
	<path class="st4" d="M1296,832.7c0,0,1.8-27.3-2.1-31.8s-19.7-18.1-22.7-17.2s8.8,20.3,8.1,25.9s-3.5,21.7,3.2,30
		C1289.2,847.8,1296,832.7,1296,832.7z"/>
	<path class="st4" d="M1279.6,834c0,0-6.6-14.4-9.5-18.3s-1.1-3.2,1-2.8s9.2,8.5,9.2,8.5L1279.6,834z"/>
	<path class="st10" d="M2252.1,668.6c0,0-93.4,9.3-121.5,2.4s-97.6-62.5-97.6-62.5l-19.5,14.5c0,0,51.4,96,89.2,109.7
		s140.3,15.2,140.3,15.2L2252.1,668.6z"/>
	<path class="st3" d="M2590.3,1509.6c0,0,18.5,17.3,14.8,29.4s-20.4,20.2-22.8,35.2s-11.4,23-19.5,23l-38.8-0.2
		c0,0-5.9-10.5,8.5-13.6s20-20.6,19.2-36.9s1.5-38,1.5-38l30.8-7.1L2590.3,1509.6z"/>
	<path class="st3" d="M2362.7,1553.1c0,0,4.1,39.1-4,43.1l-104.9-0.5c0,0-0.1-12.4,16.6-15.1s46.2-12.4,51.2-34.6
		S2362.7,1553.1,2362.7,1553.1z"/>
	<path class="st11" d="M2277.3,1000.5c0,0,5.2,68.6,11.3,151c8.3,111.9,18.2,249.4,19.1,275.5c1.6,45.2,8.5,117.6,8.5,117.6
		s17.1,17.3,51.5,10.2c0,0,31.1-103.1,40.3-212.3c0.1-1.8,0.3-3.6,0.4-5.4c8.6-111.2,22.3-345.3,22.3-345.3L2277.3,1000.5z"/>
	<path class="st12" d="M2277.3,1000.5c0,0,5.2,68.6,11.3,151l119.5,190.9c0.1-1.8,0.3-3.6,0.4-5.4c8.6-111.2,22.3-345.3,22.3-345.3
		L2277.3,1000.5z"/>
	<path class="st11" d="M2302.3,1008.8c0,0,97.9,248.6,162.5,365.5s84.8,149.6,84.8,149.6s37.4-14.8,40.8-24.9
		c0,0-23.9-225.3-67.2-280.3c-24.5-31.1-53-124.3-54.2-156.9s-8.4-97-8.4-97L2302.3,1008.8z"/>
	<path class="st4" d="M2314,634.8c0,0-89.5,46.5-79.1,33.7c3.4-4.1,0.2-18.5-1.8-23.4c-1-2.3-1.9-4.6-2.7-6.7
		c-3.1-7.8-5.9-15.8-8.2-23.9l23.2-30.7l15.7-20.8c1.7,8.1,4.3,16.1,7.7,23.7C2285.2,622.7,2314,634.8,2314,634.8z"/>
	<path class="st5" d="M2268.9,586.8c0,0-5.6,35.5-38.5,51.7c-3.1-7.8-5.9-15.8-8.2-23.9l23.2-30.7
		C2260.5,583.8,2268.9,586.8,2268.9,586.8z"/>
	<path class="st13" d="M2475.4,1012.6c-28.5,31.7-215,55.3-209.8,31.6c3.4-15.6,5.4-31.5,5.9-47.4c0.2-5.2,0.2-10.8,0.1-16.6
		c-0.6-26.6-4.2-53-10.8-78.7c-3.8-15.4-8.5-30.6-14-45.5c-1.4-3.8-2.8-7.5-4.3-11.4c-7.6-19.3-13.6-39.1-18-59.4
		c-8-37.7-8.6-73,0.5-94.8c0-0.1,8.9-23.1,9-23.2c39.9-12.7,55.2-50.7,55.2-50.7s124.9,34.4,175.4,215.2
		C2464.8,831.6,2500.2,985.1,2475.4,1012.6z"/>
	<path class="st10" d="M2341.2,744.6c0,0-12.2,104.8-80.2,156.8c-3.8-15.4-8.5-30.6-14-45.5c7.4-24.8,15.8-45.1,23.3-53.8
		C2300.7,766.9,2341.2,744.6,2341.2,744.6z"/>
	<path class="st4" d="M2205.9,622c0,0,64.7-3.1,62.1-43.4s4.1-67.8-37.4-67.5s-48.5,16.2-50.9,29.8S2189,621.8,2205.9,622z"/>
	<path class="st3" d="M2298.3,515.6c0.7-0.7,2.1-1.1,5.2-1c-1.7-1.2-3.6-1.9-5.6-2.2c-0.3-4.5-2-12.5-9.3-15c2.4,1.7,3.8,4.3,4,7.2
		c-7.9-9.7-25.9-17.8-77.5-17.9c-68-0.1-49.4,45.7-41.1,51.6s31.5-6.6,47.7-3.9s17.3,26.8,22.6,30.6s3.6-2.2,11.3-5.1
		s7.5,9.8,4.6,17.8s6.6,19.7,6.6,19.7l11.3-10.5c11.3-10.5,25.1-57.8,21.2-68.5L2298.3,515.6z"/>
	<path class="st1" d="M2216.1,598c0,0-2.1,5.7-4.7,6.9s-11.3,1.8-13,0.7s-4.6-5.5-4.6-5.5S2207.7,596.3,2216.1,598z"/>

		<rect x="2023" y="838.6" transform="matrix(4.537840e-03 -1 1 4.537840e-03 1303.7883 3005.6812)" class="st9" width="277.2" height="18.8"/>
	<path class="st9" d="M2291.7,1594.2c1.8,0.2,3.4-0.2,3-3.1l-87.6-620.5l-12.6,7.9l93.9,612.9
		C2288.7,1592.9,2290.1,1594.1,2291.7,1594.2z"/>

		<rect x="2156.2" y="935.8" transform="matrix(4.537840e-03 -1 1 4.537840e-03 1175.77 3138.1606)" class="st9" width="15.8" height="85.5"/>
	<path class="st14" d="M2248.6,1290.1l-4.6,0.5c-4.5,0.5-8.5-2.7-9-7.1l-1.3-12.1c-0.4-4.5,2.8-8.4,7.3-8.9l4.6-0.5
		c4.5-0.5,8.5,2.7,9,7.2l1.3,12.1C2256.3,1285.7,2253,1289.6,2248.6,1290.1C2248.6,1290,2248.6,1290.1,2248.6,1290.1z"/>
	<path class="st9" d="M2031.6,1593c-1.8,0.2-3.4-0.2-3-3.1l93.2-619.7l12.5,8l-99.4,612C2034.7,1591.8,2033.2,1593,2031.6,1593z"/>
	<path class="st14" d="M2077.5,1289.2l4.6,0.5c4.4,0.5,8.5-2.6,9.1-7l1.4-12c0.5-4.4-2.7-8.4-7.2-8.9c0,0,0,0,0,0l-4.6-0.5
		c-4.4-0.5-8.5,2.6-9.1,7.1l-1.4,12C2069.9,1284.8,2073.1,1288.7,2077.5,1289.2z"/>
	<path class="st15" d="M2177.3,713.6l-32.8-0.2c-2.1,0-3.7-1.7-3.7-3.8l0.1-14.2l40.3,0.2l-0.1,14.2
		C2181.1,712,2179.4,713.6,2177.3,713.6z"/>

		<rect x="2150.6" y="654.5" transform="matrix(4.537744e-03 -1 1 4.537744e-03 1464.5695 2843.8645)" class="st9" width="20.2" height="63.5"/>

		<rect x="2147.3" y="651.8" transform="matrix(4.537744e-03 -1 1 4.537744e-03 1486.485 2822.2085)" class="st9" width="26.9" height="25.4"/>

		<rect x="1891.6" y="585.6" transform="matrix(4.537840e-03 -1 1 4.537840e-03 1329.5311 2521.6663)" class="st9" width="79.5" height="14.8"/>

		<rect x="1932.8" y="560.7" transform="matrix(4.537840e-03 -1 1 4.537840e-03 1369.1139 2560.8269)" class="st8" width="76" height="64.1"/>

		<rect x="1998.5" y="561" transform="matrix(4.537840e-03 -1 1 4.537840e-03 1432.4958 2625.1685)" class="st8" width="72.5" height="64.1"/>

		<rect x="2072.5" y="561.3" transform="matrix(4.537840e-03 -1 1 4.537840e-03 1496.0923 2689.5562)" class="st8" width="53" height="64.1"/>

		<rect x="2098.9" y="558.5" transform="matrix(4.537840e-03 -1 1 4.537840e-03 1544.7087 2747.8599)" class="st9" width="107.4" height="79.1"/>

		<rect x="2182.8" y="563.4" transform="matrix(4.537840e-03 -1 1 4.537840e-03 1618.939 2760.3218)" class="st9" width="26.1" height="7.3"/>

		<rect x="2184.7" y="563.8" transform="matrix(4.537840e-03 -1 1 4.537840e-03 1622.0812 2764.3813)" class="st9" width="29.6" height="7.3"/>

		<rect x="2146.6" y="530.5" transform="matrix(4.537840e-03 -1 1 4.537840e-03 1606.1196 2688.4189)" class="st9" width="13.7" height="14"/>

		<rect x="2145.5" y="499.1" transform="matrix(4.537840e-03 -1 1 4.537840e-03 1618.5826 2675.0044)" class="st9" width="14.8" height="50.8"/>
	<path class="st4" d="M2171.7,672.1c0,0-9.1-34.5-12.2-39.5s-20.2-19.1-21.8-18.6s-2.3,2-0.9,5.3s8.2,12.8,6.6,12.8
		s-23-26.6-29.2-23.8s-8.7,24.9-2.2,39s36.6,32.7,38.1,35C2162.1,701.1,2171.7,672.1,2171.7,672.1z"/>
	<path class="st13" d="M2172.6,669.9c0,0-26.2,9.6-23.7,25.4c0.9,5.8,53.7,181.3,84.8,183.4S2364,738,2357.4,698.2
		s-52.1-58.4-68.6-49.8s-34.8,124.7-41.5,122.7S2172.6,669.9,2172.6,669.9z"/>
	<path class="st4" d="M1984,544c0,0-20.9,14.9-12.7,18.8s25.8,3.9,33.8-3.8S1999.1,541.2,1984,544z"/>
	<path class="st16" d="M343.1,685.4l-0.3,3.7c-5.5-0.3-11,0-16.4,0.7c-6.9,0.8-13.7,2.3-20.3,4.3c-18.5,5.8-44.1,19.3-60.9,51.1
		c-14.8,27.8,1,74.3,17.7,123.5c20.4,60.1,43.5,128.3,19.2,182c-23.2,51.2-36.8,100.6-39.4,143c-2.9,47.5,7.7,84.2,31.7,109.1
		c17.3,17.9,32.1,49.3,39.6,84.1c7.9,36.4,6.9,72.1-2.6,98c-5,13.7-12.4,24.6-21.8,32.6c-0.6-1.1-1.2-2.2-1.8-3.4
		c8.6-7.5,15.4-17.7,20.1-30.4c20.8-56.5-2.8-143.7-36.2-178.2c-24.8-25.6-35.8-63.3-32.8-111.9c2.6-42.8,16.4-92.7,39.7-144.2
		c23.7-52.4,0.9-119.8-19.3-179.3c-17.7-52.1-33-97.2-17.5-126.4c17.4-32.9,44-46.9,63.2-52.9c6.9-2.1,14.1-3.7,21.3-4.5
		C331.9,685.3,337.5,685.1,343.1,685.4z"/>
	<rect x="492.4" y="459.4" class="st16" width="85.1" height="445"/>
	<rect x="427.2" y="776.8" class="st17" width="17.4" height="256"/>
	<path class="st17" d="M559.1,1593.7c1.7,0.2,3.2-0.2,2.8-2.9l-83.5-572.7l-11.6,7.3l89.2,565.7
		C556.3,1592.6,557.6,1593.7,559.1,1593.7z"/>
	<rect x="399.3" y="1018.1" class="st17" width="79" height="14.6"/>
	<path class="st16" d="M518,1312.1l-4.2,0.5c-4.1,0.5-7.9-2.5-8.4-6.6l-1.3-11.2c-0.4-4.1,2.6-7.8,6.7-8.2l4.2-0.5
		c4.1-0.5,7.9,2.5,8.4,6.6l1.3,11.2C525.1,1308,522.1,1311.7,518,1312.1z"/>
	<path class="st17" d="M318.9,1593.7c-1.7,0.2-3.2-0.2-2.8-2.9l83.5-572.7l11.6,7.3l-89.3,565.7
		C321.7,1592.6,320.4,1593.7,318.9,1593.7z"/>
	<path class="st16" d="M360,1312.1l4.2,0.5c4.1,0.5,7.8-2.4,8.3-6.5l1.3-11.1c0.4-4.1-2.6-7.8-6.7-8.2c0,0,0,0,0,0l-4.2-0.5
		c-4.1-0.5-7.8,2.4-8.4,6.5l-1.3,11.1C352.9,1308,355.9,1311.6,360,1312.1C360,1312.1,360,1312.1,360,1312.1z"/>
	<path class="st9" d="M416,764.4h37.2l0,0v16c0,0.3-0.2,0.5-0.5,0.5h0h-36.1c-0.3,0-0.5-0.2-0.5-0.5l0,0L416,764.4L416,764.4z"/>
	<rect x="326.4" y="657.8" class="st18" width="81" height="57.1"/>
	<polygon class="st17" points="486.6,453.3 486.7,909.5 406,776.3 406,624.7 	"/>
	<path class="st18" d="M486.5,453.3V910h97.6V453.3H486.5z M573.9,899.9h-77.3V463.4h77.3V899.9z"/>
	<ellipse class="st19" cx="885.5" cy="829.4" rx="204.2" ry="201.9"/>
	<path class="st9" d="M804.9,842.9c0-25.7,21.1-46.6,47.1-46.6s47.1,20.9,47.1,46.6c0,25.7-21.1,46.6-47.1,46.6
		S804.9,868.6,804.9,842.9z"/>
	<rect x="847.2" y="878.7" class="st9" width="15.3" height="223.4"/>
	<path class="st9" d="M963.5,1591.6c1.5,0.2,2.8-0.2,2.5-2.5l-73.7-499.7l-10.2,6.4l78.7,493.6
		C961.1,1590.6,962.2,1591.6,963.5,1591.6z"/>
	<rect x="822.5" y="1089.3" class="st9" width="69.7" height="12.8"/>
	<path class="st6" d="M927.3,1345.9l-3.8,0.4c-3.6,0.4-6.9-2.1-7.4-5.7l-1.1-9.7c-0.4-3.6,2.3-6.8,5.9-7.2c0,0,0,0,0,0l3.8-0.4
		c3.6-0.4,6.9,2.1,7.4,5.7l1.1,9.7C933.5,1342.3,930.9,1345.5,927.3,1345.9C927.3,1345.9,927.3,1345.9,927.3,1345.9z"/>
	<path class="st9" d="M751.6,1591.6c-1.5,0.2-2.8-0.2-2.5-2.5l73.7-499.7l10.2,6.4l-78.7,493.6
		C754.1,1590.6,752.9,1591.6,751.6,1591.6z"/>
	<path class="st6" d="M787.9,1345.8l3.7,0.4c3.6,0.4,6.9-2.1,7.4-5.7l1.1-9.7c0.3-3.6-2.3-6.8-5.9-7.1c0,0,0,0,0,0l-3.7-0.4
		c-3.6-0.4-6.9,2.1-7.4,5.7l-1.1,9.7C781.7,1342.3,784.3,1345.5,787.9,1345.8C787.9,1345.8,787.9,1345.8,787.9,1345.8z"/>
	<path class="st9" d="M837.3,868h32.9l0,0v14c0,0.3-0.2,0.5-0.5,0.5c0,0,0,0,0,0h-31.9c-0.3,0-0.5-0.2-0.5-0.5c0,0,0,0,0,0V868
		L837.3,868z"/>
	<rect x="604.8" y="162.3" class="st9" width="1613.5" height="58.9"/>
	<rect x="566" y="177.2" class="st9" width="1691.2" height="29.2"/>
	<path class="st8" d="M852.3,847.1c-0.2,0-18.8,3-39.1,18.1c-18.8,13.9-42.9,41.3-51.3,92.9c-6.3,38.3-7.8,97.5-9.4,160.2
		c-2.6,103.2-5.3,209.9-29.7,240.1c-18.8,23.2-12.5,45-5.9,68.2c6.8,23.6,13.8,48-5.1,75.3c-18.5,26.8-50.7,17.4-88,6.6
		c-39.4-11.5-88.4-25.8-137.3-2.3c-60.2,28.9-134,38.3-180.4,41.2c-0.6-1.2-1.3-2.3-2-3.6c45.9-2.8,120.4-12,180.8-41
		c50.2-24.1,99.9-9.6,139.9,2c37.4,10.9,67,19.5,84-5.1c17.9-26,11.1-49.5,4.6-72.2c-6.6-23-13.4-46.8,6.5-71.5
		c23.6-29.2,26.3-135.3,28.9-237.9c1.6-62.8,3.1-122.2,9.4-160.7c8.7-52.9,33.6-81.1,52.9-95.4c21.1-15.6,39.8-18.5,40.6-18.6
		L852.3,847.1z"/>
	<path class="st8" d="M844.3,844.8c0-2.8,2.3-5.1,5.1-5.1c2.8,0,5.1,2.3,5.1,5.1c0,2.8-2.3,5.1-5.1,5.1l0,0
		C846.6,849.9,844.3,847.6,844.3,844.8z"/>
	<rect x="275.8" y="1589.5" class="st20" width="2495" height="9.9"/>
</g>
</svg>
