<svg xmlns="http://www.w3.org/2000/svg" viewBox="0 0 2826.39 1763.78"><defs><style>.cls-1{fill:#eee;}.cls-2{fill:#a4f7fa;}.cls-3{fill:#93ebfb;}.cls-4{fill:#300b39;}.cls-5{fill:#fdab74;}.cls-6{fill:#f68e4f;}.cls-7{fill:#2aabbe;}.cls-8{fill:#1e90a4;}.cls-9{fill:#39608d;}.cls-10{fill:#303876;}.cls-11{fill:#f87204;}.cls-12{fill:#33468b;}.cls-13{fill:#283968;}.cls-14{fill:#f9b806;}.cls-15{fill:#1f5593;}.cls-16{fill:#0d3563;}.cls-17{fill:#fa7205;}.cls-18{fill:#f5492d;}.cls-19{fill:#d0301a;}.cls-20{fill:#18bdde;}.cls-21{fill:#323949;}</style></defs><g id="Слой_2" data-name="Слой 2"><path class="cls-1" d="M4198.88,1825.94c63,60.72,142.68,87.47,768.42,73.82,507.87-11.08,553.22-30.84,811.35-31.47,737.33-1.79,906.6,158.11,1044.72,19.56,199.54-200.16,18.15-706.28-163.78-1213.91-89.44-249.56-137.88-304.15-169.41-334.59-196.74-189.9-427.27-107.25-1096.94-122.82-621.25-14.44-759.24-93.38-936,42.35C4304,376.55,4263.67,546.47,4186.18,873,4096.64,1250.26,4004.49,1638.52,4198.88,1825.94Z" transform="translate(-4084.06 -180.61)"/></g><g id="Layer_1" data-name="Layer 1"><rect class="cls-2" x="637.02" y="177.33" width="1551.9" height="1413.07"/><path class="cls-3" d="M5729.61,1585.59l-.17,0c-.87-.21-4.85-1.53-7.49-7.87-1.75-4.17-2.27-7.6-3.87-11.72l-6.54-11.29c-6.84-9-9.24-6.9-9.24-6.9s-1.79,2.29-4.43,5.32c-4.36,5-11.06,12-15.79,13.74a13.74,13.74,0,0,0-6.77,5.29,13.07,13.07,0,0,0-2,4.64h0c-26.13-49.77-108.71-122.13-136.85-137.83-14.43-8.06-12.15-39.16-9-77.63,2.17-26.06,4.75-55.51,2.83-83.48,11.27-2.63,17.81-4.65,17.81-4.65s-14.71-62-23.8-92.11c-8.39-27.77-37.22-89.72-41.57-99,0-.15.05-.41.09-.72l1.63-13.22a1.28,1.28,0,0,1,.1-.32,212.34,212.34,0,0,0,15.2-17.24s.34,2.37.95,6.41c3.41,22.3,35.81,40.6,47.4,42.3,26.6,3.93,42.94-3.62,55-16.37a84.37,84.37,0,0,0,7.34-8.92c39.57,2.93,80.87,3.41,80.87,3.41s10.4.63,19.8,1.88,15.25-1.25,16.92-3.34,11.28-3.76,11.07-6.47-15.67.83-18.59,0,6.69-7.94,11.7-8.79,23.82-12.52,23.82-14.19-17.55-1.26-28,0-36.72,14.19-36.72,14.19l-68.59-17.72c.6-7.56-.85-14.3-4.35-19.27-13.6-19.32-47.81-7.08-71.14-72.28a.25.25,0,0,0,0-.09c-12.43-34.75-22.34-61-23.35-62.95-2.89-5.57-37.41-12.47-43.8-12.79-4.63-.26,4-19.95-4.17-22.18a10,10,0,0,0-5.28.2c-.09-1.09-.18-2.18-.25-3.26a82.56,82.56,0,0,0,11.2,2.9c-.72-1.35-.59-5-.59-5,.2,2.37,3.72,4.9,3.72,4.9,2.68.71,9-.55,9-.55s-5.83-1.55-7.85-12.44c7.49-8.89,15-24.49,20.27-38.37h0s20.24-26.49,10.81-47c-4.33-9.4-9.3-12-13.54-12-.56-.71-1.11-1.37-1.65-2a67,67,0,0,0-24.18-17.27l-1.05-.43A54.57,54.57,0,0,0,5462,717.6c-59-29.36-95.35,84-87.93,93.48s30.1,14.6,30.1,14.6a19.2,19.2,0,0,1-1.54-4.61c2.74,3.77,10.55,6.8,17.52,8.85-.7,3-1.47,6.15-2.28,9.24-.9,3.44-2.41,8.63-4.15,14.19l-.73-.25c-3.6-1.15-7.9,5.15-7.31,8.89.72,4.42-1.93,11.28-4.52,13.56,0,0-41.51,7.8-47.9,20-1.62,3.06-2.58,12.82-3.32,25.87-4.26,10.19-4.47,37-3.12,66.21-1.54,24-4,44.43-9,49.06-2.72,2.5-19.46,2.59-19.55,2.59-17.5-9.68-38.15-22.17-46.69-31.45.29-8.22.4-23.11-2.39-26.36-3.89-4.55-19.67-18.14-22.67-17.21s8.81,20.28,8.09,25.87c-.27,2.07-.81,5.56-1.06,9.57-2.27-2.44-5.73-5.95-7.11-6.18-2.15-.36-3.87-1.06-1,2.81s9.48,18.28,9.48,18.28v0a18.72,18.72,0,0,0,2,4.26l-.43.38s29.73,42,65.49,69.56c3.64,11.74,10,22.92,20.84,30.1q-3.69,12.14-8.71,28.57c-13.16,43.09-8.58,125.76-8.58,125.76,2.6,1,5.23,1.89,7.86,2.77,1.57,18.1,3.6,41,5.87,65.32.94,10.14,1.92,20.53,2.93,31,.29,3,.58,6,.88,9,5.87,59.63,12.51,118,17.07,131.71,8.1,24.3,33.78,154.24,43.36,203.3a2,2,0,0,0-.65.15l-.09.08s-13.23,23.58-15.91,31.17c-4.76,13.5-17.8,11.34-22.16,15.64-1.77,1.74-5.45,11-3.28,12.13l46.1-.43s4.6.83,7.84-12.33c.21-.87,4.72-5.7,11.14-8.15,4.22-1.62,7.66-2,11.83-3.52l11.48-6.21c9.2-6.58,7.16-9,7.16-9s-2.24-1.86-5.19-4.59c-4.86-4.5-11.63-11.4-13.28-16.18a13.73,13.73,0,0,0-5.1-6.92,13.56,13.56,0,0,0-4.32-2.09c3.15-35.3,15.89-190.12-.65-211.81-4.54-5.95-3.72-20.12-.27-39.16,2.24-12.28,5.58-26.59,9.27-42,10.11,35.64,20.33,64.09,28.44,70.31,25.06,19.22,218.79,119.28,218.79,119.28h0s24,12.54,31.62,15c13.63,4.37,20.75,13.64,25.17,17.87a7.85,7.85,0,0,0,6.71,2.11c3.59-.56,8.26-1.72,9.28-3.92Z" transform="translate(-4084.06 -180.61)"/><path class="cls-4" d="M5552.29,784.19s-28.18,16.6-10.89,48.76c0,0-24.67-4.52-30-11.88a19.2,19.2,0,0,0,1.54,4.61s-22.68-5.14-30.1-14.6,29-122.84,87.93-93.48c0,0,53.91,10,32.79,69.86s-1.16,65.14-1.16,65.14-6.27,1.26-8.95.55c0,0-3.52-2.53-3.72-4.9,0,0-.13,3.61.59,5,0,0-22.08-3.66-30.69-14.64S5545.88,796,5552.29,784.19Z" transform="translate(-4084.06 -180.61)"/><path class="cls-5" d="M5511.6,880.55l-.1,0C5511.33,880.56,5511.36,880.55,5511.6,880.55Z" transform="translate(-4084.06 -180.61)"/><path class="cls-5" d="M5580.09,860.83c.83,7.42,1.82,14.08,2.26,17.25,1,7.11-66.45,2.48-70.75,2.47,3-1.31,12.15-30.32,15-41.39,3.51-13.43,6.27-27.93,6.27-27.93l47.62,3,2.83.17a166,166,0,0,0-3.87,18.32c-.11.76-.23,1.54-.33,2.29C5578.3,841.34,5579.06,851.67,5580.09,860.83Z" transform="translate(-4084.06 -180.61)"/><path class="cls-4" d="M5526.34,806.43s-7.72-24.48-6.16-43.26c1.12-13.4,20.2-59.13,66.08-39.67a67,67,0,0,1,24.17,17.27c8.51,9.73,19.45,28.79-8.22,65.77l-8,12.84Z" transform="translate(-4084.06 -180.61)"/><path class="cls-6" d="M5580.09,860.83c-33.31-9.76-47.45-48.24-47.45-48.24,14.09.42,32.45,10.2,46.85,20.14-.11.76-.23,1.54-.33,2.29C5578.3,841.34,5579.06,851.67,5580.09,860.83Z" transform="translate(-4084.06 -180.61)"/><path class="cls-5" d="M5582.45,847.31s-60.18-14.87-50.34-52.21,8.7-64.4,47.54-56.48,42.52,24.13,42.26,37.39S5598.35,850.22,5582.45,847.31Z" transform="translate(-4084.06 -180.61)"/><path class="cls-4" d="M5607.18,744.93s-28,39.45-54.89,39.26-36-9.83-36-9.83,23.38-10.23,34.47-36C5550.73,738.41,5600.32,720.82,5607.18,744.93Z" transform="translate(-4084.06 -180.61)"/><path class="cls-4" d="M5602.17,747.41s9.66,13,10.13,23.32-3.36,30.21,2.52,31.06c0,0,20.24-26.49,10.8-47C5615.62,733,5602.17,747.41,5602.17,747.41Z" transform="translate(-4084.06 -180.61)"/><path class="cls-4" d="M5604.05,749.49s-23.82,42.76-59.48,49c0,0,39.23-19.76,49.94-49.32S5604.05,749.49,5604.05,749.49Z" transform="translate(-4084.06 -180.61)"/><path class="cls-2" d="M5573.05,823.38s.76,5.68,4.38,7,13.25,3.77,14.23,3.17,4.58-5,4.58-5S5581.07,822.73,5573.05,823.38Z" transform="translate(-4084.06 -180.61)"/><path class="cls-5" d="M5550.58,1394.48c-.76,3.2-1.53,6.35-2.28,9.49-4.53,18.85-8.76,36.34-11.42,51-3.46,19-4.27,33.21.27,39.16,18.69,24.51,0,219,0,219L5515.88,1735s-37-192-47-222.08c-4.56-13.67-11.2-72.08-17.07-131.71-.3-3-.59-6-.88-9-1-10.43-2-20.82-2.93-31-5.27-56.42-9.2-104.73-9.2-104.73s39.22-27.57,74.85-30.64c21-1.83,40.74,4.85,50.49,30.64C5578.34,1274.07,5564,1338.88,5550.58,1394.48Z" transform="translate(-4084.06 -180.61)"/><path class="cls-6" d="M5550.58,1394.48c-29.14-21-70.14-58.5-85-119.9-2.84-30.52,21.22-59.52,48.08-68.68,21-1.83,40.74,4.85,50.49,30.64C5578.34,1274.07,5564,1338.88,5550.58,1394.48Z" transform="translate(-4084.06 -180.61)"/><path class="cls-5" d="M5656.86,1023.66l143.22,37v16.72s-142.53-1.67-151.72-17.54S5656.86,1023.66,5656.86,1023.66Z" transform="translate(-4084.06 -180.61)"/><path class="cls-5" d="M5800.07,1574.87l-6.69,27.63s-193.74-100.06-218.79-119.28c-10.07-7.72-23.37-49.65-35.69-97.08-18.35-70.69-34.52-153.61-34.52-153.61s27.16-104.45,99.87-40.52c43.5,38.25,36.73,112,32,169.3-3.17,38.47-5.45,69.57,9,77.63,28.14,15.7,110.71,88.06,136.85,137.83Z" transform="translate(-4084.06 -180.61)"/><path class="cls-5" d="M5471.43,1110.56c-50.6-12.87-106.21-91.37-106.21-91.37l14.24-12.36c14.75,17.39,76.08,47.34,76.08,47.34-.33-15.91.09-30.43,1.09-43.64,6.81-89.79,40.66-119.7,49.9-126.27a23.7,23.7,0,0,1,2.34-1.51s0,.66.09,1.89c.13,2.67.38,8.05.63,15.42C5511.47,955,5513.71,1121.33,5471.43,1110.56Z" transform="translate(-4084.06 -180.61)"/><path class="cls-7" d="M5511.5,1002.8c-2.62,64.06-12.21,127.49-40.1,123.41-34.18-5-43.08-36.9-44.9-60.62a136.68,136.68,0,0,1,.5-26.35s16.82-.08,19.55-2.59c12.92-11.93,9.08-129,15.48-141.14s47.89-20,47.89-20S5514.11,939.49,5511.5,1002.8Z" transform="translate(-4084.06 -180.61)"/><path class="cls-8" d="M5511.5,1002.8c-2.62,64.06-12.21,127.49-40.1,123.41-34.18-5-43.08-36.9-44.9-60.62,8.39-.42,23.17-2.47,29-11.42,8.41-12.82,34.63-95.34,34.63-95.34S5500.48,977.36,5511.5,1002.8Z" transform="translate(-4084.06 -180.61)"/><path class="cls-7" d="M5727.14,1023.66c9.27,13.16,4.16,38.67-15.27,59.22-12.07,12.75-28.41,20.3-55,16.37-11.6-1.7-44-20-47.4-42.3-.61-4-.95-6.41-.95-6.41s-14.75,14.77-15.3,17.56c-.25,1.26-1.52,12.42-1.72,13.94-.23,1.85,1.08,8.62,1.08,8.62s-70.47,30.82-128.72-4.27c0,0-16.62-142.35-4.68-166,5.92-11.77,39.18-34.69,50.75-44.81,2.6-2.28,5.25-9.14,4.53-13.56-.59-3.74,3.71-10,7.31-8.89,7,2.23,26.67,12,40.53,8.26,6.91-1.83,15.66-9.82,22.36-8,8.18,2.23-.46,21.92,4.17,22.18,6.39.32,40.91,7.22,43.8,12.79,1,1.93,10.92,28.2,23.35,62.95a.17.17,0,0,1,0,.09C5679.33,1016.58,5713.54,1004.34,5727.14,1023.66Z" transform="translate(-4084.06 -180.61)"/><path class="cls-8" d="M5608.51,1050.54s-1.72-54.29-6.11-53.63-67.68,61.59-52.64,86S5608.51,1050.54,5608.51,1050.54Z" transform="translate(-4084.06 -180.61)"/><path class="cls-9" d="M5656.86,1273.18s-24.4,7.54-60.34,12.51c-44.5,6.15-106.71,8.37-162.26-12.51,0,0-4.58-82.67,8.58-125.76s19.32-63.73,19.32-63.73,52.74,13.23,106.3,3a174.51,174.51,0,0,0,22.47-5.8s33,70.15,42.13,100.21S5656.86,1273.18,5656.86,1273.18Z" transform="translate(-4084.06 -180.61)"/><path class="cls-10" d="M5656.86,1273.18s-24.4,7.54-60.34,12.51c-65.9-37.37-33.77-194.63-33.77-194.63,2-1.58,3.87-3,5.71-4.4a174.51,174.51,0,0,0,22.47-5.8s33,70.15,42.13,100.21S5656.86,1273.18,5656.86,1273.18Z" transform="translate(-4084.06 -180.61)"/><path class="cls-4" d="M5518.17,1099.25c-39.07,0-55.17-13.44-56.37-14.36l-2.52-18.4c.37.28,52.79,31.76,133.93,1.61l-1.72,13.94C5560.29,1093.64,5538.46,1099.25,5518.17,1099.25Z" transform="translate(-4084.06 -180.61)"/><path class="cls-5" d="M5800.08,1060.65s26.27-12.94,36.72-14.19,28-1.68,28,0-18.8,13.35-23.81,14.19-14.63,7.95-11.7,8.79,18.38-2.72,18.59,0-9.4,4.38-11.07,6.47-7.52,4.6-16.92,3.34-19.8-1.88-19.8-1.88Z" transform="translate(-4084.06 -180.61)"/><path class="cls-9" d="M5800.07,1574.87l-6.69,27.63s-193.74-100.06-218.79-119.28c-10.07-7.72-23.37-49.65-35.69-97.08,16.54,3.4,52.25,5.2,97.32-24.83-3.17,38.47-5.45,69.57,9,77.63,28.14,15.7,110.71,88.06,136.85,137.83Z" transform="translate(-4084.06 -180.61)"/><path class="cls-4" d="M5838.37,1585.59l-.17,0c-.87-.21-4.86-1.53-7.49-7.87-1.75-4.17-2.27-7.6-3.87-11.72l-6.54-11.29c-6.84-9-9.24-6.9-9.24-6.9s-1.79,2.29-4.43,5.32c-4.37,5-11.06,12-15.8,13.74a13.76,13.76,0,0,0-6.76,5.29,13.07,13.07,0,0,0-2,4.64s14.05,2.45,12.82,9.38c-2.38,13.39-1.82,15.83-1.58,16.27l.09.09s24,12.54,31.62,15c13.63,4.37,20.75,13.64,25.17,17.87a7.85,7.85,0,0,0,6.71,2.11c3.59-.56,8.26-1.72,9.28-3.92Z" transform="translate(-4084.06 -180.61)"/><path class="cls-10" d="M5537.15,1494.09c18.69,24.51,0,219,0,219L5515.88,1735s-37-192-47-222.08c-4.56-13.67-11.2-72.08-17.07-131.71,17.72,7.91,61,25.13,96.5,22.79-4.53,18.85-8.76,36.34-11.42,51C5533.42,1474,5532.61,1488.14,5537.15,1494.09Z" transform="translate(-4084.06 -180.61)"/><path class="cls-4" d="M5558.52,1744.72l-11.47,6.21c-4.17,1.47-7.61,1.9-11.83,3.52-6.42,2.45-10.93,7.28-11.14,8.15-3.24,13.16-7.84,12.33-7.84,12.33l-46.1.43c-2.17-1.09,1.51-10.39,3.28-12.13,4.36-4.3,17.4-2.14,22.16-15.64,2.68-7.59,15.91-31.17,15.91-31.17l.09-.08c.45-.23,2.9-.72,16.22,2,6.89,1.43,9.74-12.54,9.74-12.54a13,13,0,0,1,4.58,2.15,13.73,13.73,0,0,1,5.1,6.92c1.65,4.78,8.42,11.68,13.28,16.18,2.95,2.73,5.19,4.59,5.19,4.59S5567.73,1738.14,5558.52,1744.72Z" transform="translate(-4084.06 -180.61)"/><path class="cls-5" d="M5380.05,1013.26s1.76-27.29-2.13-31.83-19.67-18.14-22.67-17.21,8.81,20.28,8.09,25.87-3.52,21.68,3.2,30S5380.05,1013.26,5380.05,1013.26Z" transform="translate(-4084.06 -180.61)"/><path class="cls-5" d="M5363.64,1014.57s-6.63-14.42-9.48-18.28-1.14-3.17,1-2.81,9.22,8.52,9.22,8.52Z" transform="translate(-4084.06 -180.61)"/><path class="cls-11" d="M6336.13,849.22s-93.38,9.27-121.47,2.36-97.65-62.5-97.65-62.5l-19.46,14.46s51.44,96,89.2,109.73,140.3,15.18,140.3,15.18Z" transform="translate(-4084.06 -180.61)"/><path class="cls-4" d="M6674.36,1690.21s18.45,17.26,14.78,29.45-20.43,20.25-22.76,35.15-11.4,23-19.54,23l-38.79-.18s-5.94-10.52,8.53-13.62,20-20.6,19.19-36.88,1.52-38,1.52-38l30.77-7.1Z" transform="translate(-4084.06 -180.61)"/><path class="cls-4" d="M6446.78,1733.72s4.15,39.11-4,43.14l-104.93-.47s-.13-12.42,16.6-15.06,46.17-12.45,51.24-34.58S6446.78,1733.72,6446.78,1733.72Z" transform="translate(-4084.06 -180.61)"/><path class="cls-12" d="M6361.35,1181.12s5.19,68.55,11.27,151c8.27,111.93,18.21,249.41,19.13,275.45,1.6,45.23,8.52,117.58,8.52,117.58s17.09,17.26,51.49,10.17c0,0,31.08-103.1,40.32-212.3.14-1.79.29-3.59.43-5.39,8.64-111.16,22.34-345.26,22.34-345.26Z" transform="translate(-4084.06 -180.61)"/><path class="cls-13" d="M6361.35,1181.12s5.19,68.55,11.27,151L6492.08,1523c.14-1.79.29-3.59.43-5.39,8.64-111.16,22.34-345.26,22.34-345.26Z" transform="translate(-4084.06 -180.61)"/><path class="cls-12" d="M6386.4,1189.37s97.88,248.61,162.45,365.53,84.76,149.55,84.76,149.55,37.36-14.75,40.79-24.9c0,0-23.87-225.26-67.22-280.34-24.49-31.13-53-124.33-54.22-156.88s-8.37-97-8.37-97Z" transform="translate(-4084.06 -180.61)"/><path class="cls-5" d="M6398.09,815.45s-89.54,46.49-79.06,33.69c3.35-4.09.2-18.55-1.81-23.44q-1.46-3.5-2.68-6.65a237.69,237.69,0,0,1-8.16-23.88l23.18-30.66,15.72-20.8a117.49,117.49,0,0,0,7.73,23.68C6369.26,803.32,6398.09,815.45,6398.09,815.45Z" transform="translate(-4084.06 -180.61)"/><path class="cls-6" d="M6353,767.39s-5.6,35.5-38.47,51.66a237.69,237.69,0,0,1-8.16-23.88l23.18-30.66C6344.57,764.44,6353,767.39,6353,767.39Z" transform="translate(-4084.06 -180.61)"/><path class="cls-14" d="M6559.46,1193.25c-28.54,31.68-215,55.32-209.8,31.55a264.27,264.27,0,0,0,5.94-47.41c.2-5.2.25-10.75.15-16.62a354.4,354.4,0,0,0-10.76-78.71,438.38,438.38,0,0,0-14-45.51c-1.38-3.76-2.82-7.54-4.34-11.39a369.35,369.35,0,0,1-17.95-59.41c-8-37.74-8.64-73,.52-94.79,0-.11,8.92-23.13,9-23.25C6358.11,835,6373.44,797,6373.44,797s124.89,34.44,175.4,215.19C6548.84,1012.21,6584.28,1165.66,6559.46,1193.25Z" transform="translate(-4084.06 -180.61)"/><path class="cls-11" d="M6425.24,925.25S6413,1030,6345,1082.06a438.38,438.38,0,0,0-14-45.51c7.37-24.78,15.78-45.09,23.29-53.75C6384.79,947.53,6425.24,925.25,6425.24,925.25Z" transform="translate(-4084.06 -180.61)"/><path class="cls-5" d="M6290,802.6s64.7-3.12,62.13-43.39,4.06-67.78-37.36-67.48-48.46,16.16-50.87,29.81S6273.1,802.38,6290,802.6Z" transform="translate(-4084.06 -180.61)"/><path class="cls-4" d="M6382.4,696.17c.67-.66,2.11-1.11,5.25-1A12.47,12.47,0,0,0,6382,693c-.29-4.46-2-12.45-9.27-15a9.51,9.51,0,0,1,4,7.22c-7.91-9.72-25.89-17.81-77.52-17.91-68-.13-49.38,45.65-41.06,51.61s31.53-6.6,47.73-3.94,17.33,26.83,22.59,30.57,3.57-2.24,11.33-5.07,7.45,9.84,4.61,17.85,6.57,19.66,6.57,19.66l11.32-10.52c11.33-10.51,25.07-57.85,21.19-68.5Z" transform="translate(-4084.06 -180.61)"/><path class="cls-2" d="M6300.19,778.61s-2.09,5.7-4.74,6.87-11.34,1.85-13,.72-4.56-5.48-4.56-5.48S6291.74,776.91,6300.19,778.61Z" transform="translate(-4084.06 -180.61)"/><rect class="cls-10" x="6236.3" y="889.54" width="18.82" height="277.18" transform="translate(-4079.41 -208.48) rotate(0.26)"/><path class="cls-10" d="M6375.77,1774.76c1.82.21,3.43-.2,3-3.12L6291.2,1151.1l-12.59,7.86,93.87,612.93A3.37,3.37,0,0,0,6375.77,1774.76Z" transform="translate(-4084.06 -180.61)"/><rect class="cls-10" x="6205.46" y="1150.91" width="85.53" height="15.82" transform="translate(-4078.8 -208.64) rotate(0.26)"/><path class="cls-15" d="M6332.62,1470.66l-4.6.48A8.21,8.21,0,0,1,6319,1464l-1.32-12.1a8.13,8.13,0,0,1,7.3-8.87l4.6-.48a8.21,8.21,0,0,1,9.05,7.16l1.32,12.09A8.13,8.13,0,0,1,6332.62,1470.66Z" transform="translate(-4084.06 -180.61)"/><path class="cls-10" d="M6115.64,1773.59c-1.82.19-3.42-.23-3-3.14l93.2-619.73,12.51,8L6119,1770.75A3.38,3.38,0,0,1,6115.64,1773.59Z" transform="translate(-4084.06 -180.61)"/><path class="cls-15" d="M6161.56,1469.81l4.57.52a8.16,8.16,0,0,0,9.06-7l1.42-12a8.08,8.08,0,0,0-7.18-8.9l-4.57-.52a8.17,8.17,0,0,0-9.06,7.05l-1.42,12A8.08,8.08,0,0,0,6161.56,1469.81Z" transform="translate(-4084.06 -180.61)"/><path class="cls-16" d="M6261.38,894.23l-32.83-.15a3.76,3.76,0,0,1-3.73-3.77l.06-14.21,40.33.19-.06,14.21A3.76,3.76,0,0,1,6261.38,894.23Z" transform="translate(-4084.06 -180.61)"/><rect class="cls-10" x="6212.93" y="857.11" width="63.55" height="20.17" transform="translate(8401.39 1581.84) rotate(-179.74)"/><rect class="cls-10" x="6232.1" y="831.79" width="25.41" height="26.9" transform="translate(8401.67 1538.05) rotate(-179.74)"/><rect class="cls-10" x="6008.03" y="733.64" width="14.79" height="79.55" transform="translate(-4080.52 -207.66) rotate(0.26)"/><rect class="cls-9" x="6022.82" y="735.1" width="64.13" height="76.05" transform="translate(-4080.52 -207.85) rotate(0.26)"/><rect class="cls-9" x="6086.84" y="737.15" width="64.13" height="72.52" transform="translate(-4080.53 -208.09) rotate(0.26)"/><rect class="cls-9" x="6150.97" y="747.21" width="64.13" height="52.98" transform="translate(-4080.52 -208.42) rotate(0.26)"/><rect class="cls-10" x="6197.09" y="724.73" width="79.08" height="107.36" transform="translate(-4080.5 -208.64) rotate(0.26)"/><rect class="cls-10" x="6276.31" y="734.58" width="7.31" height="26.12" transform="translate(-4080.6 -209.12) rotate(0.26)"/><rect class="cls-10" x="6279.97" y="732.88" width="7.31" height="29.57" transform="translate(-4080.65 -208.71) rotate(0.26)"/><rect class="cls-10" x="6230.48" y="711.07" width="13.99" height="13.66" transform="translate(-4080.77 -208.7) rotate(0.26)"/><rect class="cls-10" x="6211.54" y="697.5" width="50.84" height="14.85" transform="translate(-4080.82 -208.69) rotate(0.26)"/><path class="cls-5" d="M6255.77,852.7s-9.15-34.47-12.23-39.46-20.18-19.12-21.77-18.59-2.34,2-.91,5.26,8.18,12.85,6.59,12.85-23-26.6-29.18-23.79-8.69,24.91-2.21,39,36.64,32.74,38.06,35C6246.17,881.69,6255.77,852.7,6255.77,852.7Z" transform="translate(-4084.06 -180.61)"/><path class="cls-14" d="M6256.67,850.49s-26.25,9.63-23.69,25.41c.94,5.83,53.73,181.34,84.75,183.42s130.33-140.75,123.72-180.54-52.1-58.42-68.62-49.76-34.75,124.69-41.53,122.72S6256.67,850.49,6256.67,850.49Z" transform="translate(-4084.06 -180.61)"/><path class="cls-5" d="M6068.08,724.62s-20.91,14.93-12.69,18.85,25.81,3.87,33.78-3.79S6083.13,721.77,6068.08,724.62Z" transform="translate(-4084.06 -180.61)"/><path class="cls-17" d="M4427.19,866l-.31,3.66a92.64,92.64,0,0,0-16.42.69,115.23,115.23,0,0,0-20.3,4.34c-18.52,5.8-44.12,19.35-60.91,51.08-14.75,27.84,1,74.31,17.69,123.51,20.39,60.11,43.5,128.26,19.18,182-23.18,51.17-36.8,100.61-39.43,143-2.93,47.54,7.73,84.24,31.71,109.07,17.3,17.92,32.12,49.35,39.61,84.06,7.87,36.39,6.91,72.11-2.61,98-5,13.71-12.38,24.62-21.75,32.55-.59-1.12-1.19-2.24-1.78-3.38,8.62-7.48,15.37-17.7,20.07-30.44,20.78-56.46-2.81-143.67-36.18-178.24C4331,1460.27,4320,1422.64,4323,1374c2.65-42.8,16.39-92.68,39.74-144.24,23.73-52.41.86-119.82-19.3-179.3-17.69-52.12-33-97.15-17.47-126.4,17.42-32.9,44-46.93,63.21-52.92a118.86,118.86,0,0,1,21.26-4.51A91.45,91.45,0,0,1,4427.19,866Z" transform="translate(-4084.06 -180.61)"/><rect class="cls-17" x="492.44" y="459.42" width="85.1" height="444.97"/><rect class="cls-18" x="427.22" y="776.75" width="17.38" height="255.98"/><path class="cls-18" d="M4643.19,1774.32c1.68.18,3.16-.21,2.79-2.9l-83.49-572.7L4550.9,1206l89.23,565.65A3.13,3.13,0,0,0,4643.19,1774.32Z" transform="translate(-4084.06 -180.61)"/><rect class="cls-18" x="399.28" y="1018.11" width="78.99" height="14.62"/><path class="cls-17" d="M4602.07,1492.74l-4.25.46a7.57,7.57,0,0,1-8.38-6.57l-1.27-11.17a7.5,7.5,0,0,1,6.7-8.22l4.25-.47a7.58,7.58,0,0,1,8.38,6.58l1.27,11.16A7.51,7.51,0,0,1,4602.07,1492.74Z" transform="translate(-4084.06 -180.61)"/><path class="cls-18" d="M4403,1774.32c-1.68.18-3.16-.21-2.79-2.9l83.49-572.7,11.59,7.31L4406,1771.68A3.13,3.13,0,0,1,4403,1774.32Z" transform="translate(-4084.06 -180.61)"/><path class="cls-17" d="M4444.09,1492.67l4.22.46a7.54,7.54,0,0,0,8.34-6.54l1.27-11.1a7.46,7.46,0,0,0-6.67-8.18l-4.22-.47a7.56,7.56,0,0,0-8.35,6.54l-1.26,11.11A7.46,7.46,0,0,0,4444.09,1492.67Z" transform="translate(-4084.06 -180.61)"/><path class="cls-10" d="M416,764.42h37.24a0,0,0,0,1,0,0v16.05a.53.53,0,0,1-.53.53H416.58a.53.53,0,0,1-.53-.53V764.42A0,0,0,0,1,416,764.42Z"/><rect class="cls-19" x="326.4" y="657.81" width="81" height="57.07"/><polygon class="cls-18" points="486.56 453.31 486.71 909.5 405.98 776.26 405.98 624.66 486.56 453.31"/><path class="cls-19" d="M4570.6,633.91v456.67h97.56V633.91ZM4658,1080.47h-77.32V644H4658Z" transform="translate(-4084.06 -180.61)"/><ellipse class="cls-20" cx="885.53" cy="829.43" rx="204.18" ry="201.94"/><path class="cls-10" d="M4888.92,1023.46c0-25.74,21.1-46.61,47.12-46.61s47.12,20.87,47.12,46.61-21.09,46.6-47.12,46.6S4888.92,1049.2,4888.92,1023.46Z" transform="translate(-4084.06 -180.61)"/><rect class="cls-10" x="847.17" y="878.71" width="15.33" height="223.37"/><path class="cls-10" d="M5047.61,1772.2c1.48.16,2.79-.18,2.46-2.53l-73.66-499.73-10.22,6.37,78.72,493.58A2.77,2.77,0,0,0,5047.61,1772.2Z" transform="translate(-4084.06 -180.61)"/><rect class="cls-10" x="822.52" y="1089.33" width="69.69" height="12.75"/><path class="cls-7" d="M5011.33,1526.49l-3.75.41a6.67,6.67,0,0,1-7.39-5.74l-1.12-9.74a6.57,6.57,0,0,1,5.91-7.18l3.75-.4a6.65,6.65,0,0,1,7.39,5.74l1.12,9.74A6.55,6.55,0,0,1,5011.33,1526.49Z" transform="translate(-4084.06 -180.61)"/><path class="cls-10" d="M4835.65,1772.2c-1.48.16-2.79-.18-2.46-2.53l73.66-499.73,10.22,6.37-78.72,493.58A2.77,2.77,0,0,1,4835.65,1772.2Z" transform="translate(-4084.06 -180.61)"/><path class="cls-7" d="M4872,1526.43l3.72.41a6.64,6.64,0,0,0,7.36-5.71l1.12-9.69a6.54,6.54,0,0,0-5.89-7.14l-3.72-.4a6.64,6.64,0,0,0-7.36,5.71l-1.11,9.68A6.52,6.52,0,0,0,4872,1526.43Z" transform="translate(-4084.06 -180.61)"/><path class="cls-10" d="M837.31,868h32.86a0,0,0,0,1,0,0v14a.46.46,0,0,1-.46.46H837.77a.46.46,0,0,1-.46-.46V868A0,0,0,0,1,837.31,868Z"/><rect class="cls-10" x="604.84" y="162.32" width="1613.49" height="58.92"/><rect class="cls-10" x="565.97" y="177.19" width="1691.23" height="29.19"/><path class="cls-9" d="M4936.32,1027.67c-.18,0-18.79,3-39.13,18.08-18.77,13.93-42.9,41.35-51.34,92.93-6.26,38.31-7.76,97.53-9.35,160.24-2.61,103.21-5.31,209.93-29.69,240.12-18.76,23.21-12.49,45-5.86,68.15,6.78,23.57,13.77,48-5.1,75.33-18.51,26.85-50.73,17.44-88,6.56-39.37-11.49-88.35-25.79-137.29-2.26-60.18,28.93-134,38.28-180.42,41.25-.65-1.17-1.31-2.34-2-3.56,45.94-2.81,120.39-12,180.83-41,50.21-24.14,99.94-9.62,139.91,2,37.42,10.91,67,19.54,84-5.1,17.9-26,11.14-49.48,4.61-72.24-6.61-23-13.43-46.77,6.53-71.48,23.59-29.21,26.27-135.3,28.86-237.9,1.6-62.83,3.1-122.18,9.41-160.73,8.66-52.91,33.57-81.1,52.93-95.43,21.06-15.56,39.83-18.52,40.62-18.63Z" transform="translate(-4084.06 -180.61)"/><path class="cls-9" d="M4928.33,1025.38a5.13,5.13,0,1,1,5.13,5.13A5.13,5.13,0,0,1,4928.33,1025.38Z" transform="translate(-4084.06 -180.61)"/><rect class="cls-21" x="275.81" y="1589.49" width="2494.96" height="9.88"/></g></svg>